<svg id="Warstwa_1" data-name="Warstwa 1" xmlns="http://www.w3.org/2000/svg" viewBox="0 0 185.26 170.33"><defs><style>.cls-1{fill:none;stroke:#fff;stroke-miterlimit:10;stroke-width:2px;}.cls-2{fill:#fff;}</style></defs><path class="cls-1" d="M331.71,230.73c-16.66,0-16.66.16-33.32.16s-16.67,2.3-33.33,2.3-16.66,5.08-33.33,5.08-16.66-5.9-33.33-5.9-16.67-2.05-33.33-2.05c-5,0-7.09-.1-7.09-5.11,0-19.56-1-19.56-1-39.11,0-5,3.11-8,8.12-8,16.66,0,16.66-1.2,33.33-1.2s16.66-2.9,33.32-2.9,16.67,3.27,33.33,3.27,16.67,2.67,33.33,2.67,16.67.25,33.33.25c5,0,8.4.92,8.4,5.93,0,19.55.1,19.55.1,39.11C340.21,230.22,336.72,230.73,331.71,230.73Z" transform="translate(-155.95 -172.98)"/><path class="cls-2" d="M185.49,211.72a2,2,0,0,1,0,.65,1.61,1.61,0,0,1-.16.51.24.24,0,0,1-.22.08,1,1,0,0,0-.24,0c-.16.06-.34.11-.53.16a.57.57,0,0,1-.25,0,.32.32,0,0,0-.14,0,.75.75,0,0,0-.13.06l-.13,0a1.74,1.74,0,0,1-.4,0h-.47a2.46,2.46,0,0,1-.85.12,4.58,4.58,0,0,0-.77,0,1.57,1.57,0,0,1-.43,0,3.07,3.07,0,0,0-.53,0h-.35a1,1,0,0,1-.37-.12l-.17.07a.48.48,0,0,0-.18.08l-.19-.08a.48.48,0,0,0-.22-.05,2.12,2.12,0,0,0-.42,0,.26.26,0,0,1-.3-.19c-.07,0-.12,0-.14.07a.16.16,0,0,1-.15.06l-.24,0-.3,0a.68.68,0,0,0-.15-.18.33.33,0,0,1-.13-.19c0-.13,0-.21,0-.24l.07-.11c0-.19,0-.3,0-.34a.21.21,0,0,1-.09-.19,1,1,0,0,0,0-.35,1.93,1.93,0,0,1,0-.34c0-.08,0-.14,0-.2l0-.18a2,2,0,0,1,0-.42,2.31,2.31,0,0,0,0-.38,1.36,1.36,0,0,0,0-.21c0-.07,0-.13,0-.21a.88.88,0,0,1,0-.16.45.45,0,0,0,0-.16,2.45,2.45,0,0,0,0-.54c0-.18,0-.36-.08-.53a1.68,1.68,0,0,1,0-.41,3.21,3.21,0,0,0,0-.53,1.55,1.55,0,0,0,0-.15.41.41,0,0,1,0-.16,1.06,1.06,0,0,1,0-.31,2,2,0,0,0,0-.34,1.09,1.09,0,0,0,0-.18.76.76,0,0,1,0-.15l0-.12a.21.21,0,0,1,0-.12,2.74,2.74,0,0,1,0-.57,1.52,1.52,0,0,0,0-.52c0-.13,0-.25-.05-.37l-.06-.35v-.37a.64.64,0,0,1,0-.17.27.27,0,0,0-.08-.16,1.65,1.65,0,0,0,0-.5,4,4,0,0,0-.06-.5.78.78,0,0,0,0-.16l-.05-.17a.3.3,0,0,1,0-.11.61.61,0,0,0,0-.15s0-.07,0-.12a.57.57,0,0,1,0-.12,1.23,1.23,0,0,1,0-.27.67.67,0,0,0,0-.25,1.4,1.4,0,0,0-.06-.32c0-.09-.05-.19-.07-.27a1.68,1.68,0,0,1,0-.2V200a.68.68,0,0,0,0-.24.41.41,0,0,1,0-.1v-.58a1.69,1.69,0,0,0,0-.25.51.51,0,0,1,0-.25.38.38,0,0,0,0-.15,1.57,1.57,0,0,0,0-.28.45.45,0,0,1,0-.28.17.17,0,0,0-.08-.16.22.22,0,0,1-.1-.13,3.4,3.4,0,0,0,0-.64,2.86,2.86,0,0,1,0-.58,1.5,1.5,0,0,0,.23-.15.45.45,0,0,1,.34-.05.77.77,0,0,0,.19.08.11.11,0,0,0,.08,0l.06,0s0,0,.08,0a4.58,4.58,0,0,1,.81,0,5.88,5.88,0,0,0,1,0,.27.27,0,0,0,.13,0h.11a.57.57,0,0,1,.22.11.4.4,0,0,1,.13.15c0,.08,0,.13,0,.17l-.06.16a1,1,0,0,1,.08.51c0,.17,0,.35,0,.54a.2.2,0,0,0,0,.13.24.24,0,0,1,0,.15.57.57,0,0,1,0,.22.78.78,0,0,0,0,.22,2.6,2.6,0,0,0,0,.37.54.54,0,0,1-.06.39,1.24,1.24,0,0,1,0,.42,4.71,4.71,0,0,1,0,.48.13.13,0,0,1,0,.12.24.24,0,0,0,0,.12.68.68,0,0,0,.09.33c.06.11,0,.25-.09.41a1,1,0,0,1,.19.67,5.6,5.6,0,0,0,0,.83,3.58,3.58,0,0,0,.06.37,1.48,1.48,0,0,1,.05.35,2.94,2.94,0,0,1,0,.42,1.41,1.41,0,0,0,0,.41.78.78,0,0,1,0,.22.23.23,0,0,0,0,.11.54.54,0,0,1,0,.22.11.11,0,0,0,0,.08.37.37,0,0,0,0,.12l.05.12a.78.78,0,0,1,0,.16s0,.09,0,.15l.07.46,0,.36c0,.11,0,.24,0,.4s0,.13.05.18a.52.52,0,0,1,0,.11.24.24,0,0,0,0,.15.17.17,0,0,1-.06.15,2.44,2.44,0,0,1,.09.49.89.89,0,0,1-.07.43.77.77,0,0,1,0,.32,3,3,0,0,0,0,.44s0,.1.05.15a.24.24,0,0,1-.09.2,3,3,0,0,1,.06.58,3.42,3.42,0,0,0,0,.62.57.57,0,0,0,.43.13l.51,0a2.75,2.75,0,0,1,.5,0,4.1,4.1,0,0,0,.5,0h.24l.39,0a1.47,1.47,0,0,0,.42,0,.26.26,0,0,0,.11,0,.38.38,0,0,1,.15,0,.44.44,0,0,0,.23,0l.12,0h.33c.08,0,.14,0,.17,0l.09,0a1.58,1.58,0,0,1,.42-.09,1,1,0,0,0,.3,0,1,1,0,0,1,.49,0,.51.51,0,0,1,.23.15l0,.18,0,.17a1,1,0,0,0,0,.17c0,.05,0,.1.05.16a.4.4,0,0,1,0,.17.27.27,0,0,0,0,.18.31.31,0,0,0,0,.13Z" transform="translate(-155.95 -172.98)"/><path class="cls-2" d="M197.42,197.6a.5.5,0,0,1,.11.17.56.56,0,0,1,0,.41.19.19,0,0,1-.17.12.15.15,0,0,1,0,.17.35.35,0,0,0,0,.18,3.84,3.84,0,0,0,0,.48,1.41,1.41,0,0,1,0,.46.62.62,0,0,1-.07.19l-.08.16-.09.2a.73.73,0,0,1-.09.13.49.49,0,0,1-.43,0,.66.66,0,0,0-.48,0,.4.4,0,0,0-.35-.09.43.43,0,0,1-.37-.11.65.65,0,0,1-.39,0,2.25,2.25,0,0,0-.4-.06l-.13,0a.29.29,0,0,1-.13,0,.65.65,0,0,1-.22-.08.54.54,0,0,0-.22-.05.28.28,0,0,0-.18,0,.76.76,0,0,1-.21,0h-.37a6.12,6.12,0,0,0-.63-.06l-.74-.07a4.92,4.92,0,0,0-.67,0,5.85,5.85,0,0,0-.71,0,.8.8,0,0,0-.08.45c0,.15,0,.31.06.47l0,.48,0,.48a.36.36,0,0,1,0,.14.78.78,0,0,0,0,.14c0,.09,0,.2,0,.33a2.36,2.36,0,0,1,0,.37,1.14,1.14,0,0,1,0,.27.38.38,0,0,0,.05.25,1.18,1.18,0,0,0,.43.07l.3,0h.27l.47,0h1.2c.24,0,.5,0,.79,0l.39-.06a.54.54,0,0,1,.38.08.59.59,0,0,1,.23-.05.9.9,0,0,0,.23,0,.48.48,0,0,1,.17,0,.44.44,0,0,0,.18,0h.54l.37,0,.21,0a.54.54,0,0,1,.18,0c.08,0,.12,0,.12.08a.35.35,0,0,0,.06.14.8.8,0,0,1,.09.36,4.21,4.21,0,0,1,0,.45.27.27,0,0,1,0,.2.61.61,0,0,0,0,.17,4.32,4.32,0,0,0,0,.51,2.12,2.12,0,0,0,.11.47l-.09.23a.57.57,0,0,1-.13.21.16.16,0,0,0-.15,0,.22.22,0,0,1-.13,0,.48.48,0,0,1-.18,0l-.15-.08s-.08,0-.14,0-.09,0-.08-.1a.9.9,0,0,1-.37.15.3.3,0,0,0-.22.09.35.35,0,0,0-.25-.07.86.86,0,0,0-.27.05.59.59,0,0,0-.23-.05l-.32,0a.33.33,0,0,0-.25,0,.9.9,0,0,1-.25.08.75.75,0,0,0-.39,0l-.33.11c-.07,0-.11,0-.13,0s-.06-.07-.13-.06a.37.37,0,0,1-.25.06.24.24,0,0,0-.23.07.3.3,0,0,0-.31-.05.33.33,0,0,1-.34-.08q0,.09-.12.06a.25.25,0,0,0-.19,0,.41.41,0,0,0-.16,0l-.17,0a.56.56,0,0,1-.25,0,.31.31,0,0,0-.25,0,.14.14,0,0,0-.08.17,1,1,0,0,1,0,.24l0,.13a.68.68,0,0,0,0,.14.45.45,0,0,0,0,.16.22.22,0,0,1,0,.16,1.22,1.22,0,0,1,0,.37c0,.13-.07.27-.1.4a2.29,2.29,0,0,0-.09.54.54.54,0,0,1-.11.35.49.49,0,0,1,.07.24c0,.12,0,.24,0,.37v.64a1,1,0,0,1,0,.3l-.05.13a.59.59,0,0,0,0,.13.69.69,0,0,0,0,.24.39.39,0,0,1,0,.26.73.73,0,0,0,.43.09l.53,0,.76-.07a5.71,5.71,0,0,1,.68,0,1,1,0,0,1,.32,0,.51.51,0,0,0,.3,0,2.56,2.56,0,0,1,.36-.07,1,1,0,0,1,.38,0,1.19,1.19,0,0,1,.38,0l.27,0H195l.34,0,.16,0,.17,0a.82.82,0,0,0,.21,0H196a.31.31,0,0,0,.18,0l.06,0a.28.28,0,0,0,.22,0,.52.52,0,0,1,.33,0,.2.2,0,0,1,.08.14.17.17,0,0,0,.07.14c0,.07,0,.12.05.13a.14.14,0,0,1,.08.11,5.17,5.17,0,0,1,0,1q-.06.51-.09,1.08a.24.24,0,0,1-.11.09l-.15.08-.14.09a.32.32,0,0,1-.16,0l-.18,0-.17-.06a.71.71,0,0,0-.21,0l-.23,0-.38,0-.43-.05-.44,0a.65.65,0,0,1-.32-.08.15.15,0,0,0-.15,0,.22.22,0,0,1-.16.05,1.7,1.7,0,0,0-.46-.06l-.54,0a1.6,1.6,0,0,0-.38,0,1.7,1.7,0,0,1-.4,0,2.16,2.16,0,0,1-.36,0,1.09,1.09,0,0,0-.36,0,2,2,0,0,0-.36,0,1,1,0,0,1-.34,0,.54.54,0,0,1-.19,0,.48.48,0,0,0-.18,0,.39.39,0,0,1-.22,0,.57.57,0,0,0-.18,0,1.44,1.44,0,0,0-.37,0,.85.85,0,0,1-.37-.12.23.23,0,0,1-.16,0,.44.44,0,0,0-.16,0,.6.6,0,0,1-.18,0h-.11a1.37,1.37,0,0,0-.29.07.44.44,0,0,1-.3,0c-.1-.07-.16-.13-.17-.19s0-.13-.07-.2a1.21,1.21,0,0,0-.05-.14.45.45,0,0,1,0-.16.3.3,0,0,1,0-.19.43.43,0,0,0,0-.16,1.29,1.29,0,0,0-.07-.21l-.09-.19a1.14,1.14,0,0,0,0-.45,1.89,1.89,0,0,1,0-.48,1.85,1.85,0,0,1,0-.29.44.44,0,0,0,0-.15.3.3,0,0,0,0-.13l0-.13q0-.1,0-.12s0,0,0-.12a1.86,1.86,0,0,0-.1-.37.58.58,0,0,1,0-.39.28.28,0,0,0,0-.2.26.26,0,0,1,0-.11,1,1,0,0,1,0-.23c0-.08,0-.16.08-.25a1.11,1.11,0,0,0,0-.19c0-.05,0-.1-.05-.16s0-.16,0-.18a.17.17,0,0,1,0-.1,1.1,1.1,0,0,1,0-.18.5.5,0,0,0,0-.17,1.12,1.12,0,0,1,0-.32.2.2,0,0,0-.07-.23.61.61,0,0,0,0-.44,2.65,2.65,0,0,1,0-.5.31.31,0,0,1,0-.19c0-.06,0-.13,0-.2a.78.78,0,0,0,0-.16.88.88,0,0,1,0-.17,2.11,2.11,0,0,0,0-.25V205a.59.59,0,0,1,0-.13.3.3,0,0,0,0-.13.84.84,0,0,1,0-.14,1.28,1.28,0,0,1,0-.17q0-.19.06-.24l-.07-.17s0-.1.05-.18-.07-.25-.05-.28a.23.23,0,0,0,0-.13c0-.16,0-.3,0-.43a2.19,2.19,0,0,1,0-.36.39.39,0,0,1,0-.14.78.78,0,0,0,0-.14.72.72,0,0,0,0-.17.22.22,0,0,1,0-.16,2.3,2.3,0,0,0,.11-.57.61.61,0,0,1,.1-.36.94.94,0,0,1-.06-.67,3.31,3.31,0,0,0,.09-.77,3.53,3.53,0,0,0,0-.56,2.16,2.16,0,0,1,0-.62,1.23,1.23,0,0,0,0-.4,1.38,1.38,0,0,1,0-.26.93.93,0,0,1,0-.22l.09-.21.08-.17a.23.23,0,0,1,.12-.12,6.35,6.35,0,0,0,1.84.08,8.49,8.49,0,0,1,1.74,0l.47.09a2.33,2.33,0,0,0,.46.08.8.8,0,0,0,.31,0,2.9,2.9,0,0,1,.39-.05,1.43,1.43,0,0,0,.3,0h.12a.54.54,0,0,1,.19,0,.64.64,0,0,0,.2,0,1.32,1.32,0,0,0,.33,0,1.77,1.77,0,0,1,.32,0l.29,0a.76.76,0,0,1,.3,0,2.3,2.3,0,0,1,.48.05c.19,0,.37.06.55.08a.51.51,0,0,1,.25,0l.14,0a2.21,2.21,0,0,0,.57,0A3.33,3.33,0,0,1,197.42,197.6Z" transform="translate(-155.95 -172.98)"/><path class="cls-2" d="M214.22,212.81a.2.2,0,0,1-.19.15.23.23,0,0,0-.2.16.48.48,0,0,1-.28-.13.46.46,0,0,1-.18.12.2.2,0,0,0-.11,0,.62.62,0,0,0-.26.17.38.38,0,0,1-.13-.06.52.52,0,0,0-.15-.07l-.35,0-.2,0a.91.91,0,0,1-.3,0,.68.68,0,0,0-.31,0,.4.4,0,0,1-.19,0,.19.19,0,0,0-.2.08c-.07,0-.12,0-.13,0s-.06,0-.13,0a1.09,1.09,0,0,1-.25.1l-.3.08a.28.28,0,0,1-.18-.17.56.56,0,0,0-.17-.21.5.5,0,0,0,0-.21.22.22,0,0,1,0-.16.17.17,0,0,1-.07-.14,1.41,1.41,0,0,0,0-.18,1,1,0,0,1-.11-.29,1.82,1.82,0,0,0-.11-.35.29.29,0,0,1,0-.24.41.41,0,0,1-.13-.25q0-.14-.09-.36a.24.24,0,0,1,0-.16.31.31,0,0,0,0-.1.86.86,0,0,1-.11-.33.55.55,0,0,0,0-.17l-.12-.33a2.17,2.17,0,0,0-.07-.24l-.09-.12a.56.56,0,0,1-.09-.14.39.39,0,0,1,0-.18.41.41,0,0,0,0-.19l-.08-.15a1.12,1.12,0,0,1-.05-.13,1.27,1.27,0,0,1-.06-.28.49.49,0,0,0-.1-.25.39.39,0,0,0-.26,0l-.24.07h-.14a.22.22,0,0,0-.14,0l-.28,0a.43.43,0,0,1-.25,0l-.14,0a.32.32,0,0,1-.16,0,.45.45,0,0,0-.23,0h-.3l-.3,0a.58.58,0,0,1-.24,0,2.36,2.36,0,0,1-.33-.05l-.15,0h-.33a1,1,0,0,1-.33,0,.34.34,0,0,1-.15.06.25.25,0,0,0-.13.09.89.89,0,0,0-.4,0,1.07,1.07,0,0,1-.41,0,.4.4,0,0,0-.17.31,2.21,2.21,0,0,1,0,.35,1.09,1.09,0,0,1-.14.31c-.05.1-.11.2-.17.3l-.09.22a1.06,1.06,0,0,1-.11.21l-.06.16,0,.08s0,.05,0,.05a.67.67,0,0,1-.06.23.16.16,0,0,0,0,.09.38.38,0,0,0,0,.2.7.7,0,0,1,0,.2.89.89,0,0,1-.12.26.49.49,0,0,0-.08.28.88.88,0,0,0-.26.36,1,1,0,0,1-.26.38,2.11,2.11,0,0,1-.09.38c0,.11-.09.22-.14.33a2.06,2.06,0,0,0-.12.35,1.91,1.91,0,0,0,0,.43l-.22.12a.27.27,0,0,1-.26,0l-.34-.15a1.17,1.17,0,0,1-.25-.11.69.69,0,0,0-.24,0h-.31a.4.4,0,0,1-.22,0l-.13,0h-.16a.65.65,0,0,1-.19,0,1.82,1.82,0,0,1-.5-.16,2.49,2.49,0,0,0-.46-.19.9.9,0,0,1,0-.18c0-.06,0-.12.07-.19a.27.27,0,0,1,.11-.14.09.09,0,0,0,0-.12l.14-.35.17-.35a1.09,1.09,0,0,1,.13-.27l.09-.1a2.24,2.24,0,0,1,.12-.3l.05-.12.07-.17a.52.52,0,0,1,.11-.17l.19-.27a1.69,1.69,0,0,1,.13-.31l.11-.17a1.27,1.27,0,0,0,.18-.27c0-.09.09-.2.15-.31l.15-.21a.82.82,0,0,0,.11-.23.87.87,0,0,1,.07-.19.43.43,0,0,0,0-.07c0-.09,0-.14,0-.17l0-.07a2.1,2.1,0,0,0,.18-.4,1.76,1.76,0,0,1,.19-.39.43.43,0,0,1,.14-.19.33.33,0,0,0,.1-.24.4.4,0,0,0,.15-.19,1,1,0,0,1,.11-.23.82.82,0,0,1,.12-.2.94.94,0,0,0,.14-.19c0-.07.06-.15.1-.23a1,1,0,0,1,.12-.23,1.06,1.06,0,0,1,.11-.21.4.4,0,0,1,.19-.14.31.31,0,0,1,0-.23,2.29,2.29,0,0,0,.1-.23.91.91,0,0,1,.11-.16.76.76,0,0,0,.11-.16l.11-.22a1.36,1.36,0,0,1,.14-.28.32.32,0,0,0,.08-.09.17.17,0,0,0,0-.13.19.19,0,0,1,0-.11.6.6,0,0,0,.2-.22c0-.09.09-.18.15-.29a1.71,1.71,0,0,0,.13-.27,1,1,0,0,1,.18-.29.24.24,0,0,1,0-.19,1.5,1.5,0,0,0,.09-.18s.05-.09.07-.15a1,1,0,0,1,.08-.14A.84.84,0,0,0,204,202c0-.1,0-.19.08-.28a.55.55,0,0,1,.1-.17c0-.05.07-.1.1-.16a.58.58,0,0,0,.06-.17.2.2,0,0,1,.11-.13,1.17,1.17,0,0,1,.1-.37,3.27,3.27,0,0,0,.14-.33.9.9,0,0,1,.24-.31,1.1,1.1,0,0,0,0-.26.6.6,0,0,1,.05-.24.42.42,0,0,1,.11-.17.54.54,0,0,0,.1-.16l.15-.46a1.9,1.9,0,0,1,.12-.36l.13-.36a3.56,3.56,0,0,1,.13-.39l.12-.25c0-.08.07-.16.1-.25a.72.72,0,0,0,.32-.3,1.93,1.93,0,0,0,.18-.44.35.35,0,0,1,.18,0h.12q.22,0,.27.15a.49.49,0,0,0,.13.2,1.38,1.38,0,0,1,.16.23,1.62,1.62,0,0,1,.1.18,1.25,1.25,0,0,1,.18.24,1.1,1.1,0,0,1,.15.31c0,.06,0,.12.08.19l.09.22a2.68,2.68,0,0,1,.12.24c0,.09.08.18.12.29l.14.4c.05.15.1.3.14.45a.82.82,0,0,1,.06.19.61.61,0,0,0,0,.18l.08.17a.57.57,0,0,0,.08.13c.05.13.12.28.18.43l.21.47a.54.54,0,0,1,.07.13l.08.15a.44.44,0,0,1,.08.11.83.83,0,0,0,.07.13.71.71,0,0,1,.08.15.39.39,0,0,0,.1.16l.12.23a1.3,1.3,0,0,1,.1.27,2.93,2.93,0,0,1,.09.33,1.76,1.76,0,0,1,.08.37c.07.13.14.28.21.44s.13.33.18.49l.12.12a1,1,0,0,1,.12.15.49.49,0,0,0,.09.15l.07.09c.05.13.1.25.14.38s.07.24.1.36a1.5,1.5,0,0,0,.11.22.53.53,0,0,1,.06.26,2,2,0,0,1,.2.31l.11.26.15.25.09.16a1.91,1.91,0,0,1,.24.41,1.05,1.05,0,0,1,.05.19.5.5,0,0,0,.05.16,2.65,2.65,0,0,0,.11.3,1.42,1.42,0,0,1,.11.31.63.63,0,0,1,.17.2,2,2,0,0,1,.09.22.74.74,0,0,1,.09.18l.09.23a1.62,1.62,0,0,0,.17.35,1.2,1.2,0,0,1,.16.35l.09.22a1.47,1.47,0,0,1,.1.22.45.45,0,0,1,0,.18.17.17,0,0,0,0,.14,3,3,0,0,0,.13.29c.09.29.19.59.3.91s.16.38.26.57A2.57,2.57,0,0,1,214.22,212.81Zm-5.87-6.57a.25.25,0,0,0,0-.17c0-.06,0-.12,0-.2s0-.12,0-.19a1,1,0,0,0-.05-.2.85.85,0,0,0-.1-.14.42.42,0,0,1-.08-.12l-.08-.54c0-.15,0-.3-.07-.46a1,1,0,0,1-.18-.22,1.11,1.11,0,0,1-.16-.3,1.89,1.89,0,0,1-.05-.23c0-.11-.06-.21-.09-.29l-.09-.23a2.37,2.37,0,0,1-.06-.31c0-.08,0-.17-.07-.26s0-.08,0-.12a.73.73,0,0,1-.05-.12,1.87,1.87,0,0,1-.08-.28.28.28,0,0,0-.16-.2.36.36,0,0,0-.24.26.73.73,0,0,1-.15.33.83.83,0,0,0-.11.13,1.7,1.7,0,0,1-.08.34,1.72,1.72,0,0,1-.07.21l-.08.19-.07.18-.08.13-.06.11-.34.64a4.11,4.11,0,0,0-.27.56.83.83,0,0,0-.06.21c0,.06,0,.13-.07.2a.57.57,0,0,1-.11.16.56.56,0,0,0-.11.17.49.49,0,0,0,0,.12.23.23,0,0,1,0,.14,1.36,1.36,0,0,0-.18.38,1.6,1.6,0,0,1-.08.26,1,1,0,0,0,.49.09h.49l.85-.05a6.25,6.25,0,0,0,.75-.1,1.63,1.63,0,0,1,.54,0A.83.83,0,0,0,208.35,206.24Z" transform="translate(-155.95 -172.98)"/><path class="cls-2" d="M227.16,213.49a.79.79,0,0,1-.28.26.77.77,0,0,0-.23.14s-.07.06-.1.06a.41.41,0,0,1-.35-.07,1.62,1.62,0,0,1-.56.07,1.36,1.36,0,0,0-.49,0,.3.3,0,0,0-.17.08l-.15.09a.74.74,0,0,1-.23,0h-.23a.46.46,0,0,1-.14-.17,1,1,0,0,1-.1-.21.8.8,0,0,1-.26-.26.36.36,0,0,1-.08-.12.36.36,0,0,0-.08-.12,2.36,2.36,0,0,1-.24-.38c-.05-.12-.1-.23-.13-.32l-.14-.17a1,1,0,0,1-.14-.2l-.15-.18a.64.64,0,0,1-.13-.19.37.37,0,0,1-.05-.16.32.32,0,0,0,0-.16,1,1,0,0,0-.17-.24.64.64,0,0,1-.12-.29l-.16-.18a.42.42,0,0,0-.23-.15.56.56,0,0,0-.14-.25.59.59,0,0,1-.16-.27,1.25,1.25,0,0,1-.13-.28.42.42,0,0,1-.06-.14.44.44,0,0,0-.05-.15.52.52,0,0,0-.19-.17.34.34,0,0,1-.16-.24c-.12,0-.2,0-.23-.1a.31.31,0,0,0-.21-.12,1.7,1.7,0,0,0-.27-.39,2.25,2.25,0,0,1-.3-.42,2.07,2.07,0,0,1-.54-.39,2.19,2.19,0,0,0-.57-.41.47.47,0,0,0-.39-.24.54.54,0,0,0-.09.36,1.07,1.07,0,0,1,0,.4,3.55,3.55,0,0,1-.08.47,1.9,1.9,0,0,1-.12.4c0,.08,0,.12,0,.15s.06.06.05.14,0,.09-.06.15a.33.33,0,0,0,0,.17.37.37,0,0,0,.06.21.62.62,0,0,1,0,.25.92.92,0,0,1,0,.39c0,.16-.06.3-.08.42a.57.57,0,0,1,0,.22s0,.06,0,.08v.31a1.37,1.37,0,0,1,0,.28.79.79,0,0,1,0,.36c0,.08,0,.16-.07.23a.38.38,0,0,1,0,.18.06.06,0,0,0,0,.06.28.28,0,0,0,0,.13.2.2,0,0,1,0,.11,1.29,1.29,0,0,1-.08.37.64.64,0,0,0,0,.37l.06.21a.09.09,0,0,1,0,.1.37.37,0,0,1-.15.26.3.3,0,0,0-.13.24,1.2,1.2,0,0,0-.47.05.51.51,0,0,1-.4-.05l-.37.09a1.21,1.21,0,0,1-.42,0,.67.67,0,0,0-.31,0,.14.14,0,0,1-.12,0,6.23,6.23,0,0,0-.11-.72.55.55,0,0,1,.11-.51.35.35,0,0,0,0-.13.38.38,0,0,1,0-.15.93.93,0,0,0,0-.35.75.75,0,0,1,0-.2.88.88,0,0,1,.05-.15.22.22,0,0,0,0-.13.62.62,0,0,0,0-.23.7.7,0,0,1,0-.25,2.32,2.32,0,0,1,0-.24,1.12,1.12,0,0,0,0-.24.6.6,0,0,0-.06-.24.27.27,0,0,1,0-.26.62.62,0,0,0,0-.26c0-.12,0-.24,0-.35a1.27,1.27,0,0,1,0-.2.68.68,0,0,1,0-.19,2,2,0,0,0,0-.25,1.85,1.85,0,0,1,0-.23.3.3,0,0,1,0-.12.24.24,0,0,0,0-.12.93.93,0,0,1,0-.31c0-.07,0-.13,0-.17a.89.89,0,0,0,0-.23.9.9,0,0,1,0-.28,1.11,1.11,0,0,0,0-.17.34.34,0,0,1,0-.2,1.07,1.07,0,0,0,0-.26l-.05-.13a.31.31,0,0,1,0-.13.61.61,0,0,0,0-.15,2.08,2.08,0,0,0-.05-.4,1.84,1.84,0,0,1,0-.39c0-.29,0-.45,0-.48a1,1,0,0,0,.06-.19c0-.06,0-.13,0-.2a1.71,1.71,0,0,0,0-.31,1.43,1.43,0,0,1,0-.39l.05-.11a.31.31,0,0,0,0-.13.47.47,0,0,0,0-.17.67.67,0,0,1,0-.2c0-.13,0-.27,0-.41s0-.3.07-.44a.74.74,0,0,0,0-.28,1,1,0,0,1,0-.16.86.86,0,0,1,0-.28.54.54,0,0,0,0-.31.57.57,0,0,0,0-.12,1,1,0,0,1,0-.18,1.65,1.65,0,0,0,0-.32,1.24,1.24,0,0,1,0-.18.39.39,0,0,0,0-.2.12.12,0,0,1,0-.07.14.14,0,0,0,0-.12.29.29,0,0,1,0-.12c0-.11,0-.21,0-.29a2.1,2.1,0,0,0,0-.34c0-.1,0-.16,0-.17a.06.06,0,0,0,0-.07.34.34,0,0,0,0-.15l-.09-.18a.58.58,0,0,0,0-.3,2,2,0,0,1,0-.35.74.74,0,0,1,0-.12.3.3,0,0,0,0-.12,2.14,2.14,0,0,1-.07-.25,1,1,0,0,0,0-.12,1.34,1.34,0,0,0-.07-.18.28.28,0,0,1,0-.15.48.48,0,0,1,.06-.24l.13-.22.1-.07a.17.17,0,0,1,.14,0l.1-.1.12-.1a.3.3,0,0,1,.27,0,1.13,1.13,0,0,0,.21.12,1.14,1.14,0,0,1,.37,0,1.71,1.71,0,0,0,.44,0,1.3,1.3,0,0,1,.28,0l.13,0a1.83,1.83,0,0,1,.46-.07l.31,0a.64.64,0,0,1,.2,0,.13.13,0,0,0,.08,0,.28.28,0,0,1,.2,0,.85.85,0,0,0,.17.06l.35,0,.35,0,.36.05a1.55,1.55,0,0,1,.36.08l.13.07a.38.38,0,0,0,.13.06.68.68,0,0,0,.21,0,.46.46,0,0,1,.23,0,2.1,2.1,0,0,1,.47.14,2,2,0,0,0,.47.14l.24.08a.68.68,0,0,1,.24.12,2.15,2.15,0,0,1,1,.19l.25.09a.58.58,0,0,1,.23.13l.19.16a1.19,1.19,0,0,1,.18.15l.16.16a.39.39,0,0,0,.08.1.76.76,0,0,1,.16.17.15.15,0,0,0,.08.09l.16.12a.42.42,0,0,0,.12.08.46.46,0,0,0,.16.26,1.43,1.43,0,0,1,.23.2.86.86,0,0,1,.13.3.2.2,0,0,0,.11.15,2.64,2.64,0,0,1,.13.66.65.65,0,0,0,.2.44.78.78,0,0,0,0,.31l.12.3a.35.35,0,0,0,0,.2.75.75,0,0,1,0,.21.59.59,0,0,1,0,.22.15.15,0,0,0,0,.2c-.06.17-.11.35-.16.53a2,2,0,0,1-.23.51.36.36,0,0,0-.07.1s-.06.06-.13.06a.18.18,0,0,1,0,.18.19.19,0,0,0-.07.16l-.27.21a2.33,2.33,0,0,0-.21.27.58.58,0,0,1-.12.14l-.16.1-.26.16-.16.08a.56.56,0,0,0-.18.11.27.27,0,0,1-.08.07l-.14.08-.14.07a.78.78,0,0,1-.19.13s-.06,0-.07,0l-.43.16a1.92,1.92,0,0,0-.45.23.23.23,0,0,0-.21,0l-.24.11a.84.84,0,0,1-.3,0c-.08,0-.13,0-.16.17a.15.15,0,0,0,.1.21l.27.18a1.13,1.13,0,0,0,.12.21.46.46,0,0,0,.21.14.74.74,0,0,1,.2.3.23.23,0,0,0,.21.16,1.54,1.54,0,0,0,.18.28.9.9,0,0,1,.16.17l0,.09a.93.93,0,0,0,.15.2.06.06,0,0,1,0,.06l.18.29a1,1,0,0,1,.15.32l.13.14.15.13a.25.25,0,0,0,0,.13.23.23,0,0,1,0,.13l.29.3a1,1,0,0,1,.22.4.48.48,0,0,1,.11.09.17.17,0,0,0,.13.08,1,1,0,0,0,.2.38,3.44,3.44,0,0,1,.28.36.93.93,0,0,0,.19.22,1.88,1.88,0,0,1,.16.23,1.14,1.14,0,0,0,.15.23,1.77,1.77,0,0,1,.16.29.31.31,0,0,0,.17.17.34.34,0,0,0,.07.16.19.19,0,0,1,0,.19l.18.09.2.1c0,.12.05.22.07.3A.43.43,0,0,1,227.16,213.49Zm-3-11.57a1.28,1.28,0,0,1-.12-.3.86.86,0,0,0,0-.13.23.23,0,0,0-.08-.11.52.52,0,0,1-.1-.11.69.69,0,0,0-.2-.28.29.29,0,0,1-.1-.12.21.21,0,0,0-.11-.1.81.81,0,0,1-.23-.22.16.16,0,0,0-.17-.07.24.24,0,0,0-.18-.16.24.24,0,0,1-.19-.16.92.92,0,0,1-.28-.09l-.24-.15L222,200a.17.17,0,0,1-.16,0,.47.47,0,0,1-.19-.06.69.69,0,0,0-.19-.07.88.88,0,0,1-.34,0l-.18,0a1,1,0,0,0-.35-.09,1.55,1.55,0,0,0-.37,0l-.39.06a5.55,5.55,0,0,1-.72-.05,4.09,4.09,0,0,0-.7,0,.12.12,0,0,0,0,.15.2.2,0,0,1,.06.16.93.93,0,0,0,0,.34,1.24,1.24,0,0,1,0,.18c0,.12,0,.19,0,.22a.25.25,0,0,1,0,.07v.37a3.48,3.48,0,0,0,0,.55,3.49,3.49,0,0,1,0,.56c0,.22,0,.41,0,.58s0,.34,0,.51a1,1,0,0,1,0,.32.41.41,0,0,0,0,.16,1.34,1.34,0,0,0,0,.48,1.58,1.58,0,0,0,.47.07h.34a.62.62,0,0,0,.18,0h.12l.41.05a1.09,1.09,0,0,0,.4,0h.21l.2,0a.72.72,0,0,1,.26-.07h.12a2,2,0,0,1,.32-.1.23.23,0,0,0,.13,0c.29-.12.51-.2.64-.24l.47-.15.29-.07a.34.34,0,0,1,.26-.24.31.31,0,0,0,.24-.28.25.25,0,0,1,.14,0,.1.1,0,0,0,.1-.09,4.17,4.17,0,0,0,.13-.42,1.28,1.28,0,0,1,.18-.37.27.27,0,0,1,0-.23A.45.45,0,0,0,224.13,201.92Z" transform="translate(-155.95 -172.98)"/><path class="cls-2" d="M244.64,197.32c0,.16,0,.38,0,.64a1.43,1.43,0,0,1-.12.6,2.47,2.47,0,0,1-.08.86,4,4,0,0,0-.16.85,2.88,2.88,0,0,0,0,.41,1.54,1.54,0,0,1,0,.42,1.56,1.56,0,0,0-.05.4c0,.15,0,.31,0,.47a1.91,1.91,0,0,1-.06.33,3,3,0,0,0-.07.32c0,.13,0,.26,0,.37s0,.24,0,.35a8,8,0,0,0,0,.82q0,.39,0,.75l0,.53,0,.5c0,.19,0,.37,0,.53s0,.33,0,.49,0,.16,0,.26a2.71,2.71,0,0,0,0,.29.78.78,0,0,0,0,.16.6.6,0,0,1,0,.19,1.23,1.23,0,0,1,0,.2c0,.05,0,.12-.07.19a4.89,4.89,0,0,0,0,.55,2.61,2.61,0,0,1-.08.56.14.14,0,0,1,0,.16.65.65,0,0,0-.08.17c0,.28,0,.56,0,.84s0,.54-.05.78,0,.33,0,.52a3.64,3.64,0,0,1,0,.57.7.7,0,0,1-.06.17,2,2,0,0,0-.09.2.92.92,0,0,0,0,.34c0,.12,0,.26,0,.42a1.09,1.09,0,0,1,0,.26.57.57,0,0,1-.08.25l-.14.21a1.15,1.15,0,0,1-.37,0,.79.79,0,0,0-.32,0l-.25-.14a.76.76,0,0,1-.23-.18.71.71,0,0,0-.17-.21.47.47,0,0,1-.1-.1l-.24-.26a.32.32,0,0,1-.06-.18l-.12,0a.39.39,0,0,1-.1-.08.18.18,0,0,0-.11-.12.52.52,0,0,1-.15-.07.26.26,0,0,1-.06-.14c0-.07-.06-.08-.18,0a.21.21,0,0,0,0-.12s0-.07,0-.14a.49.49,0,0,0-.17-.06l-.18-.07a.51.51,0,0,1-.12-.13l-.12-.2-.14-.12-.12-.12c-.08-.07-.13-.12-.13-.14a.09.09,0,0,0,0-.07l-.19-.16a.91.91,0,0,0-.16-.11,1.18,1.18,0,0,0-.11-.19.37.37,0,0,0-.17-.13.7.7,0,0,1-.06-.17.22.22,0,0,0-.05-.12.4.4,0,0,1-.1-.13l0-.09a1,1,0,0,1-.21-.27c0-.06-.07-.13-.1-.18l-.15-.18-.07-.06a1.17,1.17,0,0,1-.09-.24.79.79,0,0,0-.08-.26.55.55,0,0,0-.14-.17.73.73,0,0,1-.17-.18l-.1-.16a.35.35,0,0,0-.14-.13.86.86,0,0,0-.18-.14.19.19,0,0,1-.1,0,2,2,0,0,1-.13-.23l-.09-.19a1,1,0,0,1-.15-.19l-.09-.16a1.42,1.42,0,0,0-.33-.32A.63.63,0,0,1,236,207a2.23,2.23,0,0,1-.22-.21l-.21-.24c-.07-.13-.14-.21-.21-.22a.37.37,0,0,1-.14-.07A.26.26,0,0,0,235,206a.28.28,0,0,1-.17-.18.11.11,0,0,1-.12,0l-.1-.09a1.06,1.06,0,0,1-.21-.11.36.36,0,0,1-.08-.12,1,1,0,0,0-.08-.14.69.69,0,0,0-.13-.11.38.38,0,0,1-.11-.11l-.16-.3a.29.29,0,0,0-.19-.15.81.81,0,0,0-.07-.26l-.12-.2a2.83,2.83,0,0,0-.19-.24.55.55,0,0,0-.1-.11c-.07-.07-.1-.13-.09-.17s0-.06,0-.07l-.17-.24-.09-.13a1.27,1.27,0,0,0-.17-.24l-.11-.11a12.85,12.85,0,0,0-.27,2.2c0,.77-.07,1.59-.1,2.45a3,3,0,0,0,0,.41,1.76,1.76,0,0,1,0,.46.59.59,0,0,1,0,.13.29.29,0,0,0,0,.13,3,3,0,0,0,0,.32,2,2,0,0,1,0,.38v.48c0,.2,0,.4,0,.61a2.49,2.49,0,0,0,0,.47l.09.47a4,4,0,0,0,.11.44,1.42,1.42,0,0,1,0,.45.69.69,0,0,1-.08.32.41.41,0,0,0,0,.31l-.19.23a.41.41,0,0,1-.2.17.5.5,0,0,1-.21-.05.73.73,0,0,0-.21-.06.21.21,0,0,1-.19,0l-.07-.05a1.25,1.25,0,0,0-.32.05.32.32,0,0,1-.31-.09l-.13,0a.25.25,0,0,1-.13,0,.69.69,0,0,1-.22,0,.46.46,0,0,0-.22,0h-.21a1,1,0,0,1-.29,0,.71.71,0,0,1-.15-.22l-.13-.39a1.53,1.53,0,0,1-.07-.24.65.65,0,0,1,0-.11.3.3,0,0,0,0-.13.66.66,0,0,0,0-.15c0-.05,0-.09,0-.13a1.1,1.1,0,0,1,0-.18.58.58,0,0,0,0-.19,2.4,2.4,0,0,0,0-.37c0-.14,0-.28,0-.44a.49.49,0,0,0,0-.12.49.49,0,0,1,0-.12,3.41,3.41,0,0,1,.1-.64,2.17,2.17,0,0,0,0-.73.78.78,0,0,0,0-.22.6.6,0,0,1,0-.22,1.45,1.45,0,0,1,0-.37c0-.12,0-.23,0-.35s0-.1,0-.13a.2.2,0,0,1,0-.11.24.24,0,0,1,0-.13,1.39,1.39,0,0,0,.06-.13,1.85,1.85,0,0,1,0-.46c0-.18.05-.39.07-.63a1.39,1.39,0,0,1,0-.52,1.06,1.06,0,0,0,.07-.38,1.55,1.55,0,0,1,0-.33,2,2,0,0,0,0-.24v-.26a.75.75,0,0,0,0-.32.39.39,0,0,1,0-.18.59.59,0,0,0,0-.23,1.85,1.85,0,0,0,0-.23.34.34,0,0,0,0-.15,1.2,1.2,0,0,0-.06-.17,4.23,4.23,0,0,1,.06-.79,1.83,1.83,0,0,0,0-.57.35.35,0,0,0,0-.16.56.56,0,0,0,0-.12,1.22,1.22,0,0,1,0-.35.75.75,0,0,0,0-.2.2.2,0,0,0,0-.17,1.21,1.21,0,0,1-.05-.18.45.45,0,0,1,0-.17.12.12,0,0,0-.06-.17.62.62,0,0,0,0-.3.78.78,0,0,1,0-.14c0-.12,0-.19,0-.21a.19.19,0,0,1,0-.07c0-.08,0-.13,0-.17a.36.36,0,0,1,0-.1l0-.17c0-.06,0-.12,0-.2a.49.49,0,0,0,0-.15,1,1,0,0,1,0-.15c0-.1,0-.2,0-.29s0-.16,0-.24a.43.43,0,0,0,0-.16.32.32,0,0,1,0-.14,1.65,1.65,0,0,0,0-.48.89.89,0,0,1,0-.33.41.41,0,0,1,.31-.25.44.44,0,0,1,.45.1,2,2,0,0,1,.38.06c.11,0,.16.13.16.29a.2.2,0,0,1,.17.08.32.32,0,0,0,.14.14,1.39,1.39,0,0,1,.35.21l.25.24.12.13a1.58,1.58,0,0,1,.12.2.18.18,0,0,0,.05.07,1,1,0,0,1,.12.14c.06.06.1.13.15.18a1.88,1.88,0,0,0,.24.25,3.48,3.48,0,0,1,.24.28.76.76,0,0,1,.11.14.34.34,0,0,0,.13.14l.31.38.34.43.13.21a.54.54,0,0,0,.2.16.49.49,0,0,0,.26.37.94.94,0,0,0,.2.35,1.42,1.42,0,0,1,.21.33,1.38,1.38,0,0,1,.27.27l.24.29a.41.41,0,0,1,.07.11.41.41,0,0,0,.1.13.47.47,0,0,1,.12.19.23.23,0,0,0,.06.12.83.83,0,0,0,.09.16,1,1,0,0,1,.1.17,2.9,2.9,0,0,1,.35.56,3.33,3.33,0,0,0,.24.46c.09.12.15.21.2.29l.11.19a3.78,3.78,0,0,1,.26.29l.21.25.2.25c.08.1.12.16.12.19a.28.28,0,0,1,0,.09c.11.07.16.12.16.14a.07.07,0,0,0,0,.06,4,4,0,0,0,.44.53c.17.18.35.35.52.51a2.84,2.84,0,0,0,.26.24,1.16,1.16,0,0,1,.24.29l.12.21.06.07a2.15,2.15,0,0,0,.31.38,1.92,1.92,0,0,0,.43.32c0-.1,0-.2,0-.29v-.45a.18.18,0,0,1,.09-.15,3.19,3.19,0,0,1-.09-.34.46.46,0,0,1,.07-.38.68.68,0,0,1-.05-.3.22.22,0,0,0,0-.16.46.46,0,0,0,0-.14.61.61,0,0,1,0-.15.89.89,0,0,1,0-.36,3.65,3.65,0,0,0,.07-.4v-.77a3.69,3.69,0,0,1,.06-.71.46.46,0,0,1,0-.13l.07-.14a.63.63,0,0,1,0-.25.48.48,0,0,0,0-.18,1.62,1.62,0,0,0,0-.31,2.76,2.76,0,0,1,0-.41,1.1,1.1,0,0,1,0-.38,2.55,2.55,0,0,0,.07-.32.36.36,0,0,1,0-.23,2,2,0,0,0,0-.23.71.71,0,0,0,0-.14.86.86,0,0,1,0-.16.79.79,0,0,1,0-.28,1.82,1.82,0,0,0,.07-.25c0-.1,0-.2,0-.29a.76.76,0,0,1,.05-.32l-.07-.15a1.84,1.84,0,0,0-.06-.18,1.63,1.63,0,0,0,.08-.64,2.85,2.85,0,0,1,0-.71.34.34,0,0,1,0-.22.24.24,0,0,0,0-.08.36.36,0,0,0,0-.19.22.22,0,0,1,0-.16,1.2,1.2,0,0,1,.17-.23.43.43,0,0,1,.23-.17.36.36,0,0,1,.22,0,.54.54,0,0,0,.21.05,1.37,1.37,0,0,0,.52-.05l.51-.12a1.43,1.43,0,0,1,.51,0,2,2,0,0,0,.6,0,3.8,3.8,0,0,1,.53.11l.21.06A.22.22,0,0,1,244.64,197.32Z" transform="translate(-155.95 -172.98)"/><path class="cls-2" d="M275,211.65a.77.77,0,0,1,.07.36.69.69,0,0,1-.18.39l-.29.17a.29.29,0,0,1-.22,0,.15.15,0,0,1-.09-.14.18.18,0,0,0-.1-.14.5.5,0,0,0-.21,0l-.16.06-.29.06a.34.34,0,0,1-.17.06.1.1,0,0,0-.09,0l-.38.14a.36.36,0,0,1-.23,0,.43.43,0,0,1-.2.06l-.26.07-.35.06a2,2,0,0,1-.42.05,1.46,1.46,0,0,1-.38-.05.25.25,0,0,1-.22-.17,1.1,1.1,0,0,0-.06-.27.31.31,0,0,1,0-.19c0-.1,0-.15.1-.16a.13.13,0,0,0,.12-.12,4.07,4.07,0,0,0-.06-.41.35.35,0,0,1,.06-.33A.64.64,0,0,1,271,211a1.31,1.31,0,0,1-.05-.15,2.54,2.54,0,0,0,.17-.58,3,3,0,0,0,0-.53c0-.07,0-.14-.05-.2a1.11,1.11,0,0,1,0-.19,1.38,1.38,0,0,1,0-.28,2,2,0,0,0,0-.25c0-.2,0-.42,0-.64s0-.45,0-.67,0-.2,0-.29a.8.8,0,0,1,0-.27,4.22,4.22,0,0,1,.06-.42c0-.16.05-.32.07-.48s0-.06,0-.11a.53.53,0,0,1,0-.13.3.3,0,0,1,0-.13.2.2,0,0,0,0-.11c0-.13,0-.26,0-.38a2.19,2.19,0,0,1,0-.36c0-.13,0-.26,0-.38s0-.26,0-.41a.49.49,0,0,0,0-.15,1.05,1.05,0,0,1,0-.13l.06-.14a.45.45,0,0,0,0-.16.66.66,0,0,1,0-.15.21.21,0,0,0,0-.14.1.1,0,0,0-.12,0,.64.64,0,0,0-.1.13.79.79,0,0,0-.08.16.48.48,0,0,1-.07.16.65.65,0,0,1-.13.16l-.16.13a.73.73,0,0,1-.19.2l-.11.08a1,1,0,0,1-.14.31,2.48,2.48,0,0,0-.19.26s-.05.09-.08.14a.61.61,0,0,1-.07.14l-.12.12a.83.83,0,0,1-.08.12,1.29,1.29,0,0,1-.21.3,1,1,0,0,0-.16.2,1,1,0,0,0-.12.21.34.34,0,0,1,0,.08l-.1.12a.19.19,0,0,0-.05.16.18.18,0,0,0-.12.1.76.76,0,0,0-.06.18.14.14,0,0,0-.1.11c0,.06-.05.08-.14.07s-.06.08,0,.12,0,.07-.07.1a.44.44,0,0,0-.15.2.5.5,0,0,0,0,.17l-.11.07a.39.39,0,0,1-.11.06.32.32,0,0,1-.07.23l-.15.16a.34.34,0,0,1-.14.15.3.3,0,0,0-.1.09.86.86,0,0,0-.12.18l0,.08a.6.6,0,0,0-.15.16l-.07.08-.11.1-.11.1-.11.16a1.3,1.3,0,0,1-.13.19.51.51,0,0,0-.18.2l-.17.24a3.25,3.25,0,0,0-.23.28l-.16.22-.21.2a1.8,1.8,0,0,0-.18.25,1.31,1.31,0,0,0-.16.31.87.87,0,0,1-.1.24l-.09.09-.09.08a3.29,3.29,0,0,0-.3.46,1.34,1.34,0,0,1-.37.42.44.44,0,0,1-.19.37.26.26,0,0,1-.36,0,1.37,1.37,0,0,1-.19-.18,1.06,1.06,0,0,1-.16-.22.89.89,0,0,1-.06-.2,1.72,1.72,0,0,0-.07-.21l-.22-.22a2.87,2.87,0,0,1-.09-.28.59.59,0,0,1-.18-.19l-.06-.12a2.77,2.77,0,0,0-.19-.41c0-.06-.07-.16-.13-.31a.56.56,0,0,0-.11-.18l-.07-.08a1.44,1.44,0,0,1,0-.24,1,1,0,0,0-.09-.15l-.08-.13a.38.38,0,0,1,0-.17.31.31,0,0,0,0-.18.31.31,0,0,0-.08-.1.37.37,0,0,1-.07-.12,1.65,1.65,0,0,0-.07-.26.26.26,0,0,0,0-.09c0-.33-.09-.54-.22-.63a1,1,0,0,0-.05-.22,1.67,1.67,0,0,1-.08-.24l-.12-.37-.12-.39a.65.65,0,0,1-.24-.35,1.16,1.16,0,0,0-.2-.4.22.22,0,0,0,0-.1.54.54,0,0,1,0-.18.26.26,0,0,0-.09-.17.54.54,0,0,1-.1-.16.17.17,0,0,1-.05-.12.68.68,0,0,0,0-.14,1.45,1.45,0,0,1-.16-.37.42.42,0,0,0-.15-.22.24.24,0,0,0,0-.23.25.25,0,0,0-.16-.16.21.21,0,0,0,0,.25.83.83,0,0,1,.07.32.29.29,0,0,1,0,.14,1.23,1.23,0,0,0,0,.16,1.94,1.94,0,0,0,0,.24,2.11,2.11,0,0,1,0,.26c0,.09,0,.18,0,.26s0,.15,0,.22a1.58,1.58,0,0,1,0,.38,1.15,1.15,0,0,1,0,.3.76.76,0,0,1-.06.16.37.37,0,0,0-.05.17.55.55,0,0,0,0,.18l0,.19a1.31,1.31,0,0,0,0,.15.69.69,0,0,1,0,.13.91.91,0,0,1,0,.23.59.59,0,0,0,0,.3,2.09,2.09,0,0,0,0,.25.34.34,0,0,1-.1.23.16.16,0,0,0,.07.09s.05.07,0,.15a.21.21,0,0,1,0,.15l-.07.09a.3.3,0,0,1,0,.19.19.19,0,0,1-.08.16.86.86,0,0,1,.05.52,1.29,1.29,0,0,0,0,.34.3.3,0,0,1-.1.25,3.27,3.27,0,0,1,0,.59,6,6,0,0,1,0,.72.82.82,0,0,0,.06.38.31.31,0,0,1,.07.21,1.39,1.39,0,0,1-.12.28.79.79,0,0,1-.21.24,1.55,1.55,0,0,1-.47-.08,1.7,1.7,0,0,0-.53-.07l-.82,0a8.13,8.13,0,0,1-.84,0l-.25-.05a.5.5,0,0,1-.19-.1,2,2,0,0,0-.24-.2.27.27,0,0,1-.1-.11,1.3,1.3,0,0,1,.19-.63,3.91,3.91,0,0,1,.09-.83,1.67,1.67,0,0,0,.06-.35.54.54,0,0,1,0-.19.35.35,0,0,1,0-.12,1.31,1.31,0,0,0,.05-.15.29.29,0,0,0,0-.16.11.11,0,0,1,0-.08l.05-.12a.83.83,0,0,0,0-.12,5.07,5.07,0,0,0,0-.66,2.35,2.35,0,0,1,.09-.64c0-.05,0-.1.05-.16a.23.23,0,0,1,.06-.13,1.29,1.29,0,0,1,0-.48,1.92,1.92,0,0,1,.13-.46.72.72,0,0,0,0-.43,1.84,1.84,0,0,1,0-.53.66.66,0,0,1,.05-.15.69.69,0,0,0,.05-.13.66.66,0,0,0,0-.25.23.23,0,0,1,.1-.23.16.16,0,0,1,0-.2.3.3,0,0,0,.07-.21.86.86,0,0,0,0-.29.25.25,0,0,1,0-.13.77.77,0,0,1,.1-.15.32.32,0,0,0,.08-.2.75.75,0,0,1,0-.3c0-.09,0-.19,0-.29s0-.28.06-.46,0-.36.07-.56a.8.8,0,0,1,.05-.33,1,1,0,0,0,.06-.2.22.22,0,0,1,0-.18l.05-.17c.06-.3.11-.6.16-.88s.1-.58.17-.88a.48.48,0,0,1,0-.22.12.12,0,0,0,0-.09.32.32,0,0,0,0-.14.71.71,0,0,1,0-.14.31.31,0,0,1,.06-.13.25.25,0,0,0,0-.11,1.82,1.82,0,0,0,0-.33.76.76,0,0,1,0-.33.71.71,0,0,1,0-.14.57.57,0,0,0,0-.12,3.56,3.56,0,0,0,.13-.61c0-.14,0-.31,0-.5a1.77,1.77,0,0,0,0-.24,2.54,2.54,0,0,1,0-.26c.09-.15.19-.22.31-.21l.31.05a.35.35,0,0,0,.12.19.32.32,0,0,1,.07.23l.09.1a.62.62,0,0,1,.09.12.75.75,0,0,0,0,.22,1,1,0,0,0,.06.19c0,.09.08.19.13.31a1.73,1.73,0,0,1,.14.32,1,1,0,0,1,0,.18.59.59,0,0,0,0,.13,1.14,1.14,0,0,0,.1.19.86.86,0,0,1,.1.16.24.24,0,0,1,0,.15.39.39,0,0,0,0,.13.76.76,0,0,1,.05.19.18.18,0,0,0,0,.1c0,.07.05.14.07.2l.08.21q0,.1.09.24t.09.24a1.21,1.21,0,0,0,.09.2,1.14,1.14,0,0,1,.1.19c.07.15.14.29.2.44s.12.29.19.44a2,2,0,0,1,.11.35,2.37,2.37,0,0,0,.13.34,4.25,4.25,0,0,1,.41,1,2.5,2.5,0,0,0,.36.81,3.78,3.78,0,0,0,.14.65c.07.21.13.41.21.6a.73.73,0,0,0,.14.4.3.3,0,0,1,.05.29.27.27,0,0,0,.13.13.32.32,0,0,1,.14.14,1.46,1.46,0,0,0,.19.64,1.56,1.56,0,0,1,.2.62l.1.14a.34.34,0,0,0,.12.12.61.61,0,0,0,0,.24l.09.22a2,2,0,0,0,.1.21.3.3,0,0,0,.18.14.45.45,0,0,0,.12-.21,2.09,2.09,0,0,1,.08-.23s0-.08,0-.11l.07-.1c.05-.14.11-.28.17-.44a2,2,0,0,1,.13-.26.53.53,0,0,1,.09-.11,1.35,1.35,0,0,1,.16-.25.58.58,0,0,0,.08-.1,1,1,0,0,1,.12-.23l.1-.14.12-.14a.36.36,0,0,1,.07-.1,2.39,2.39,0,0,1,.18-.24c0-.15.08-.22.11-.23a.09.09,0,0,0,.06-.06q.13-.2.21-.33a1.67,1.67,0,0,1,.18-.28l.19-.24c.07-.08.13-.16.21-.24l.14-.15.14-.15a.63.63,0,0,0,.21-.22,2,2,0,0,1,.18-.26l.16-.15.13-.18a3,3,0,0,1,.29-.35,1.33,1.33,0,0,0,.27-.41l.14-.18.13-.19a.92.92,0,0,0,.25-.32.46.46,0,0,1,.31-.27,8.76,8.76,0,0,1,.44-.85c.09-.08.14-.13.15-.18a.23.23,0,0,0,0-.11.63.63,0,0,0,.28-.28.72.72,0,0,1,.29-.31,1,1,0,0,1,.31-.38,1,1,0,0,0,.32-.38.71.71,0,0,0,.1-.17.24.24,0,0,1,.06-.09.41.41,0,0,1,.06-.11l.09-.11.19-.29a.94.94,0,0,1,.22-.28c0-.07,0-.12,0-.14s0-.06,0-.12l.11-.12.13-.14a2.25,2.25,0,0,0,.34-.31.73.73,0,0,1,.27-.17.48.48,0,0,1,.21,0,.35.35,0,0,1,.21.1.21.21,0,0,1,.06.2.76.76,0,0,0,0,.28,1.17,1.17,0,0,0,.05.2l.08.25.19.92a1.18,1.18,0,0,1,0,.26.6.6,0,0,0,.05.24.9.9,0,0,0,.09.33,1.14,1.14,0,0,1,.08.33,1.29,1.29,0,0,1,0,.34.41.41,0,0,0,.08.27c0,.13-.06.21,0,.23a.43.43,0,0,1,0,.07,3.23,3.23,0,0,1,.08.53,4.53,4.53,0,0,0,0,.52.83.83,0,0,1,0,.12.3.3,0,0,1,0,.12.24.24,0,0,1,0,.15.16.16,0,0,0,0,.09.77.77,0,0,0,.07.16l.07.15a.53.53,0,0,1,0,.13.17.17,0,0,0,0,.13,3.22,3.22,0,0,1,.08.37.88.88,0,0,0,0,.24,1.65,1.65,0,0,1,.06.33v.13l.1.39a.73.73,0,0,1,0,.46.14.14,0,0,0,0,.12.15.15,0,0,1,.08.12s0,.08,0,.16l0,.1c-.07,0-.08.13,0,.26a.79.79,0,0,1,.09.31,3.6,3.6,0,0,0,.09.86,1.89,1.89,0,0,1,0,.71.36.36,0,0,1,.11.26,1.35,1.35,0,0,0,0,.33,2.46,2.46,0,0,1,.1.71,2.16,2.16,0,0,0,.05.57l.06.1a.61.61,0,0,1,.05.12,1.61,1.61,0,0,1,0,.39.75.75,0,0,0,.07.4c0,.17,0,.33.07.47a2.32,2.32,0,0,0,.06.38Z" transform="translate(-155.95 -172.98)"/><path class="cls-2" d="M294.42,206a3.92,3.92,0,0,1-.1.89c-.06.29-.13.57-.2.84a.27.27,0,0,0,0,.13.2.2,0,0,1,0,.11.56.56,0,0,1-.07.13.35.35,0,0,0-.08.13,1.57,1.57,0,0,0-.05.46.91.91,0,0,1-.08.39,1.24,1.24,0,0,1-.15.22.49.49,0,0,0-.09.15c-.07.12-.13.21-.17.29a.44.44,0,0,1-.16.17.2.2,0,0,1,0,.1.32.32,0,0,0,0,.14.58.58,0,0,0-.23.31.74.74,0,0,1-.21.36c-.08.11-.14.17-.16.21a.39.39,0,0,1-.08.1.41.41,0,0,1-.13.1.5.5,0,0,0-.13.1,2.44,2.44,0,0,1-.3.32.56.56,0,0,0-.18.26.64.64,0,0,0-.22.11c-.11.09-.18.15-.19.19a.19.19,0,0,1-.07.08.66.66,0,0,1-.22.13.26.26,0,0,0-.13.06,1.53,1.53,0,0,1-.35.21,1,1,0,0,0-.34.23,1.18,1.18,0,0,0-.32.18.83.83,0,0,1-.16.12.55.55,0,0,1-.23.09.23.23,0,0,0-.17.15,3.15,3.15,0,0,0-.44.17,1.45,1.45,0,0,1-.41.1.94.94,0,0,1-.4.18,4.51,4.51,0,0,1-.54.1h-.43a1,1,0,0,0-.25.07.53.53,0,0,1-.23.06.25.25,0,0,1-.17,0l-.18-.09a2.9,2.9,0,0,0-.39,0,1.06,1.06,0,0,1-.29,0h-.27l-.25-.05s-.1,0-.21,0a.45.45,0,0,1-.21-.07.26.26,0,0,1-.3,0,1.37,1.37,0,0,0-.31-.13,1.22,1.22,0,0,0-.42-.06.5.5,0,0,1-.38-.14.89.89,0,0,1-.72-.26,1.78,1.78,0,0,1-.4-.11l-.19-.11a.51.51,0,0,0-.16-.12.5.5,0,0,1-.13-.1l-.16-.11a.21.21,0,0,1-.1-.06s-.08-.1-.12-.15a.26.26,0,0,0-.12-.13.28.28,0,0,1-.18-.06,2,2,0,0,1-.19-.16l-.25-.21a.62.62,0,0,1-.19-.25l-.26-.09a.38.38,0,0,1-.19-.13l-.29-.28a1.46,1.46,0,0,1-.17-.22,1.18,1.18,0,0,0-.18-.32.67.67,0,0,0-.15-.14l-.28-.39c-.08-.1-.13-.19-.18-.26a.48.48,0,0,1-.13-.16,1,1,0,0,1-.07-.18l-.09-.19a.57.57,0,0,0-.14-.13.4.4,0,0,0-.08-.31.85.85,0,0,1-.16-.28.84.84,0,0,1-.06-.24c0-.08,0-.18,0-.28l-.09-.14a.33.33,0,0,1,0-.17.61.61,0,0,0,0-.24l-.06-.15a.64.64,0,0,1,0-.19.37.37,0,0,0,0-.18l-.06-.33a1,1,0,0,1,0-.16.13.13,0,0,0-.08-.14,1.7,1.7,0,0,0,0-.31.6.6,0,0,1,0-.23.11.11,0,0,0,0-.05,1.6,1.6,0,0,1,0-.31.73.73,0,0,0,0-.32.23.23,0,0,1,0-.18.61.61,0,0,0,0-.24,2.24,2.24,0,0,1-.05-.37.52.52,0,0,1,0-.22.33.33,0,0,1,0-.15.33.33,0,0,0,0-.15,1.41,1.41,0,0,1,0-.3.3.3,0,0,0,0-.12l0-.13a.52.52,0,0,1,0-.11,2,2,0,0,1,0-.23c0-.08,0-.15,0-.23a.75.75,0,0,0,.05-.26.51.51,0,0,1,0-.22A2.34,2.34,0,0,0,278,202l.14-.34a3.81,3.81,0,0,0,.15-.44.62.62,0,0,1,.22-.35.93.93,0,0,1,.08-.28,1.33,1.33,0,0,0,.1-.24,1.63,1.63,0,0,1,.16-.28.77.77,0,0,0,.1-.18.9.9,0,0,0,.13-.27.53.53,0,0,1,0-.14,1.56,1.56,0,0,0,.25-.32,2.72,2.72,0,0,0,.12-.25.7.7,0,0,0,.35-.35.2.2,0,0,0,.17-.12c0-.06.1-.09.22-.08a.32.32,0,0,1,.19-.17.27.27,0,0,1,.1-.11.17.17,0,0,0,.1-.09.57.57,0,0,0,.3-.11l.25-.15a1.69,1.69,0,0,1,.27-.1.85.85,0,0,0,.29-.14.5.5,0,0,0,.31,0l.22-.14a.48.48,0,0,0,.29,0l.25-.09c.12,0,.26-.09.43-.13l.49-.11.34-.08.33-.09.22-.07.09,0a.14.14,0,0,1,.11,0h.13a.53.53,0,0,0,.22.05h.09a1,1,0,0,0,.3.07,5,5,0,0,0,.57.13.51.51,0,0,1,.33.15.69.69,0,0,1,.36,0l.38,0a.18.18,0,0,1,.15.06.19.19,0,0,0,.11.09,1.27,1.27,0,0,1,.44.07.49.49,0,0,0,.24.05.27.27,0,0,1,.13,0l.14.06.12,0a2,2,0,0,0,.36.1.39.39,0,0,1,.27.21c.06,0,.1,0,.11-.06s.06,0,.13,0a1,1,0,0,0,.4.11,1.65,1.65,0,0,1,.45.11,1.35,1.35,0,0,1,.25.16.31.31,0,0,0,.1.08l.21.08a.19.19,0,0,1,.12.14.48.48,0,0,1,.18,0l.15.08a.9.9,0,0,1,.19.15l.2.17a.51.51,0,0,0,.21.18l.12,0a1.06,1.06,0,0,1,.1.17l.09.14a.37.37,0,0,1,.26.11.55.55,0,0,0,.24.13,1.29,1.29,0,0,0,.27.3,1.24,1.24,0,0,1,.18.25.71.71,0,0,0,.08.15.35.35,0,0,1,.06.14l.07.16c0,.07.1.17.17.27a.51.51,0,0,1,.07.41.36.36,0,0,1,.15.19,1.11,1.11,0,0,0,.13.27.6.6,0,0,1,.11.25.37.37,0,0,0,0,.12,1.34,1.34,0,0,1,.08.26c0,.1,0,.2.05.3a.27.27,0,0,1,0,.18.29.29,0,0,0,0,.13,2.09,2.09,0,0,0,.12.4,2,2,0,0,0,.19.36,2.63,2.63,0,0,0,0,.48,4.5,4.5,0,0,1,0,.51,2.08,2.08,0,0,0,0,.6A2.53,2.53,0,0,1,294.42,206Zm-2.35-1.52a.54.54,0,0,0,0-.22.89.89,0,0,1,0-.22,1.48,1.48,0,0,1,0-.21.51.51,0,0,0,0-.21.94.94,0,0,0-.06-.15,1,1,0,0,1-.09-.15q0-.11,0-.15s0-.07,0-.11a1.25,1.25,0,0,1-.12-.31,3.57,3.57,0,0,1-.1-.35l-.2-.2-.08-.12a1.2,1.2,0,0,1-.17-.26.35.35,0,0,0-.07-.12,2.33,2.33,0,0,0-.35-.27l-.4-.27a.86.86,0,0,1-.18-.14,1.72,1.72,0,0,0-.19-.17,1.39,1.39,0,0,1-.27-.19l-.1-.11a.93.93,0,0,0-.39-.1.5.5,0,0,1-.37-.19,1,1,0,0,1-.57-.07,1.51,1.51,0,0,0-.65-.1.28.28,0,0,1-.11,0,.49.49,0,0,0-.13-.08.51.51,0,0,1-.29,0l-.21-.07-.16-.05-.13,0-.3-.09-.29-.06a.85.85,0,0,1-.32,0,.79.79,0,0,0-.24,0,.91.91,0,0,0-.23,0,.59.59,0,0,1-.21,0,2.88,2.88,0,0,0-.6-.1,1.53,1.53,0,0,1-.4-.06l-.21-.06a.48.48,0,0,1-.19-.09.24.24,0,0,1-.12.11l-.1.07a.48.48,0,0,0-.24.14.74.74,0,0,1-.19.16l-.23.08a.67.67,0,0,0-.23.1l-.09.08-.08.09a.41.41,0,0,1-.11.07.2.2,0,0,0-.11.06,1.14,1.14,0,0,0-.19.19.48.48,0,0,1-.2.14.86.86,0,0,1-.15.22,1.12,1.12,0,0,0-.16.22l-.16.21a.37.37,0,0,1-.21.16.45.45,0,0,1-.07.27.62.62,0,0,0-.08.27l-.18.26-.09.2a2.58,2.58,0,0,1-.16.33l-.1.17a1.8,1.8,0,0,1-.15.31c-.06.11-.1.2-.13.27a1.65,1.65,0,0,0-.09.32c0,.14-.06.3-.1.47a1.5,1.5,0,0,0,0,.4.53.53,0,0,0,0,.23.32.32,0,0,1,0,.14,2.26,2.26,0,0,0-.1.8c0,.21,0,.41.08.62a3.38,3.38,0,0,1,0,.45.86.86,0,0,0,0,.36.32.32,0,0,0,0,.16l.09.14a1.54,1.54,0,0,1,0,.19.45.45,0,0,0,0,.18,2.43,2.43,0,0,1,.13.42,1,1,0,0,0,.09.24,1.85,1.85,0,0,0,.14.14.64.64,0,0,1,.15.14,1.06,1.06,0,0,1,.1.17l.11.2c.09.12.15.19.17.23a.36.36,0,0,0,.07.1.66.66,0,0,0,.15.14.92.92,0,0,1,.14.14l.12.19a1.51,1.51,0,0,0,.12.2,4.31,4.31,0,0,1,.59.39,5.36,5.36,0,0,1,.52.46,2.36,2.36,0,0,1,.56.16l.51.19.18.06.21,0a.55.55,0,0,0,.18,0l.19,0a1.06,1.06,0,0,1,.34.08l.32.09a1.54,1.54,0,0,0,.37,0,.77.77,0,0,1,.35.08.38.38,0,0,1,.18-.06,1,1,0,0,0,.69-.11,1.84,1.84,0,0,0,.57-.05.27.27,0,0,1,.15-.08l.09,0a1.26,1.26,0,0,0,.26-.13,1.33,1.33,0,0,1,.24-.11l.15,0,.15,0a.58.58,0,0,1,.18-.16l.11,0,.13-.1a.19.19,0,0,1,.17,0,.44.44,0,0,1,.19-.19,1.71,1.71,0,0,1,.27-.09.31.31,0,0,1,.09-.12l.09-.08.17-.18.09-.08a2.79,2.79,0,0,1,.35-.42.2.2,0,0,1,.07-.14l.1-.07a1,1,0,0,1,.07-.21c0-.07.05-.13.08-.19a1.45,1.45,0,0,1,.1-.18.33.33,0,0,0,.06-.21.24.24,0,0,0,.14-.14c0-.07.05-.14.07-.21L291,208c0-.05.07-.11.1-.15a.73.73,0,0,0,.06-.14.75.75,0,0,1,.07-.12,2.37,2.37,0,0,1,.13-.31l.07-.11a1,1,0,0,0,0-.18.39.39,0,0,1,0-.21.86.86,0,0,1,.1-.16.57.57,0,0,0,.07-.23.31.31,0,0,0,0-.19.44.44,0,0,1,0-.2,1.34,1.34,0,0,1,.07-.18,1.08,1.08,0,0,0,.08-.19c0-.11.07-.21.1-.31a.41.41,0,0,0,0-.22,1.59,1.59,0,0,0,0-.23v-.12a.58.58,0,0,1,0-.17A.28.28,0,0,0,292.07,204.46Z" transform="translate(-155.95 -172.98)"/><path class="cls-2" d="M308.25,213.49a.71.71,0,0,1-.28.26.94.94,0,0,0-.23.14.14.14,0,0,1-.1.06.42.42,0,0,1-.35-.07,1.57,1.57,0,0,1-.55.07,1.34,1.34,0,0,0-.49,0,.33.33,0,0,0-.18.08l-.15.09a.7.7,0,0,1-.23,0h-.23a.58.58,0,0,1-.14-.17,1,1,0,0,1-.1-.21,1.07,1.07,0,0,1-.26-.26.62.62,0,0,1-.08-.12.35.35,0,0,0-.07-.12,2.36,2.36,0,0,1-.24-.38,2.4,2.4,0,0,1-.13-.32l-.15-.17a1.73,1.73,0,0,1-.14-.2,2,2,0,0,0-.15-.18.92.92,0,0,1-.13-.19.34.34,0,0,1,0-.16.33.33,0,0,0-.05-.16,1,1,0,0,0-.16-.24.48.48,0,0,1-.12-.29l-.17-.18a.4.4,0,0,0-.22-.15.58.58,0,0,0-.15-.25.69.69,0,0,1-.16-.27,2,2,0,0,1-.13-.28.42.42,0,0,1-.06-.14.3.3,0,0,0-.05-.15.45.45,0,0,0-.19-.17.34.34,0,0,1-.16-.24c-.12,0-.19,0-.23-.1a.27.27,0,0,0-.21-.12,1.7,1.7,0,0,0-.27-.39,1.84,1.84,0,0,1-.29-.42,2,2,0,0,1-.55-.39,2.31,2.31,0,0,0-.56-.41.47.47,0,0,0-.4-.24.49.49,0,0,0-.08.36,1.33,1.33,0,0,1,0,.4,3.54,3.54,0,0,1-.07.47c0,.15-.08.29-.12.4s0,.12,0,.15.06.06,0,.14,0,.09,0,.15a.25.25,0,0,0,0,.17.46.46,0,0,0,.05.21.49.49,0,0,1,.06.25,1.16,1.16,0,0,1,0,.39c0,.16-.06.3-.07.42a.92.92,0,0,1,0,.22.25.25,0,0,0,0,.08v.31c0,.09,0,.18,0,.28a.92.92,0,0,1,0,.36,1.12,1.12,0,0,0-.06.23.32.32,0,0,1,0,.18.08.08,0,0,0,0,.06.51.51,0,0,0,0,.13.2.2,0,0,1,0,.11,1,1,0,0,1-.08.37.74.74,0,0,0,0,.37,1,1,0,0,0,.07.21.17.17,0,0,1,0,.1.46.46,0,0,1-.15.26.31.31,0,0,0-.14.24,1.12,1.12,0,0,0-.46.05.54.54,0,0,1-.41-.05l-.37.09a1.14,1.14,0,0,1-.41,0,.71.71,0,0,0-.32,0,.16.16,0,0,1-.12,0,6.23,6.23,0,0,0-.11-.72.58.58,0,0,1,.11-.51.69.69,0,0,0,0-.13.19.19,0,0,1,0-.15,1.22,1.22,0,0,0,0-.35.79.79,0,0,1,0-.2l.06-.15a.31.31,0,0,0,0-.13.37.37,0,0,0,0-.23.69.69,0,0,1,0-.25,1.06,1.06,0,0,1,0-.24,2.32,2.32,0,0,0,0-.24.79.79,0,0,0-.05-.24.25.25,0,0,1,0-.26.5.5,0,0,0,0-.26c0-.12,0-.24,0-.35a1.27,1.27,0,0,1,0-.2l0-.19a2,2,0,0,0,0-.25c0-.08,0-.16,0-.23a.74.74,0,0,1,0-.12.13.13,0,0,0,0-.12.93.93,0,0,1,0-.31,1.16,1.16,0,0,0,0-.17.6.6,0,0,0,0-.23c0-.08,0-.17,0-.28a.52.52,0,0,0,0-.17.67.67,0,0,1,0-.2.54.54,0,0,0,0-.26l0-.13a.59.59,0,0,1,0-.13.61.61,0,0,0,0-.15,2,2,0,0,0,0-.4,1.89,1.89,0,0,1-.05-.39c0-.29,0-.45,0-.48s.05-.14.07-.19,0-.13,0-.2,0-.2,0-.31a1.08,1.08,0,0,1,0-.39l0-.11a.22.22,0,0,0,0-.13.88.88,0,0,0,0-.17.34.34,0,0,1,0-.2,2.88,2.88,0,0,1,0-.41,3.11,3.11,0,0,1,.06-.44.57.57,0,0,0,0-.28,1,1,0,0,1,0-.16.87.87,0,0,1,.05-.28.54.54,0,0,0,0-.31s0-.07,0-.12a.9.9,0,0,1,0-.18.83.83,0,0,0,0-.32,1.24,1.24,0,0,1,0-.18c0-.12,0-.19,0-.2a.12.12,0,0,1,0-.07c0-.05,0-.09,0-.12a.29.29,0,0,1,0-.12c0-.11,0-.21,0-.29a2.38,2.38,0,0,0,0-.34c0-.1,0-.16,0-.17s0,0,0-.07a.34.34,0,0,0,0-.15l-.09-.18a.69.69,0,0,0,0-.3,1,1,0,0,1,0-.35.3.3,0,0,1,0-.12.74.74,0,0,0,0-.12c0-.12-.07-.2-.08-.25a.35.35,0,0,0,0-.12.67.67,0,0,0-.07-.18.42.42,0,0,1,0-.15.4.4,0,0,1,.07-.24l.13-.22.1-.07a.16.16,0,0,1,.14,0l.1-.1a.4.4,0,0,1,.12-.1.31.31,0,0,1,.27,0,.72.72,0,0,0,.21.12,1.11,1.11,0,0,1,.37,0,1.64,1.64,0,0,0,.43,0,1.37,1.37,0,0,1,.29,0l.13,0a1.83,1.83,0,0,1,.46-.07l.3,0a.67.67,0,0,1,.21,0,.11.11,0,0,0,.07,0,.29.29,0,0,1,.2,0l.18.06.34,0,.35,0,.36.05a1.35,1.35,0,0,1,.36.08l.13.07.13.06a.68.68,0,0,0,.21,0,.45.45,0,0,1,.23,0,2,2,0,0,1,.47.14,2,2,0,0,0,.47.14l.24.08a.55.55,0,0,1,.24.12,2.15,2.15,0,0,1,1,.19l.25.09a.58.58,0,0,1,.23.13l.2.16.17.15a.76.76,0,0,1,.16.16l.08.1a.57.57,0,0,1,.16.17c0,.05.05.08.08.09l.16.12a.42.42,0,0,0,.12.08.48.48,0,0,0,.17.26,2.05,2.05,0,0,1,.23.2,1.57,1.57,0,0,1,.13.3.18.18,0,0,0,.11.15,4,4,0,0,1,.13.66.64.64,0,0,0,.19.44.63.63,0,0,0,0,.31,2.34,2.34,0,0,0,.12.3.36.36,0,0,0,0,.2.76.76,0,0,1,0,.21.46.46,0,0,1-.06.22.18.18,0,0,0,0,.2c0,.17-.11.35-.16.53a2,2,0,0,1-.23.51.21.21,0,0,0-.06.1s-.06.06-.13.06a.18.18,0,0,1-.05.18.21.21,0,0,0-.06.16l-.28.21a2.37,2.37,0,0,0-.2.27l-.12.14-.17.1a1.85,1.85,0,0,1-.26.16l-.15.08a.66.66,0,0,0-.19.11.23.23,0,0,1-.07.07l-.15.08-.14.07a.8.8,0,0,1-.18.13l-.08,0-.42.16a1.6,1.6,0,0,0-.45.23.25.25,0,0,0-.22,0,1.33,1.33,0,0,1-.24.11.79.79,0,0,1-.29,0c-.08,0-.14,0-.17.17a.16.16,0,0,0,.1.21,1.59,1.59,0,0,1,.27.18,1.13,1.13,0,0,0,.12.21.46.46,0,0,0,.21.14.68.68,0,0,1,.21.3.22.22,0,0,0,.2.16,1.54,1.54,0,0,0,.18.28c.1.09.16.15.16.17a.36.36,0,0,0,0,.09.68.68,0,0,0,.15.2.05.05,0,0,1,0,.06l.19.29a1.3,1.3,0,0,1,.14.32l.13.14.15.13a.18.18,0,0,0,0,.13.23.23,0,0,1,0,.13l.28.3a.87.87,0,0,1,.22.4.48.48,0,0,1,.11.09.2.2,0,0,0,.13.08.89.89,0,0,0,.21.38q.13.16.27.36a.8.8,0,0,0,.2.22,1.82,1.82,0,0,1,.15.23,1.14,1.14,0,0,0,.15.23c.07.11.13.21.17.29a.3.3,0,0,0,.16.17.27.27,0,0,0,.08.16.26.26,0,0,1,0,.19,1.4,1.4,0,0,1,.17.09l.2.1a3.09,3.09,0,0,0,.08.3A.44.44,0,0,1,308.25,213.49Zm-3-11.57a1.28,1.28,0,0,1-.12-.3.86.86,0,0,0,0-.13.23.23,0,0,0-.08-.11l-.1-.11a.69.69,0,0,0-.19-.28.32.32,0,0,1-.11-.12.21.21,0,0,0-.11-.1,1,1,0,0,1-.23-.22.15.15,0,0,0-.16-.07.24.24,0,0,0-.19-.16.24.24,0,0,1-.18-.16,1,1,0,0,1-.29-.09l-.24-.15-.12.06a.17.17,0,0,1-.16,0,.53.53,0,0,1-.19-.06.75.75,0,0,0-.18-.07.93.93,0,0,1-.35,0l-.18,0a1,1,0,0,0-.34-.09,1.64,1.64,0,0,0-.38,0l-.39.06a5.81,5.81,0,0,1-.72-.05,4.09,4.09,0,0,0-.7,0,.13.13,0,0,0,0,.15.23.23,0,0,1,.05.16,1.85,1.85,0,0,0,0,.34,1.24,1.24,0,0,1,0,.18.47.47,0,0,0,0,.22.25.25,0,0,1,0,.07v.37a2.57,2.57,0,0,0,0,.55,5.23,5.23,0,0,1,0,.56c0,.22,0,.41,0,.58s0,.34,0,.51a.61.61,0,0,1,0,.32.41.41,0,0,0,0,.16,1.61,1.61,0,0,0,0,.48,1.58,1.58,0,0,0,.47.07h.34a.69.69,0,0,0,.19,0h.12l.4.05a1.09,1.09,0,0,0,.4,0h.21l.21,0a.68.68,0,0,1,.25-.07h.12a2,2,0,0,1,.33-.1.25.25,0,0,0,.13,0l.63-.24.47-.15.29-.07a.35.35,0,0,1,.27-.24.31.31,0,0,0,.24-.28.23.23,0,0,1,.14,0c.05,0,.08,0,.1-.09s.08-.27.13-.42a1.26,1.26,0,0,1,.17-.37.36.36,0,0,1,0-.23A.45.45,0,0,0,305.22,201.92Z" transform="translate(-155.95 -172.98)"/><path class="cls-2" d="M320.84,197.6a.5.5,0,0,1,.11.17.65.65,0,0,1,.06.21.44.44,0,0,1,0,.2.16.16,0,0,1-.16.12.13.13,0,0,1,0,.17.34.34,0,0,0,0,.18,3.84,3.84,0,0,0,0,.48,1.76,1.76,0,0,1,0,.46,1.07,1.07,0,0,1-.07.19.8.8,0,0,0-.08.16l-.09.2a.73.73,0,0,1-.09.13.51.51,0,0,1-.44,0,.66.66,0,0,0-.48,0,.38.38,0,0,0-.34-.09.46.46,0,0,1-.38-.11.62.62,0,0,1-.38,0,2.25,2.25,0,0,0-.4-.06l-.13,0a.29.29,0,0,1-.13,0,.65.65,0,0,1-.22-.08.54.54,0,0,0-.22-.05.28.28,0,0,0-.18,0,.76.76,0,0,1-.21,0h-.37c-.2,0-.42,0-.63-.06l-.75-.07a4.78,4.78,0,0,0-.66,0,5.85,5.85,0,0,0-.71,0,.8.8,0,0,0-.08.45c0,.15,0,.31.06.47l0,.48,0,.48a.36.36,0,0,1,0,.14.78.78,0,0,0,0,.14c0,.09,0,.2,0,.33a2.36,2.36,0,0,1,0,.37,1.14,1.14,0,0,1,0,.27.38.38,0,0,0,.05.25,1.18,1.18,0,0,0,.43.07l.3,0h.27l.47,0h1.2c.24,0,.5,0,.79,0l.39-.06a.54.54,0,0,1,.38.08.59.59,0,0,1,.23-.05.9.9,0,0,0,.23,0,.48.48,0,0,1,.17,0,.42.42,0,0,0,.17,0h.55l.37,0,.21,0a.54.54,0,0,1,.18,0c.08,0,.12,0,.12.08a.35.35,0,0,0,.06.14.78.78,0,0,1,.08.36,3.87,3.87,0,0,1,0,.45.34.34,0,0,1,0,.2.61.61,0,0,0,0,.17,2.17,2.17,0,0,0,0,.51,1.68,1.68,0,0,0,.11.47l-.09.23a.57.57,0,0,1-.13.21.16.16,0,0,0-.15,0,.24.24,0,0,1-.13,0,.45.45,0,0,1-.18,0l-.15-.08s-.08,0-.14,0-.09,0-.08-.1a.9.9,0,0,1-.37.15.3.3,0,0,0-.22.09.35.35,0,0,0-.25-.07.86.86,0,0,0-.27.05.59.59,0,0,0-.23-.05l-.32,0a.33.33,0,0,0-.25,0,.9.9,0,0,1-.25.08.75.75,0,0,0-.39,0l-.33.11c-.07,0-.11,0-.13,0s-.06-.07-.13-.06a.37.37,0,0,1-.25.06c-.11,0-.19,0-.23.07a.31.31,0,0,0-.32-.05.32.32,0,0,1-.33-.08q0,.09-.12.06a.25.25,0,0,0-.19,0,.41.41,0,0,0-.16,0l-.17,0a.56.56,0,0,1-.25,0,.31.31,0,0,0-.25,0,.16.16,0,0,0-.09.17.49.49,0,0,1,0,.24l0,.13a.68.68,0,0,0,0,.14.45.45,0,0,0,0,.16.22.22,0,0,1,0,.16,1.64,1.64,0,0,1-.05.37c0,.13-.07.27-.1.4a2.29,2.29,0,0,0-.09.54.54.54,0,0,1-.11.35.49.49,0,0,1,.07.24c0,.12,0,.24,0,.37v.64a1,1,0,0,1,0,.3l-.05.13a.59.59,0,0,0,0,.13.51.51,0,0,0,0,.24.39.39,0,0,1,0,.26.72.72,0,0,0,.43.09l.53,0,.76-.07a5.71,5.71,0,0,1,.68,0,1,1,0,0,1,.32,0,.48.48,0,0,0,.29,0l.36-.07a1,1,0,0,1,.39,0,1.19,1.19,0,0,1,.38,0l.27,0h.36l.34,0,.16,0,.16,0a.91.91,0,0,0,.22,0h.11a.31.31,0,0,0,.18,0l.06,0a.28.28,0,0,0,.22,0,.52.52,0,0,1,.33,0,.16.16,0,0,1,.07.14.22.22,0,0,0,.08.14c0,.07,0,.12,0,.13a.13.13,0,0,1,.09.11,5.17,5.17,0,0,1,0,1q-.06.51-.09,1.08a.24.24,0,0,1-.11.09l-.15.08-.14.09a.33.33,0,0,1-.17,0l-.17,0-.17-.06a.66.66,0,0,0-.21,0l-.23,0-.38,0-.43-.05-.44,0a.65.65,0,0,1-.32-.08.15.15,0,0,0-.15,0,.22.22,0,0,1-.16.05,1.7,1.7,0,0,0-.46-.06l-.54,0a1.6,1.6,0,0,0-.38,0,1.7,1.7,0,0,1-.4,0,2.16,2.16,0,0,1-.36,0,1.09,1.09,0,0,0-.36,0,1.86,1.86,0,0,0-.36,0,1,1,0,0,1-.34,0,.5.5,0,0,1-.19,0,.48.48,0,0,0-.18,0,.39.39,0,0,1-.22,0,.57.57,0,0,0-.18,0,1.44,1.44,0,0,0-.37,0,.85.85,0,0,1-.37-.12.23.23,0,0,1-.16,0,.47.47,0,0,0-.17,0,.52.52,0,0,1-.17,0h-.11a1.37,1.37,0,0,0-.29.07.44.44,0,0,1-.3,0c-.1-.07-.16-.13-.17-.19s0-.13-.07-.2a1.21,1.21,0,0,0-.05-.14.47.47,0,0,1,0-.16.6.6,0,0,1,0-.19.22.22,0,0,0,0-.16.73.73,0,0,0-.06-.21l-.09-.19a1.14,1.14,0,0,0,0-.45,1.89,1.89,0,0,1,0-.48,1.85,1.85,0,0,1,0-.29.44.44,0,0,0,0-.15.3.3,0,0,0,0-.13l0-.13q0-.1,0-.12s0,0,0-.12a1.86,1.86,0,0,0-.1-.37.58.58,0,0,1,0-.39.28.28,0,0,0,0-.2.26.26,0,0,1,0-.11,1,1,0,0,1,0-.23c0-.08,0-.16.08-.25a.58.58,0,0,0,0-.19,1.24,1.24,0,0,0,0-.16c0-.1,0-.16,0-.18a.17.17,0,0,1,0-.1,1.1,1.1,0,0,1,0-.18.5.5,0,0,0,0-.17,1.12,1.12,0,0,1,0-.32.2.2,0,0,0-.07-.23.61.61,0,0,0,.05-.44,2.65,2.65,0,0,1-.05-.5.31.31,0,0,1,0-.19c0-.06,0-.13,0-.2a.78.78,0,0,0,0-.16.47.47,0,0,1,0-.17,2.11,2.11,0,0,0,0-.25V205a.59.59,0,0,1,0-.13.3.3,0,0,0,0-.13.84.84,0,0,1,0-.14.56.56,0,0,1,0-.17q0-.19.06-.24l-.07-.17s0-.1.05-.18-.08-.25-.05-.28a.23.23,0,0,0,0-.13c0-.16,0-.3,0-.43a2.19,2.19,0,0,1,0-.36.39.39,0,0,1,0-.14.78.78,0,0,0,0-.14.72.72,0,0,0,0-.17.22.22,0,0,1,0-.16,2.19,2.19,0,0,0,.1-.57.61.61,0,0,1,.11-.36.94.94,0,0,1-.06-.67,3.31,3.31,0,0,0,.09-.77,2.67,2.67,0,0,0,0-.56,2.61,2.61,0,0,1,0-.62,1.23,1.23,0,0,0,0-.4.87.87,0,0,1,0-.26.6.6,0,0,1,0-.22l.09-.21.08-.17a.23.23,0,0,1,.12-.12,6.35,6.35,0,0,0,1.84.08,8.48,8.48,0,0,1,1.74,0l.46.09a2.57,2.57,0,0,0,.47.08.8.8,0,0,0,.31,0,2.9,2.9,0,0,1,.39-.05,1.43,1.43,0,0,0,.3,0h.12a.58.58,0,0,1,.19,0,.64.64,0,0,0,.2,0,1.32,1.32,0,0,0,.33,0,1.77,1.77,0,0,1,.32,0l.29,0a.76.76,0,0,1,.3,0,2.3,2.3,0,0,1,.48.05c.19,0,.37.06.55.08a.51.51,0,0,1,.25,0l.14,0a2.21,2.21,0,0,0,.57,0A3.33,3.33,0,0,1,320.84,197.6Z" transform="translate(-155.95 -172.98)"/><path class="cls-2" d="M208.11,310.72a.53.53,0,0,0-.06-.19.56.56,0,0,0-.1-.15.24.24,0,0,1-.07-.12l-.08-.53c0-.15-.05-.31-.07-.47a.55.55,0,0,1-.18-.22.78.78,0,0,1-.16-.29l-.06-.23-.08-.3-.09-.22c0-.12,0-.22-.07-.31a1.22,1.22,0,0,0-.06-.26.73.73,0,0,0-.05-.12s0-.08,0-.12-.06-.18-.09-.29a.27.27,0,0,0-.15-.19c-.15.06-.23.14-.24.26a.73.73,0,0,1-.15.33.49.49,0,0,0-.11.13c0,.16-.06.27-.08.34s-.05.13-.07.2l-.08.2a.89.89,0,0,1-.08.17l-.07.14-.06.1-.35.65a3.94,3.94,0,0,0-.26.55,1.15,1.15,0,0,0-.06.21,1.72,1.72,0,0,1-.07.21.58.58,0,0,1-.11.15.5.5,0,0,0-.11.18.25.25,0,0,0,0,.12.36.36,0,0,1,0,.14,1.65,1.65,0,0,0-.19.38,1.49,1.49,0,0,1-.07.25,1.05,1.05,0,0,0,.49.1h.49l.85-.06a4.42,4.42,0,0,0,.74-.1,2.53,2.53,0,0,1,.55,0,.91.91,0,0,0,.52-.06.23.23,0,0,0,0-.18c0-.05,0-.12,0-.19A1.2,1.2,0,0,1,208.11,310.72Z" transform="translate(-155.95 -172.98)"/><path class="cls-2" d="M303.85,308.87a.34.34,0,0,1,.26-.24.32.32,0,0,0,.24-.29.37.37,0,0,1,.14,0,.09.09,0,0,0,.1-.09c.05-.13.09-.27.13-.41a1.42,1.42,0,0,1,.18-.37c0-.12,0-.19,0-.23a.5.5,0,0,0,.1-.23,1.49,1.49,0,0,1-.12-.31,1.3,1.3,0,0,0,0-.13.28.28,0,0,0-.08-.11.32.32,0,0,1-.1-.1,1,1,0,0,0-.19-.29.32.32,0,0,1-.11-.12.26.26,0,0,0-.11-.1.81.81,0,0,1-.23-.21.16.16,0,0,0-.17-.07.21.21,0,0,0-.18-.16.25.25,0,0,1-.19-.17.71.71,0,0,1-.28-.08L303,305l-.12.07a.21.21,0,0,1-.16,0,.47.47,0,0,1-.19-.07.76.76,0,0,0-.18-.06,1.22,1.22,0,0,1-.35,0l-.18,0a1,1,0,0,0-.35-.09,1.16,1.16,0,0,0-.37,0l-.39.05a5.58,5.58,0,0,1-.72,0,2.73,2.73,0,0,0-.7,0,.12.12,0,0,0,0,.14.22.22,0,0,1,.06.17.87.87,0,0,0,0,.33,1.37,1.37,0,0,1,0,.19c0,.12,0,.19,0,.22l0,.06v.37a2.67,2.67,0,0,0,0,.56c0,.18,0,.37,0,.56s0,.41,0,.57a4.67,4.67,0,0,1,0,.52.7.7,0,0,1,0,.31.47.47,0,0,0,0,.17,1.37,1.37,0,0,0,0,.48,2,2,0,0,0,.47.06h.34a.38.38,0,0,0,.18,0h.12c.15,0,.28,0,.41.06a1.36,1.36,0,0,0,.4,0l.21,0,.21,0a.86.86,0,0,1,.25-.06H302l.32-.1.14,0,.63-.24a4.38,4.38,0,0,1,.47-.16Z" transform="translate(-155.95 -172.98)"/><path class="cls-2" d="M222.76,308.87a.34.34,0,0,1,.26-.24.32.32,0,0,0,.24-.29.33.33,0,0,1,.14,0s.08,0,.1-.09.09-.27.13-.41a1.15,1.15,0,0,1,.17-.37c0-.12,0-.19,0-.23a.63.63,0,0,0,.1-.23.83.83,0,0,1-.12-.31.4.4,0,0,0,0-.13.26.26,0,0,0-.07-.11.32.32,0,0,1-.1-.1.83.83,0,0,0-.2-.29.43.43,0,0,1-.11-.12.21.21,0,0,0-.11-.1,1.26,1.26,0,0,1-.23-.21.14.14,0,0,0-.16-.07.23.23,0,0,0-.18-.16.25.25,0,0,1-.19-.17.66.66,0,0,1-.28-.08l-.24-.16a.35.35,0,0,0-.12.07.22.22,0,0,1-.17,0,.48.48,0,0,1-.18-.07.85.85,0,0,0-.19-.06,1.24,1.24,0,0,1-.35,0l-.17,0a1,1,0,0,0-.35-.09,1.16,1.16,0,0,0-.37,0l-.39.05a5.58,5.58,0,0,1-.72,0,2.73,2.73,0,0,0-.7,0c0,.06,0,.11,0,.14a.26.26,0,0,1,0,.17,1.73,1.73,0,0,0,0,.33.65.65,0,0,1,0,.19.68.68,0,0,0,0,.22.1.1,0,0,1,0,.06v.37a3.57,3.57,0,0,0,0,.56,3.51,3.51,0,0,1,0,.56c0,.21,0,.41,0,.57l0,.52a.9.9,0,0,1,0,.31.33.33,0,0,0,0,.17,1.4,1.4,0,0,0,0,.48,1.89,1.89,0,0,0,.47.06H219a.42.42,0,0,0,.19,0h.12a3.8,3.8,0,0,1,.4.06,1.42,1.42,0,0,0,.41,0l.2,0a.76.76,0,0,0,.21,0,.93.93,0,0,1,.25-.06h.12a2,2,0,0,1,.33-.1l.13,0,.63-.24.47-.16Z" transform="translate(-155.95 -172.98)"/><path class="cls-2" d="M291.81,309.06a1.27,1.27,0,0,1,0-.2.74.74,0,0,0,0-.21.52.52,0,0,0-.07-.15.8.8,0,0,1-.08-.16q0-.1,0-.15s0-.06,0-.11a1.17,1.17,0,0,1-.12-.3c0-.12-.07-.24-.1-.35l-.2-.21-.09-.12a2.17,2.17,0,0,1-.16-.25.36.36,0,0,0-.08-.12,1.62,1.62,0,0,0-.35-.27,3.16,3.16,0,0,1-.39-.28A.86.86,0,0,1,290,306l-.19-.16a1.07,1.07,0,0,1-.27-.2l-.1-.11a1,1,0,0,0-.39-.09.5.5,0,0,1-.37-.19,1,1,0,0,1-.57-.08,1.4,1.4,0,0,0-.66-.09l-.1-.06-.14-.08a.42.42,0,0,1-.28,0l-.22-.08-.15,0-.13,0-.31-.08-.28-.07a.61.61,0,0,1-.33,0,.67.67,0,0,0-.24,0l-.23,0-.2,0a2.88,2.88,0,0,0-.6-.1,1.37,1.37,0,0,1-.41-.05l-.2-.07a.46.46,0,0,1-.19-.08.3.3,0,0,1-.12.11.21.21,0,0,0-.1.06.57.57,0,0,0-.24.14,1,1,0,0,1-.19.17l-.23.07-.23.1-.09.09-.09.09a.2.2,0,0,1-.11.06.26.26,0,0,0-.1.07,1.11,1.11,0,0,0-.19.18.34.34,0,0,1-.21.14.59.59,0,0,1-.14.22,2.39,2.39,0,0,0-.16.22l-.17.22a.43.43,0,0,1-.2.15.48.48,0,0,1-.07.27.84.84,0,0,0-.09.28,2.16,2.16,0,0,0-.17.26,2,2,0,0,0-.09.2c-.07.16-.13.26-.16.32a1.62,1.62,0,0,0-.1.18,2,2,0,0,1-.15.3l-.13.28a1.51,1.51,0,0,0-.09.31c0,.15-.06.3-.1.47a1,1,0,0,0,0,.4.54.54,0,0,0,0,.23.32.32,0,0,1,0,.14,2.22,2.22,0,0,0-.09.8c0,.21,0,.42.07.62a1.69,1.69,0,0,1,0,.45,1.34,1.34,0,0,0,0,.36.3.3,0,0,0,.05.16l.09.15a1.41,1.41,0,0,1,0,.18.54.54,0,0,0,0,.19,3.71,3.71,0,0,1,.13.41.75.75,0,0,0,.09.24.47.47,0,0,0,.14.14.93.93,0,0,1,.14.14.87.87,0,0,1,.11.18l.11.2a2.36,2.36,0,0,1,.16.22l.08.1a.47.47,0,0,0,.14.14.67.67,0,0,1,.14.15.71.71,0,0,1,.12.18l.12.21a3.74,3.74,0,0,1,.59.38c.18.14.35.3.53.47a2.64,2.64,0,0,1,.55.15l.52.2.18.05.21.06.17,0a.64.64,0,0,1,.2,0,1.54,1.54,0,0,1,.34.08,2.26,2.26,0,0,0,.31.1,2.35,2.35,0,0,0,.37,0,.62.62,0,0,1,.35.08.37.37,0,0,1,.19-.07l.18,0a.81.81,0,0,1,.51-.13,1.77,1.77,0,0,0,.56,0,.37.37,0,0,1,.16-.09l.08,0a2.29,2.29,0,0,0,.27-.13.88.88,0,0,1,.24-.11l.15,0,.15-.05a.37.37,0,0,1,.18-.15l.1,0,.14-.1a.19.19,0,0,1,.17,0,.41.41,0,0,1,.19-.18,1.69,1.69,0,0,1,.27-.1.31.31,0,0,1,.09-.12l.08-.08.18-.17.08-.09a4.47,4.47,0,0,1,.35-.41c0-.07,0-.12.08-.14l.1-.08a.83.83,0,0,1,.06-.21l.09-.18a.67.67,0,0,1,.1-.19.33.33,0,0,0,.05-.21.21.21,0,0,0,.15-.14c0-.06,0-.13.07-.2l.19-.33a1,1,0,0,1,.1-.15c0-.06.05-.11.06-.15l.07-.12a1.13,1.13,0,0,1,.13-.3.64.64,0,0,0,.06-.11.4.4,0,0,0,0-.19.51.51,0,0,1,0-.2l.09-.17a.41.41,0,0,0,.08-.23.28.28,0,0,0,0-.18.38.38,0,0,1,0-.21.85.85,0,0,1,.06-.17l.09-.2c0-.1.06-.2.1-.31a.29.29,0,0,0,0-.21,1.07,1.07,0,0,0,.05-.23v-.12a.78.78,0,0,1,0-.18.33.33,0,0,0,0-.15.89.89,0,0,0,0-.22A.78.78,0,0,1,291.81,309.06Z" transform="translate(-155.95 -172.98)"/><path class="cls-2" d="M339.92,291.14c0-5-3.39-5.92-8.4-5.92-16.66,0-16.66-.25-33.33-.25s-16.67-2.67-33.33-2.67S248.19,279,231.53,279s-16.66,2.91-33.33,2.91-16.66,1.19-33.32,1.19c-5,0-8.12,3-8.12,8,0,19.56,1,19.56,1,39.11,0,5,2.08,5.12,7.09,5.12,16.66,0,16.66,2.05,33.33,2.05s16.66,5.89,33.33,5.89,16.66-5.07,33.33-5.07,16.66-2.31,33.32-2.31,16.67-.16,33.33-.16c5,0,8.5-.51,8.5-5.52C340,310.7,339.92,310.7,339.92,291.14ZM185.29,317.42a1.26,1.26,0,0,1-.17.5.26.26,0,0,1-.22.09.49.49,0,0,0-.24,0,3.55,3.55,0,0,1-.52.15.65.65,0,0,1-.25.06.22.22,0,0,0-.14,0l-.13,0-.13.06h-.88a3,3,0,0,1-.85.12,4.5,4.5,0,0,0-.76,0,2.2,2.2,0,0,1-.44,0,2.23,2.23,0,0,0-.52,0h-.35a.94.94,0,0,1-.37-.12.64.64,0,0,1-.18.06l-.17.09-.2-.09a.44.44,0,0,0-.21,0l-.42,0a.26.26,0,0,1-.3-.18.16.16,0,0,0-.15.06.14.14,0,0,1-.14.07.88.88,0,0,0-.24,0,1.67,1.67,0,0,1-.3,0,.66.66,0,0,0-.16-.17.5.5,0,0,1-.13-.2.52.52,0,0,1,0-.24.52.52,0,0,0,.08-.11c0-.19,0-.3,0-.34a.18.18,0,0,1-.09-.18,2,2,0,0,0,0-.35,2,2,0,0,1,0-.35c0-.07,0-.14,0-.2l.05-.17a2.08,2.08,0,0,1,0-.43c0-.13,0-.26,0-.38a.64.64,0,0,0,0-.2c0-.07,0-.14,0-.21a1,1,0,0,1,0-.17.41.41,0,0,0,0-.16,1.9,1.9,0,0,0,0-.53l-.09-.54a1.63,1.63,0,0,1,0-.4,3.35,3.35,0,0,0,0-.54c0-.05,0-.11,0-.15a.34.34,0,0,1,0-.15,1.13,1.13,0,0,1,0-.32c0-.11,0-.22,0-.34a1,1,0,0,0,0-.17.86.86,0,0,1,0-.15.73.73,0,0,0,0-.12.5.5,0,0,1,0-.12,2.2,2.2,0,0,1,0-.57,1.81,1.81,0,0,0,0-.52c0-.14,0-.26-.05-.38s0-.23-.06-.34v-.37a.41.41,0,0,1-.05-.18.28.28,0,0,0-.08-.15,1.67,1.67,0,0,0,0-.5,4,4,0,0,0-.06-.51.88.88,0,0,0,0-.16c0-.05,0-.1-.05-.16a.52.52,0,0,1,0-.11.4.4,0,0,0,0-.15.74.74,0,0,0,0-.12c0-.06,0-.1,0-.12a2.53,2.53,0,0,1,0-.28.68.68,0,0,0,0-.25,1.42,1.42,0,0,0-.06-.31c0-.1,0-.19-.07-.28a1.54,1.54,0,0,1,0-.19v-.2a1.09,1.09,0,0,0,0-.24.45.45,0,0,1,0-.11v-.58a1.81,1.81,0,0,0,0-.25.51.51,0,0,1,0-.25.33.33,0,0,0,0-.14,1,1,0,0,0-.05-.28.48.48,0,0,1,0-.29.16.16,0,0,0-.07-.15.19.19,0,0,1-.1-.13c0-.25,0-.46,0-.65a2.21,2.21,0,0,1,0-.57l.23-.16a.46.46,0,0,1,.34,0l.18.08h.09l.06,0h.08a4.8,4.8,0,0,1,.81,0,7.36,7.36,0,0,0,1,0l.13,0a.11.11,0,0,1,.11,0,.5.5,0,0,1,.22.11.35.35,0,0,1,.13.15.25.25,0,0,1,0,.16l-.07.17a.93.93,0,0,1,.09.51c0,.17,0,.34,0,.53a.19.19,0,0,0,0,.13.41.41,0,0,1,0,.16.76.76,0,0,1,0,.21.89.89,0,0,0,0,.22,1.61,1.61,0,0,0,0,.37.57.57,0,0,1-.06.4,1.18,1.18,0,0,1,0,.41q0,.19,0,.48a.24.24,0,0,1,0,.12.13.13,0,0,0,0,.12.69.69,0,0,0,.09.34.41.41,0,0,1-.09.4,1,1,0,0,1,.18.68,7.33,7.33,0,0,0,0,.83,2.2,2.2,0,0,0,.06.37,1.41,1.41,0,0,1,.05.35,2.8,2.8,0,0,1,0,.41,1.48,1.48,0,0,0,0,.42.71.71,0,0,1,0,.21.36.36,0,0,0,0,.11,1.12,1.12,0,0,1,0,.22.1.1,0,0,0,0,.09.25.25,0,0,0,0,.12l0,.12a.66.66,0,0,1,0,.15.76.76,0,0,0,0,.15l.07.46q0,.19,0,.36c0,.11,0,.25,0,.41a1.46,1.46,0,0,0,0,.17.26.26,0,0,1,0,.11.34.34,0,0,0,0,.15.19.19,0,0,1-.05.16,4.63,4.63,0,0,1,.09.49.85.85,0,0,1-.07.42.7.7,0,0,1,0,.33c0,.13,0,.28,0,.44a1.31,1.31,0,0,1,.05.15.22.22,0,0,1-.09.19,2.4,2.4,0,0,1,0,.58,4.8,4.8,0,0,0,0,.62.54.54,0,0,0,.43.14l.5-.05a4.25,4.25,0,0,1,.51,0,4.13,4.13,0,0,0,.5,0h.24l.39,0h.41l.11,0a.22.22,0,0,1,.16,0H183l.12-.05.16,0h.16a.35.35,0,0,1,.18,0l.08,0a1.63,1.63,0,0,1,.43-.09,1.55,1.55,0,0,0,.29,0,.83.83,0,0,1,.5,0,.47.47,0,0,1,.22.15,1,1,0,0,1,0,.17,1.13,1.13,0,0,0,0,.18.78.78,0,0,0,0,.16c0,.05,0,.11.05.16a.4.4,0,0,1,0,.18.31.31,0,0,0,0,.17.51.51,0,0,0,0,.13l.05.14A2.36,2.36,0,0,1,185.29,317.42Zm12.08-14.19a.19.19,0,0,1-.16.12c.06.06.07.11,0,.16a.36.36,0,0,0,0,.19,1.93,1.93,0,0,0,0,.48,1.76,1.76,0,0,1,0,.46.75.75,0,0,1-.07.18L197,305a.93.93,0,0,1-.08.2.48.48,0,0,1-.09.13.51.51,0,0,1-.44,0,.79.79,0,0,0-.48,0,.41.41,0,0,0-.35-.08.44.44,0,0,1-.37-.11.7.7,0,0,1-.38,0l-.4-.07a.31.31,0,0,0-.13,0h-.13A.83.83,0,0,1,194,305a.46.46,0,0,0-.22-.06.28.28,0,0,0-.18,0l-.21,0H193l-.64-.07-.74-.06a4.89,4.89,0,0,0-.66,0,5.92,5.92,0,0,0-.71,0,.75.75,0,0,0-.08.44l.06.47,0,.48,0,.48a.89.89,0,0,1,0,.15.68.68,0,0,0,0,.14c0,.08,0,.19,0,.32s0,.26,0,.38a2.13,2.13,0,0,1,0,.27.45.45,0,0,0,0,.25,1.51,1.51,0,0,0,.44.06l.29,0h.28a3.71,3.71,0,0,1,.47,0H193a7.59,7.59,0,0,0,.79,0l.38-.05a.55.55,0,0,1,.39.07.59.59,0,0,1,.23,0l.22,0a.27.27,0,0,1,.18,0l.17,0a2.47,2.47,0,0,1,.55,0l.37,0,.21,0a.28.28,0,0,1,.18,0c.07,0,.11,0,.12.07a.47.47,0,0,0,.06.15.86.86,0,0,1,.08.36,3.63,3.63,0,0,1,0,.44.37.37,0,0,1,0,.21.55.55,0,0,0,0,.16,2.26,2.26,0,0,0,0,.52,1.62,1.62,0,0,0,.11.46l-.09.23a.57.57,0,0,1-.13.21.19.19,0,0,0-.15,0,.27.27,0,0,1-.13.05.3.3,0,0,1-.18,0l-.15-.07s-.08,0-.14,0-.09,0-.08-.1a.86.86,0,0,1-.37.14.29.29,0,0,0-.22.1.32.32,0,0,0-.25-.08l-.27.06a.86.86,0,0,0-.23-.06l-.32,0a.32.32,0,0,0-.25,0l-.25.09a.66.66,0,0,0-.39,0,1.6,1.6,0,0,0-.33.11c-.07,0-.12,0-.13-.06s-.06-.07-.13-.05a.37.37,0,0,1-.25.05.24.24,0,0,0-.23.08.31.31,0,0,0-.32-.06.34.34,0,0,1-.34-.07.09.09,0,0,1-.12.05.35.35,0,0,0-.18,0l-.16,0a.5.5,0,0,1-.17,0,.45.45,0,0,1-.25,0,.31.31,0,0,0-.25,0,.18.18,0,0,0-.09.18.49.49,0,0,1,0,.24l0,.13a.3.3,0,0,0,0,.13.41.41,0,0,0,0,.16.25.25,0,0,1,0,.17,1.72,1.72,0,0,1,0,.37c0,.13-.07.26-.1.39a2.36,2.36,0,0,0-.09.55.63.63,0,0,1-.11.35.44.44,0,0,1,.07.24c0,.11,0,.24,0,.37v.64a1.55,1.55,0,0,1,0,.29l-.05.14a.79.79,0,0,0,0,.37.39.39,0,0,1,0,.26.78.78,0,0,0,.43.09,4.11,4.11,0,0,1,.53,0q.38,0,.75-.06a6.21,6.21,0,0,1,.69-.05,1.07,1.07,0,0,1,.32.05.48.48,0,0,0,.29,0,2.45,2.45,0,0,1,.36-.08,1.65,1.65,0,0,1,.38,0h.39a1.23,1.23,0,0,0,.27,0h.36l.34,0,.16,0a.45.45,0,0,1,.16,0,.57.57,0,0,0,.22,0h.11a.35.35,0,0,0,.18,0l.06,0a.25.25,0,0,0,.22,0,.6.6,0,0,1,.33,0,.17.17,0,0,1,.07.14.22.22,0,0,0,.08.15c0,.07,0,.11,0,.13a.12.12,0,0,1,.09.11,5.07,5.07,0,0,1,0,1c-.05.34-.07.7-.09,1.08a.21.21,0,0,1-.11.1l-.15.08-.14.08a.34.34,0,0,1-.17.05.38.38,0,0,1-.17,0l-.18-.05-.2,0a.82.82,0,0,1-.23,0,2.55,2.55,0,0,1-.38,0l-.43,0-.45,0a.77.77,0,0,1-.31-.08.14.14,0,0,0-.15,0,.18.18,0,0,1-.16.06,1.41,1.41,0,0,0-.47-.07l-.53,0a1.2,1.2,0,0,0-.38,0,2.63,2.63,0,0,1-.41,0,1.09,1.09,0,0,1-.36,0H191a1.37,1.37,0,0,0-.36,0,1.22,1.22,0,0,1-.33,0,.36.36,0,0,1-.19,0,.5.5,0,0,0-.19,0,.36.36,0,0,1-.21,0l-.18,0a2,2,0,0,0-.37-.06.65.65,0,0,1-.37-.12.19.19,0,0,1-.16,0l-.17,0a.34.34,0,0,1-.17,0h-.11a1.67,1.67,0,0,0-.3.08.41.41,0,0,1-.29,0,.37.37,0,0,1-.17-.2c0-.05,0-.12-.07-.19a.78.78,0,0,0-.05-.14.35.35,0,0,1,0-.17.54.54,0,0,1,0-.18.25.25,0,0,0,0-.17.66.66,0,0,0-.06-.2l-.09-.19a1.19,1.19,0,0,0,0-.46,1.49,1.49,0,0,1,0-.48,1.7,1.7,0,0,1,0-.28,1,1,0,0,0,0-.15.68.68,0,0,0,0-.14l0-.13q0-.1,0-.12s0,0,0-.12a2.06,2.06,0,0,0-.1-.37.53.53,0,0,1,0-.39.28.28,0,0,0,0-.2.26.26,0,0,1,0-.11.89.89,0,0,1,0-.22c0-.08,0-.17.07-.26a.5.5,0,0,0,0-.18c0-.05,0-.11,0-.16s0-.17,0-.19a.13.13,0,0,1,0-.1.5.5,0,0,1,0-.17,1.1,1.1,0,0,0,0-.18,1.05,1.05,0,0,1,0-.31.22.22,0,0,0-.07-.23.65.65,0,0,0,0-.45,1.94,1.94,0,0,1,0-.49.34.34,0,0,1,0-.2,1.62,1.62,0,0,1,0-.19.88.88,0,0,0,0-.17.41.41,0,0,1,0-.16,2.29,2.29,0,0,0,0-.25v-.27a.34.34,0,0,1,0-.14.51.51,0,0,0,0-.13.49.49,0,0,1,0-.14.5.5,0,0,1,0-.16q0-.19.06-.24a1.59,1.59,0,0,0-.08-.18s0-.1.06-.17-.08-.25-.06-.28a.18.18,0,0,0,0-.13c0-.16,0-.31,0-.43s0-.24,0-.36a.78.78,0,0,1,0-.14.39.39,0,0,0,0-.14.45.45,0,0,0,0-.18.38.38,0,0,1,0-.15,2,2,0,0,0,.11-.58.61.61,0,0,1,.11-.36.92.92,0,0,1-.06-.66,4.13,4.13,0,0,0,.08-.78,2.65,2.65,0,0,0,0-.56,2.59,2.59,0,0,1,0-.62,1,1,0,0,0,0-.39.92.92,0,0,1,0-.26.57.57,0,0,1,0-.22l.09-.22.08-.16a.23.23,0,0,1,.12-.12,6.34,6.34,0,0,0,1.84.07,10.08,10.08,0,0,1,1.73,0l.47.1a3.85,3.85,0,0,0,.47.08,1.08,1.08,0,0,0,.31,0,2.7,2.7,0,0,1,.39-.06.9.9,0,0,0,.29,0h.12a.42.42,0,0,1,.2,0,.6.6,0,0,0,.2,0,1.22,1.22,0,0,0,.32,0l.33,0a1.52,1.52,0,0,0,.29,0h.3a2.4,2.4,0,0,1,.48.06,5.52,5.52,0,0,0,.55.07H196l.14.05a2.77,2.77,0,0,0,.57,0,2,2,0,0,1,.54,0,.64.64,0,0,1,.11.16.54.54,0,0,1,0,.21A.5.5,0,0,1,197.37,303.23ZM213.83,318a.2.2,0,0,0-.19.15.49.49,0,0,1-.29-.13.44.44,0,0,1-.17.12l-.11,0a.66.66,0,0,0-.26.18l-.13-.07a.47.47,0,0,0-.15-.06l-.35,0a.75.75,0,0,1-.2,0,1.42,1.42,0,0,1-.31,0,.62.62,0,0,0-.3,0,.27.27,0,0,1-.2,0,.2.2,0,0,0-.19.09c-.08,0-.12,0-.13,0s-.06,0-.14,0a.81.81,0,0,1-.25.09l-.29.08a.31.31,0,0,1-.19-.16.54.54,0,0,0-.16-.21.81.81,0,0,0,0-.22.17.17,0,0,1,0-.15.2.2,0,0,1-.06-.14,1.54,1.54,0,0,0,0-.19.93.93,0,0,1-.11-.28,1.62,1.62,0,0,0-.11-.35.26.26,0,0,1,0-.24.38.38,0,0,1-.13-.25q0-.15-.09-.36a.29.29,0,0,1-.06-.17.1.1,0,0,0,0-.09,1.09,1.09,0,0,1-.11-.33.55.55,0,0,0,0-.18,1.93,1.93,0,0,1-.12-.32c0-.09-.05-.17-.07-.24l-.09-.12-.09-.14a.41.41,0,0,1,0-.19.41.41,0,0,0-.05-.19l-.07-.15-.06-.13a1.28,1.28,0,0,1-.05-.27.43.43,0,0,0-.1-.25.39.39,0,0,0-.26,0l-.24.06h-.14a.38.38,0,0,0-.15,0l-.27.06a.43.43,0,0,1-.25,0,.3.3,0,0,0-.14,0l-.16,0a.38.38,0,0,0-.23,0h-.3l-.3,0a.35.35,0,0,1-.24,0l-.33,0-.15,0h-.33a.76.76,0,0,1-.33,0,.52.52,0,0,1-.15.07.18.18,0,0,0-.13.09.94.94,0,0,0-.41,0,1.61,1.61,0,0,1-.4,0,.35.35,0,0,0-.17.3,1.34,1.34,0,0,1-.05.35,1.13,1.13,0,0,1-.13.32c-.06.09-.11.19-.17.29l-.09.22-.11.22-.06.15-.05.09s0,0,0,0a.51.51,0,0,1-.07.23.16.16,0,0,0,0,.1.36.36,0,0,0,0,.2,1.34,1.34,0,0,1,0,.19.89.89,0,0,1-.12.26.45.45,0,0,0-.08.29.8.8,0,0,0-.26.36,1,1,0,0,1-.26.38,2.22,2.22,0,0,1-.09.37c0,.12-.09.23-.14.34a1.8,1.8,0,0,0-.12.35,1.73,1.73,0,0,0,0,.42,1.26,1.26,0,0,1-.22.12.25.25,0,0,1-.26,0,1.87,1.87,0,0,0-.34-.15,1.12,1.12,0,0,1-.25-.11l-.24,0h-.52l-.13,0H199a1.85,1.85,0,0,1-.5-.17,2.42,2.42,0,0,0-.46-.18.92.92,0,0,1,0-.19l.07-.18a.26.26,0,0,1,.11-.15s.05-.06,0-.12.09-.23.14-.35l.17-.34a1.06,1.06,0,0,1,.13-.28l.08-.1.12-.29s0-.09.06-.12a1.2,1.2,0,0,0,.06-.17.62.62,0,0,1,.11-.18l.2-.26a1.29,1.29,0,0,1,.13-.32l.11-.16a1.34,1.34,0,0,0,.17-.27l.16-.32c.05-.07.11-.14.15-.21a1,1,0,0,0,.11-.23l.06-.18a.56.56,0,0,0,.05-.08.62.62,0,0,1,0-.16l0-.08a1.57,1.57,0,0,0,.19-.39,1.76,1.76,0,0,1,.18-.39.48.48,0,0,1,.15-.2.32.32,0,0,0,.09-.24.33.33,0,0,0,.16-.19.91.91,0,0,1,.11-.22.41.41,0,0,1,.12-.2,1.73,1.73,0,0,0,.14-.2c0-.07.06-.15.1-.23a1.27,1.27,0,0,1,.12-.23.75.75,0,0,1,.1-.2.32.32,0,0,1,.2-.14.31.31,0,0,1,0-.23c0-.08.07-.16.1-.23a1,1,0,0,1,.11-.17.91.91,0,0,0,.11-.16l.11-.22a1,1,0,0,1,.14-.27l.08-.1a.21.21,0,0,0,0-.13.14.14,0,0,1,0-.11.6.6,0,0,0,.2-.22c0-.08.09-.18.15-.28a1.71,1.71,0,0,0,.13-.27,1.11,1.11,0,0,1,.17-.3.27.27,0,0,1,0-.18l.08-.19a.64.64,0,0,0,.08-.14.64.64,0,0,1,.08-.14.9.9,0,0,0,.18-.35,1.87,1.87,0,0,1,.08-.28.5.5,0,0,1,.1-.18l.09-.15a1.34,1.34,0,0,0,.07-.18.2.2,0,0,1,.11-.13,1,1,0,0,1,.1-.37c.05-.1.09-.21.14-.33a.79.79,0,0,1,.24-.3,2.46,2.46,0,0,0,0-.26.61.61,0,0,1,0-.24.61.61,0,0,1,.11-.18.42.42,0,0,0,.11-.15c.06-.19.11-.35.14-.47l.12-.36a2.12,2.12,0,0,0,.13-.36c0-.14.09-.26.14-.38l.12-.25.09-.25a.77.77,0,0,0,.33-.31,2.41,2.41,0,0,0,.18-.43.54.54,0,0,1,.18,0h.12c.15,0,.23.08.26.16a.8.8,0,0,0,.13.19,1.87,1.87,0,0,1,.17.23c0,.07.07.13.1.19a1.86,1.86,0,0,1,.18.24,1,1,0,0,1,.14.3l.09.2.09.22.12.24a2.93,2.93,0,0,0,.12.28l.14.4c.05.16.1.31.14.45a.89.89,0,0,1,.06.2.37.37,0,0,0,0,.17,1.05,1.05,0,0,0,.08.18l.07.13.19.42a4.84,4.84,0,0,0,.21.47s0,.09.07.13l.08.16a.3.3,0,0,1,.07.11l.08.13a.53.53,0,0,1,.08.15.31.31,0,0,0,.1.15,1.61,1.61,0,0,0,.12.23,2.12,2.12,0,0,1,.09.27,3.4,3.4,0,0,1,.1.33,3.11,3.11,0,0,1,.08.37,4.85,4.85,0,0,1,.21.45l.18.49.12.12a.87.87,0,0,1,.12.14.39.39,0,0,0,.09.15.24.24,0,0,1,.06.09,3.73,3.73,0,0,1,.15.38l.09.36a1.51,1.51,0,0,0,.11.22.44.44,0,0,1,.07.26,1.4,1.4,0,0,1,.19.32,2.41,2.41,0,0,1,.11.25l.16.25.08.16a1.38,1.38,0,0,1,.24.42.64.64,0,0,1,.06.18.42.42,0,0,0,0,.17,2.49,2.49,0,0,0,.11.29,1.51,1.51,0,0,1,.11.32.51.51,0,0,1,.16.2,2,2,0,0,1,.1.21,1.14,1.14,0,0,1,.09.19l.09.23a2.23,2.23,0,0,0,.17.35,1,1,0,0,1,.15.35l.1.21.1.22a.35.35,0,0,1,0,.19.23.23,0,0,0,0,.14,1.61,1.61,0,0,0,.13.28c.08.29.19.6.3.92s.16.38.25.57a2.08,2.08,0,0,1,.21.59A.23.23,0,0,1,213.83,318Zm13.14.52a.68.68,0,0,1-.29.26.79.79,0,0,0-.22.15.19.19,0,0,1-.1.05.38.38,0,0,1-.35-.06,1.62,1.62,0,0,1-.56.06,1.6,1.6,0,0,0-.49,0,.38.38,0,0,0-.17.08l-.16.1a.47.47,0,0,1-.23,0h-.22a.57.57,0,0,1-.15-.16,1.89,1.89,0,0,1-.09-.21,1.12,1.12,0,0,1-.27-.26.35.35,0,0,1-.07-.12.36.36,0,0,0-.08-.12,2.36,2.36,0,0,1-.24-.38,3.09,3.09,0,0,1-.13-.32,1.15,1.15,0,0,0-.14-.17,1.43,1.43,0,0,1-.14-.2l-.16-.19a1,1,0,0,1-.13-.18.35.35,0,0,1,0-.17.53.53,0,0,0,0-.16,1,1,0,0,0-.17-.24.6.6,0,0,1-.12-.28,1.46,1.46,0,0,1-.16-.19.48.48,0,0,0-.23-.14.61.61,0,0,0-.14-.25.89.89,0,0,1-.17-.27,2.34,2.34,0,0,1-.13-.29.34.34,0,0,1,0-.14.35.35,0,0,0-.06-.14.52.52,0,0,0-.18-.18.34.34,0,0,1-.17-.24c-.11,0-.19,0-.22-.09a.25.25,0,0,0-.21-.12,1.87,1.87,0,0,0-.27-.4,1.89,1.89,0,0,1-.3-.41,2.07,2.07,0,0,1-.54-.39,2.48,2.48,0,0,0-.57-.42.47.47,0,0,0-.39-.24.45.45,0,0,0-.09.36,1.41,1.41,0,0,1,0,.41,3.4,3.4,0,0,1-.08.46c0,.16-.08.29-.12.41s0,.12,0,.14.06.07.05.14l-.06.15a.37.37,0,0,0,0,.18.54.54,0,0,0,0,.21.46.46,0,0,1,.06.25,1.43,1.43,0,0,1,0,.39,2.9,2.9,0,0,0-.08.41.92.92,0,0,1,0,.22.28.28,0,0,0,0,.09v.31c0,.08,0,.18,0,.28a1,1,0,0,1,0,.36c0,.08,0,.16-.07.23s0,.16,0,.17a.14.14,0,0,0,0,.07.59.59,0,0,0,0,.13.11.11,0,0,1,0,.11,1.43,1.43,0,0,1-.07.37.64.64,0,0,0,0,.37c0,.1.05.17.06.21a.09.09,0,0,1,0,.1.39.39,0,0,1-.15.26.3.3,0,0,0-.13.24,1.18,1.18,0,0,0-.47,0,.54.54,0,0,1-.41,0,2.33,2.33,0,0,1-.37.08,1.44,1.44,0,0,1-.41,0,.77.77,0,0,0-.32-.05.1.1,0,0,1-.12,0,5,5,0,0,0-.11-.72.58.58,0,0,1,.11-.5.3.3,0,0,0,0-.13.38.38,0,0,1,0-.15.93.93,0,0,0,0-.35.81.81,0,0,1,0-.2.53.53,0,0,1,.05-.15.35.35,0,0,0,0-.13.37.37,0,0,0,0-.23.73.73,0,0,1,0-.25,1.94,1.94,0,0,1,0-.24,1.06,1.06,0,0,0,0-.24.69.69,0,0,0-.05-.24.27.27,0,0,1,0-.27.47.47,0,0,0,0-.26c0-.11,0-.23,0-.35s0-.13,0-.19a1.77,1.77,0,0,1,0-.2c0-.09,0-.17,0-.25a2,2,0,0,1,0-.23.35.35,0,0,1,0-.12.24.24,0,0,0,0-.12,1.37,1.37,0,0,1,0-.3,1.36,1.36,0,0,0,0-.18.86.86,0,0,0,0-.23.83.83,0,0,1,0-.27.57.57,0,0,0,0-.18.6.6,0,0,1,0-.19.53.53,0,0,0,0-.26l0-.13a.68.68,0,0,1,0-.14.34.34,0,0,0,0-.15,1.91,1.91,0,0,0,0-.39,2,2,0,0,1,0-.39c0-.29,0-.45-.05-.48l.07-.2c0-.06,0-.12,0-.2a1.51,1.51,0,0,0,0-.3,1.37,1.37,0,0,1,0-.39l.06-.11a.35.35,0,0,0,0-.13,1.1,1.1,0,0,0,0-.18.31.31,0,0,1,0-.19c0-.14,0-.27,0-.42a3.64,3.64,0,0,1,.07-.44,1,1,0,0,0,0-.28.44.44,0,0,1,0-.15.92.92,0,0,1,0-.29.51.51,0,0,0,0-.3.57.57,0,0,0,0-.12,1,1,0,0,1,0-.19,1.55,1.55,0,0,0,0-.31.65.65,0,0,1,0-.19.53.53,0,0,0,0-.19.08.08,0,0,1,0-.07c0-.06,0-.1,0-.12s0-.06,0-.12,0-.21,0-.29a2.08,2.08,0,0,0,0-.34c0-.1,0-.16,0-.18s0,0,0-.06a.37.37,0,0,0-.05-.16l-.08-.17a.77.77,0,0,0,0-.31,1,1,0,0,1,0-.34.74.74,0,0,1,0-.12c0-.06,0-.1,0-.12a1,1,0,0,1-.07-.26.34.34,0,0,0,0-.12.7.7,0,0,0-.06-.17.37.37,0,0,1-.05-.15.48.48,0,0,1,.07-.24l.13-.22a.39.39,0,0,1,.1-.08.21.21,0,0,1,.14,0l.1-.1a.38.38,0,0,1,.12-.09.3.3,0,0,1,.27,0,1.13,1.13,0,0,0,.21.12,1.11,1.11,0,0,1,.37,0,2.39,2.39,0,0,0,.44,0,.79.79,0,0,1,.28,0h.13a2.32,2.32,0,0,1,.46-.06,1.37,1.37,0,0,1,.3,0c.12,0,.19,0,.21,0l.08,0a.25.25,0,0,1,.19,0l.18.05a2,2,0,0,0,.35,0,2.11,2.11,0,0,1,.35,0l.36,0,.36.09.13.06a.33.33,0,0,0,.13.07.7.7,0,0,0,.21,0,.41.41,0,0,1,.22,0,2,2,0,0,1,.47.15,2.79,2.79,0,0,0,.47.14l.24.07a.9.9,0,0,1,.24.12,2.26,2.26,0,0,1,.55.06,1.41,1.41,0,0,1,.41.14l.25.09a.52.52,0,0,1,.23.13l.2.15a1.22,1.22,0,0,1,.17.15.86.86,0,0,1,.17.17.61.61,0,0,0,.07.1.65.65,0,0,1,.17.17.22.22,0,0,0,.07.09.62.62,0,0,1,.17.12.24.24,0,0,0,.12.07.46.46,0,0,0,.16.27,1.37,1.37,0,0,1,.23.19,1,1,0,0,1,.13.31.22.22,0,0,0,.11.15,3.23,3.23,0,0,1,.13.65.63.63,0,0,0,.2.44.57.57,0,0,0,0,.32l.12.29a.31.31,0,0,0,0,.21,1.25,1.25,0,0,1,0,.21.54.54,0,0,1,0,.21.15.15,0,0,0,0,.2c-.06.18-.11.35-.17.54a1.92,1.92,0,0,1-.22.51.23.23,0,0,0-.07.1s-.06,0-.13,0a.22.22,0,0,1,0,.19.18.18,0,0,0-.07.16,1.38,1.38,0,0,0-.48.48.51.51,0,0,1-.12.13l-.16.11-.27.15-.15.09a.42.42,0,0,0-.18.11.21.21,0,0,1-.08.06l-.14.08-.14.08-.19.13-.08,0a4.09,4.09,0,0,1-.42.16,2.4,2.4,0,0,0-.45.23.22.22,0,0,0-.22,0,.87.87,0,0,1-.24.1,1.11,1.11,0,0,1-.29,0c-.08,0-.14,0-.16.16a.17.17,0,0,0,.09.22,1.17,1.17,0,0,1,.28.17.72.72,0,0,0,.12.21.41.41,0,0,0,.2.14.7.7,0,0,1,.21.31q0,.13.21.15a1.6,1.6,0,0,0,.17.28.76.76,0,0,1,.17.18.16.16,0,0,0,0,.09c.07.11.12.18.15.19s0,0,0,.07.12.18.18.28a1,1,0,0,1,.14.33l.13.13.16.13a.23.23,0,0,0,0,.13.23.23,0,0,1,0,.13,4.11,4.11,0,0,0,.29.31.82.82,0,0,1,.21.39.36.36,0,0,1,.11.1.29.29,0,0,0,.13.08,1.28,1.28,0,0,0,.21.38,2.42,2.42,0,0,1,.27.36,1.28,1.28,0,0,0,.2.22,1.07,1.07,0,0,1,.15.22,1.88,1.88,0,0,0,.16.23c.07.12.12.22.16.3a.31.31,0,0,0,.16.16.38.38,0,0,0,.08.17s.05.09,0,.18l.18.1a.85.85,0,0,0,.19.1l.08.29A.43.43,0,0,1,227,318.53ZM244.43,303a1.17,1.17,0,0,1-.12.6,2.22,2.22,0,0,1-.07.85,4.92,4.92,0,0,0-.17.85,3,3,0,0,0,0,.42,1.44,1.44,0,0,1,0,.41,2.25,2.25,0,0,0-.06.4,3.71,3.71,0,0,1,0,.47,1.61,1.61,0,0,1-.06.33,2.72,2.72,0,0,0-.07.33c0,.13,0,.25,0,.37s0,.23,0,.35a8,8,0,0,0-.05.82c0,.25,0,.5,0,.75l0,.52c0,.18,0,.34,0,.5s0,.37,0,.54,0,.33,0,.49a1,1,0,0,0,0,.25,2.71,2.71,0,0,0,0,.29.47.47,0,0,0,0,.17.54.54,0,0,1,0,.18,1.12,1.12,0,0,1,0,.2l-.07.2a3.1,3.1,0,0,0-.05.54,3.72,3.72,0,0,1-.08.57s0,.09,0,.15a.71.71,0,0,0-.08.18c0,.27,0,.55-.05.84s0,.54-.06.77,0,.34,0,.52a2.73,2.73,0,0,1,0,.57,1.27,1.27,0,0,1-.06.18,1.72,1.72,0,0,0-.09.19.94.94,0,0,0,0,.34c0,.12,0,.27,0,.43a1,1,0,0,1,0,.26.5.5,0,0,1-.09.25l-.13.21h-.37a.7.7,0,0,0-.33,0,1,1,0,0,0-.25-.14.77.77,0,0,1-.23-.19.71.71,0,0,0-.16-.21.28.28,0,0,1-.1-.09l-.24-.27a.27.27,0,0,1-.06-.17.21.21,0,0,1-.12,0l-.1-.08a.17.17,0,0,0-.11-.12.53.53,0,0,1-.15-.08.23.23,0,0,1-.06-.14q0-.09-.18,0a.14.14,0,0,0-.05-.12s0-.07,0-.14l-.17-.07a.64.64,0,0,1-.18-.06.77.77,0,0,1-.12-.13,1.51,1.51,0,0,0-.12-.2l-.14-.12-.12-.12c-.09-.07-.13-.12-.13-.14a.2.2,0,0,0,0-.08l-.19-.15a.76.76,0,0,0-.16-.11,1.28,1.28,0,0,0-.11-.2.4.4,0,0,0-.18-.13.58.58,0,0,1-.05-.16.23.23,0,0,0-.06-.12c-.05-.06-.09-.1-.09-.13a.36.36,0,0,0,0-.09,1.76,1.76,0,0,1-.2-.27L238,315l-.16-.17-.06-.07a.85.85,0,0,1-.09-.24.67.67,0,0,0-.09-.26.35.35,0,0,0-.14-.16.74.74,0,0,1-.16-.19l-.1-.15a.35.35,0,0,0-.14-.13c-.09-.09-.15-.14-.19-.14a.18.18,0,0,1-.09-.06,1.58,1.58,0,0,1-.14-.23,1,1,0,0,0-.08-.18.81.81,0,0,1-.16-.2.53.53,0,0,0-.08-.15,1.72,1.72,0,0,0-.33-.33.57.57,0,0,1-.22-.37,2.44,2.44,0,0,1-.23-.22l-.2-.24a.49.49,0,0,0-.21-.22.23.23,0,0,1-.14-.06.29.29,0,0,0-.17-.2.27.27,0,0,1-.16-.17.14.14,0,0,1-.12,0,.39.39,0,0,1-.1-.08l-.22-.11a.35.35,0,0,1-.07-.12c0-.05,0-.1-.08-.14a.63.63,0,0,0-.13-.11l-.11-.11a3.16,3.16,0,0,1-.16-.31.32.32,0,0,0-.19-.15.57.57,0,0,0-.08-.25,1.57,1.57,0,0,0-.12-.21l-.18-.24-.1-.11c-.07-.07-.1-.12-.1-.16s0-.06,0-.08a1.93,1.93,0,0,1-.17-.24l-.09-.13a2.75,2.75,0,0,0-.17-.24l-.11-.11a14,14,0,0,0-.28,2.21c0,.77-.07,1.58-.09,2.44a2.93,2.93,0,0,0,0,.41,2.34,2.34,0,0,1,0,.46.51.51,0,0,1,0,.13.15.15,0,0,0,0,.13,1.57,1.57,0,0,0,0,.32,3.63,3.63,0,0,1,0,.38v.48c0,.21,0,.41,0,.61a2.42,2.42,0,0,0,.05.47c0,.16,0,.31.08.47s.07.3.11.45a1.16,1.16,0,0,1,.05.45.65.65,0,0,1-.08.31.44.44,0,0,0,0,.32,1,1,0,0,0-.19.23.37.37,0,0,1-.21.16.45.45,0,0,1-.2,0l-.21-.07a.23.23,0,0,1-.2,0l-.06,0a1.22,1.22,0,0,0-.32,0,.33.33,0,0,1-.31-.08.28.28,0,0,0-.13,0l-.14,0-.21,0a.35.35,0,0,0-.22,0h-.21a1,1,0,0,1-.29,0,1,1,0,0,1-.16-.22l-.13-.39a1.4,1.4,0,0,1-.06-.24.23.23,0,0,1,0-.11.69.69,0,0,0,0-.13.81.81,0,0,0,0-.16.53.53,0,0,1,0-.13,1,1,0,0,1,0-.17.65.65,0,0,0,0-.2,2.42,2.42,0,0,0,0-.37c0-.13,0-.28,0-.44s0-.08,0-.12a.41.41,0,0,1,0-.12,3.52,3.52,0,0,1,.09-.64,2.13,2.13,0,0,0,0-.73.57.57,0,0,0,0-.22.78.78,0,0,1,0-.22,2.22,2.22,0,0,1,0-.37c0-.11,0-.23.06-.35a.16.16,0,0,0,0-.13.2.2,0,0,1,0-.11.24.24,0,0,1,0-.13.54.54,0,0,0,.07-.13,1.48,1.48,0,0,1,0-.46c0-.17.05-.38.07-.63a1.36,1.36,0,0,1,0-.51,1.47,1.47,0,0,0,.07-.38,1.55,1.55,0,0,1,0-.33c0-.09,0-.17,0-.24v-.26a.62.62,0,0,0,0-.33.55.55,0,0,1,0-.17.46.46,0,0,0,0-.23.85.85,0,0,0,0-.23.22.22,0,0,0,0-.15.49.49,0,0,0-.05-.18,5.35,5.35,0,0,1,.05-.78,1.57,1.57,0,0,0,0-.57.42.42,0,0,0,0-.17.83.83,0,0,1,0-.12.88.88,0,0,1,0-.34.81.81,0,0,0,0-.2.28.28,0,0,0,0-.18.84.84,0,0,1-.05-.17.45.45,0,0,1,0-.17.13.13,0,0,0-.06-.18.73.73,0,0,0,0-.29.39.39,0,0,1,0-.15.39.39,0,0,0,0-.2.11.11,0,0,1,0-.08.25.25,0,0,0,0-.16.2.2,0,0,1,0-.1l0-.18a.9.9,0,0,0,0-.19.39.39,0,0,0,0-.15,1,1,0,0,1,0-.16c0-.1,0-.19,0-.28s0-.17.05-.24a.45.45,0,0,0,0-.16.37.37,0,0,1,0-.15,1.63,1.63,0,0,0,0-.48.85.85,0,0,1,0-.32.45.45,0,0,1,.32-.25.43.43,0,0,1,.45.09l.38.07c.11,0,.16.12.16.28a.19.19,0,0,1,.17.09.29.29,0,0,0,.14.13,1.3,1.3,0,0,1,.35.22,2.37,2.37,0,0,0,.25.24.71.71,0,0,1,.12.13,1.08,1.08,0,0,1,.12.2.06.06,0,0,0,.05.06l.12.14.14.19.24.25a1.55,1.55,0,0,1,.24.27.67.67,0,0,1,.11.14.61.61,0,0,0,.13.15,4.26,4.26,0,0,1,.32.38l.34.42a1.93,1.93,0,0,0,.13.21.41.41,0,0,0,.2.16.51.51,0,0,0,.26.38,1,1,0,0,0,.19.34,2.1,2.1,0,0,1,.22.33,2.17,2.17,0,0,1,.26.27l.24.3a.31.31,0,0,1,.08.11.38.38,0,0,0,.1.13.4.4,0,0,1,.12.18c0,.06,0,.1,0,.12a1,1,0,0,0,.1.17.86.86,0,0,1,.1.16,3.26,3.26,0,0,1,.35.57,4,4,0,0,0,.24.46,2,2,0,0,1,.19.28,1.36,1.36,0,0,1,.11.2l.27.28.2.25.21.25a1.08,1.08,0,0,1,.12.2.28.28,0,0,1,0,.09c.1.07.15.12.15.14s0,0,.05,0a3.9,3.9,0,0,0,.43.54c.18.18.35.35.53.51a2,2,0,0,0,.26.24,1.11,1.11,0,0,1,.24.28,1.17,1.17,0,0,0,.12.21.22.22,0,0,1,.05.08,3.59,3.59,0,0,0,.32.38,1.69,1.69,0,0,0,.43.31c0-.1,0-.2,0-.29v-.45a.19.19,0,0,1,.08-.15c0-.09-.05-.2-.08-.34a.5.5,0,0,1,.06-.38.59.59,0,0,1,0-.29.49.49,0,0,0,0-.17.52.52,0,0,0,0-.14.3.3,0,0,1,0-.14.88.88,0,0,1,0-.36,2.52,2.52,0,0,0,.06-.41v-.77a3,3,0,0,1,.07-.71.3.3,0,0,1,0-.13l.07-.13a.48.48,0,0,1,0-.25.5.5,0,0,0,0-.19c0-.1,0-.2,0-.3a1.45,1.45,0,0,1,0-.42.91.91,0,0,1,0-.38,2.38,2.38,0,0,0,.07-.31.46.46,0,0,1,0-.23,1,1,0,0,0,0-.23s0-.09,0-.14a1,1,0,0,1,0-.17.76.76,0,0,1,0-.27,1,1,0,0,0,.06-.25c0-.1,0-.2,0-.3a.74.74,0,0,1,.06-.31l-.07-.16a1.2,1.2,0,0,0-.06-.17,1.63,1.63,0,0,0,.07-.64,3.42,3.42,0,0,1,0-.71.41.41,0,0,1,0-.22.29.29,0,0,0,0-.09.35.35,0,0,0-.05-.18.25.25,0,0,1,0-.17,1.62,1.62,0,0,1,.17-.23.42.42,0,0,1,.22-.16.41.41,0,0,1,.22,0,.49.49,0,0,0,.22.06,1.54,1.54,0,0,0,.51-.06l.52-.12a1.41,1.41,0,0,1,.51,0,2,2,0,0,0,.6,0c.19,0,.36.07.52.11l.22.07a.19.19,0,0,1,.15.11C244.44,302.53,244.44,302.74,244.43,303Zm30.27,14.43-.28.18a.35.35,0,0,1-.22,0,.18.18,0,0,1-.1-.14.16.16,0,0,0-.09-.14.37.37,0,0,0-.21,0l-.17.05-.28.07c-.09,0-.14.06-.17.05a.14.14,0,0,0-.09,0,2.41,2.41,0,0,1-.38.14.3.3,0,0,1-.23,0,.66.66,0,0,1-.2.07,2.44,2.44,0,0,0-.26.06l-.35.07a2.06,2.06,0,0,1-.42,0,1.61,1.61,0,0,1-.39,0,.27.27,0,0,1-.21-.17,2.57,2.57,0,0,0-.06-.28.23.23,0,0,1,0-.18c0-.1,0-.16.1-.17s.11,0,.12-.12,0-.25-.07-.4a.4.4,0,0,1,.07-.34l-.07-.15a1.13,1.13,0,0,0,0-.15,2.73,2.73,0,0,0,.16-.58,2.3,2.3,0,0,0,0-.54c0-.07,0-.13-.05-.19a1.23,1.23,0,0,1,0-.2,1.26,1.26,0,0,1,0-.27,2.09,2.09,0,0,0,0-.25c0-.21,0-.42,0-.65s0-.44,0-.66,0-.2,0-.3a2.44,2.44,0,0,1,0-.27c0-.12,0-.25.07-.41s.05-.32.07-.48a.52.52,0,0,0,0-.11s0-.09,0-.13a.28.28,0,0,1,0-.13.2.2,0,0,0,0-.11,2.56,2.56,0,0,0,0-.39c0-.12,0-.24,0-.36s0-.25,0-.38,0-.25,0-.4a.44.44,0,0,0,0-.15,1.05,1.05,0,0,1,0-.13,1.31,1.31,0,0,1,.05-.15.29.29,0,0,0,0-.16.57.57,0,0,1,0-.14.27.27,0,0,0,0-.14.1.1,0,0,0-.12,0,1.13,1.13,0,0,0-.1.13.67.67,0,0,0-.08.17.6.6,0,0,1-.08.16.31.31,0,0,1-.13.15l-.15.13a.66.66,0,0,1-.2.21.27.27,0,0,0-.1.08.85.85,0,0,1-.15.3l-.18.26a1,1,0,0,0-.08.14c0,.06,0,.1-.07.15a.34.34,0,0,0-.12.12.62.62,0,0,0-.08.12,1,1,0,0,1-.21.29,1.46,1.46,0,0,0-.16.21.82.82,0,0,0-.12.21.24.24,0,0,1,0,.07.63.63,0,0,1-.1.12.22.22,0,0,0-.06.17.14.14,0,0,0-.12.09.87.87,0,0,0-.05.19.12.12,0,0,0-.1.11c0,.06-.05.08-.14.06s-.06.09-.05.12,0,.07-.06.1a.51.51,0,0,0-.15.21.41.41,0,0,0,0,.16l-.1.08-.11.05a.35.35,0,0,1-.07.23l-.15.17a.51.51,0,0,1-.14.15.22.22,0,0,0-.1.09.67.67,0,0,0-.12.17l0,.09a.8.8,0,0,0-.16.15.24.24,0,0,1-.06.09l-.11.1a1.35,1.35,0,0,0-.11.09l-.11.17a1.29,1.29,0,0,1-.13.18.73.73,0,0,0-.19.2,1.43,1.43,0,0,1-.16.24l-.23.28a1.77,1.77,0,0,1-.16.22l-.21.21a1,1,0,0,0-.18.25,1.31,1.31,0,0,0-.16.31,1.28,1.28,0,0,1-.11.24l-.08.08-.09.09a3.37,3.37,0,0,0-.31.46,1.11,1.11,0,0,1-.37.41.42.42,0,0,1-.18.37.26.26,0,0,1-.36,0,1.23,1.23,0,0,1-.19-.17,1.06,1.06,0,0,1-.16-.22,1.72,1.72,0,0,1-.07-.21,1.15,1.15,0,0,0-.06-.21l-.22-.21a2.56,2.56,0,0,1-.09-.29.5.5,0,0,1-.18-.18c0-.05,0-.09-.06-.12a3.53,3.53,0,0,0-.19-.42c0-.06-.08-.16-.14-.3a.73.73,0,0,0-.1-.19.23.23,0,0,1-.07-.07,1.44,1.44,0,0,1,0-.24l-.09-.16-.09-.13a.24.24,0,0,1,0-.16.35.35,0,0,0,0-.19l-.08-.1a.24.24,0,0,1-.07-.12c0-.13-.06-.21-.07-.26a.19.19,0,0,0,0-.08c0-.34-.09-.55-.22-.64a1.16,1.16,0,0,0-.06-.22c0-.05,0-.13-.07-.24a2,2,0,0,1-.12-.37l-.12-.39a.62.62,0,0,1-.24-.35,1.44,1.44,0,0,0-.2-.39.52.52,0,0,0,0-.11.24.24,0,0,1,0-.17.31.31,0,0,0-.09-.18.58.58,0,0,1-.11-.15.16.16,0,0,1,0-.12.59.59,0,0,0,0-.14,2.54,2.54,0,0,1-.17-.37.4.4,0,0,0-.14-.22.24.24,0,0,0,0-.23.24.24,0,0,0-.15-.16.2.2,0,0,0,0,.25.78.78,0,0,1,.06.31.28.28,0,0,1,0,.14,1.08,1.08,0,0,0,0,.17.9.9,0,0,0,0,.24,1.22,1.22,0,0,1,0,.26l0,.25a1.85,1.85,0,0,0,0,.23,2.26,2.26,0,0,1,0,.37c0,.13,0,.23,0,.31a1.11,1.11,0,0,1-.07.16.29.29,0,0,0,0,.16.4.4,0,0,0,0,.19c0,.06,0,.13,0,.18a1.24,1.24,0,0,1,0,.16.28.28,0,0,1,0,.13.66.66,0,0,1,0,.23.89.89,0,0,0,0,.29c0,.09,0,.17,0,.25a.27.27,0,0,1-.09.23.18.18,0,0,0,.07.1s.05.07,0,.14a.28.28,0,0,1,0,.15l-.07.09a.42.42,0,0,1,0,.2.19.19,0,0,1-.08.15,1,1,0,0,1,.05.52,2,2,0,0,0,0,.34.27.27,0,0,1-.09.25,3.34,3.34,0,0,1,0,.59,6,6,0,0,1,0,.72.79.79,0,0,0,.06.38.35.35,0,0,1,.07.21,1.18,1.18,0,0,1-.12.28.79.79,0,0,1-.21.24,1.49,1.49,0,0,1-.47-.07,1.69,1.69,0,0,0-.53-.08l-.82,0a8.13,8.13,0,0,1-.84,0l-.25-.06a.44.44,0,0,1-.19-.1,1.69,1.69,0,0,0-.24-.19.57.57,0,0,1-.11-.11,1.33,1.33,0,0,1,.2-.63,3.84,3.84,0,0,1,.09-.83,1.67,1.67,0,0,0,.06-.35,1.12,1.12,0,0,1,0-.2.24.24,0,0,1,0-.12,1.21,1.21,0,0,0,.05-.14c0-.09,0-.14,0-.16a.24.24,0,0,1,0-.08.56.56,0,0,0,0-.12l0-.12a5.22,5.22,0,0,0,0-.67,2.41,2.41,0,0,1,.09-.64,1.55,1.55,0,0,0,0-.15.32.32,0,0,1,.07-.13,1.29,1.29,0,0,1,0-.48,1.79,1.79,0,0,1,.13-.46,1,1,0,0,0,0-.44,1.79,1.79,0,0,1,0-.52,1.16,1.16,0,0,1,.06-.15.78.78,0,0,0,.05-.14.49.49,0,0,0,0-.25.29.29,0,0,1,.1-.23.14.14,0,0,1,0-.19A.38.38,0,0,0,257,310a.79.79,0,0,0,0-.28.24.24,0,0,1,0-.13.41.41,0,0,1,.1-.16.26.26,0,0,0,.07-.19,1.6,1.6,0,0,1,0-.31c0-.09,0-.18.05-.28s0-.29,0-.46.05-.36.08-.57a.76.76,0,0,1,0-.32,1.18,1.18,0,0,0,.07-.2.25.25,0,0,1,0-.19l.05-.16c.06-.31.11-.6.15-.88s.11-.58.18-.89a.51.51,0,0,1,0-.22.11.11,0,0,0,0-.08.34.34,0,0,0,0-.14.89.89,0,0,1,0-.15l.07-.13a.19.19,0,0,0,0-.11.86.86,0,0,0,0-.32,1,1,0,0,1,0-.33.71.71,0,0,1,0-.14s0-.09,0-.12a5.3,5.3,0,0,0,.13-.61c0-.15,0-.32,0-.51a1.93,1.93,0,0,0,0-.24,1.19,1.19,0,0,1,0-.26.34.34,0,0,1,.31-.2.9.9,0,0,1,.3.05.76.76,0,0,0,.12.19.29.29,0,0,1,.08.22l.09.1.08.12a.69.69,0,0,0,0,.22,1.08,1.08,0,0,0,.06.2,2.27,2.27,0,0,0,.13.3,2,2,0,0,1,.13.33.51.51,0,0,1,.05.17.34.34,0,0,0,0,.14.77.77,0,0,0,.1.18,1.29,1.29,0,0,1,.09.16.3.3,0,0,1,.05.16.39.39,0,0,0,0,.13.65.65,0,0,1,0,.18.17.17,0,0,0,0,.1c0,.07.05.14.07.21l.08.21q0,.11.09.24a2.25,2.25,0,0,0,.08.24,1.14,1.14,0,0,0,.1.19,1.24,1.24,0,0,1,.1.2c.07.14.14.29.2.44a4,4,0,0,0,.19.43,2.35,2.35,0,0,1,.11.35,1.66,1.66,0,0,0,.13.35,3.9,3.9,0,0,1,.41,1,2.6,2.6,0,0,0,.36.81,2.82,2.82,0,0,0,.14.64c.06.21.13.41.2.6a.69.69,0,0,0,.15.4.33.33,0,0,1,.05.3.27.27,0,0,0,.13.13.27.27,0,0,1,.13.13,1.56,1.56,0,0,0,.2.64,1.61,1.61,0,0,1,.2.63l.09.14a.68.68,0,0,0,.12.12.69.69,0,0,0,0,.24l.08.22c0,.07.07.14.1.2a.28.28,0,0,0,.19.14.37.37,0,0,0,.12-.2c0-.08.05-.16.07-.23A.58.58,0,0,1,264,313a.41.41,0,0,1,.06-.11c.06-.13.12-.28.18-.44l.13-.26.09-.11a1.2,1.2,0,0,1,.16-.25.35.35,0,0,0,.08-.1,1.2,1.2,0,0,1,.12-.23,1.1,1.1,0,0,0,.09-.14.64.64,0,0,0,.12-.14l.08-.1.18-.24a.54.54,0,0,1,.1-.23.08.08,0,0,0,.07-.05,2.9,2.9,0,0,0,.21-.34,2.11,2.11,0,0,1,.18-.27l.19-.24a1.21,1.21,0,0,1,.21-.24l.14-.15.14-.16a.6.6,0,0,0,.21-.21,2.11,2.11,0,0,1,.18-.27l.15-.15a.59.59,0,0,0,.13-.17,3.27,3.27,0,0,1,.3-.35,1.51,1.51,0,0,0,.27-.42l.13-.17a1.37,1.37,0,0,0,.13-.2.7.7,0,0,0,.25-.31.55.55,0,0,1,.32-.28,8.76,8.76,0,0,1,.44-.85.5.5,0,0,0,.15-.17.65.65,0,0,0,0-.11.55.55,0,0,0,.27-.29.72.72,0,0,1,.3-.3.88.88,0,0,1,.3-.38,1.11,1.11,0,0,0,.33-.38.9.9,0,0,0,.1-.18.41.41,0,0,1,.05-.09l.07-.11a.45.45,0,0,1,.09-.1,3.4,3.4,0,0,0,.18-.3,1.1,1.1,0,0,1,.23-.27.15.15,0,0,0,0-.14.16.16,0,0,1,0-.12l.11-.12.13-.15c.16-.13.27-.23.34-.3a.71.71,0,0,1,.27-.18h.21a.35.35,0,0,1,.21.1.25.25,0,0,1,.06.21.67.67,0,0,0,0,.27l.06.21c0,.06,0,.15.07.25l.2.92a2.11,2.11,0,0,1,0,.26.6.6,0,0,0,.05.24,1.32,1.32,0,0,0,.08.33.9.9,0,0,1,.09.32,2,2,0,0,1,0,.34.35.35,0,0,0,.08.27.46.46,0,0,0-.05.23.56.56,0,0,1,.05.08,2.32,2.32,0,0,1,.07.52c0,.18,0,.35,0,.53a.83.83,0,0,1,0,.12.74.74,0,0,1,0,.12c0,.07,0,.12,0,.15a.29.29,0,0,0,0,.09,1.11,1.11,0,0,0,.07.16.53.53,0,0,1,.06.14.2.2,0,0,1,0,.13.2.2,0,0,0,0,.13,1.88,1.88,0,0,1,.07.37,1.5,1.5,0,0,0,0,.24,1.65,1.65,0,0,1,.06.33v.13l.1.39a.81.81,0,0,1,0,.46c0,.06,0,.1,0,.12a.18.18,0,0,1,.08.12s0,.09,0,.17,0,.11,0,.09-.08.14,0,.27a.79.79,0,0,1,.09.3,4.19,4.19,0,0,0,.08.86,1.71,1.71,0,0,1,0,.71.37.37,0,0,1,.1.26,1.26,1.26,0,0,0,.05.33,2.93,2.93,0,0,1,.1.71,2.24,2.24,0,0,0,.05.58s0,.06.06.1a.33.33,0,0,1,.05.12,1.19,1.19,0,0,1,0,.39.8.8,0,0,0,.08.39c0,.18.05.33.06.47a3.25,3.25,0,0,0,.07.38l.15.2a.68.68,0,0,1,.08.36A.65.65,0,0,1,274.7,317.44Zm19.43-5.53a8.58,8.58,0,0,1-.21.84.59.59,0,0,0,0,.13.18.18,0,0,1,0,.11.31.31,0,0,1-.08.13.56.56,0,0,0-.07.13,1.66,1.66,0,0,0-.06.46.77.77,0,0,1-.07.39,1.82,1.82,0,0,1-.16.22.94.94,0,0,0-.08.15c-.08.12-.13.22-.18.3a.34.34,0,0,1-.15.16.44.44,0,0,1,0,.1.17.17,0,0,0,0,.14.64.64,0,0,0-.23.32,1.12,1.12,0,0,1-.21.36,1.13,1.13,0,0,0-.16.21.34.34,0,0,1-.08.09.38.38,0,0,1-.13.1.57.57,0,0,0-.13.1,2,2,0,0,1-.31.33.56.56,0,0,0-.17.26.64.64,0,0,0-.22.11.81.81,0,0,0-.19.18s0,.07-.07.08a.59.59,0,0,1-.22.13.32.32,0,0,0-.13.07,1.41,1.41,0,0,1-.35.2,1.63,1.63,0,0,0-.35.23,1.32,1.32,0,0,0-.31.19.66.66,0,0,1-.17.12.92.92,0,0,1-.23.09.19.19,0,0,0-.16.15,4.31,4.31,0,0,0-.45.16,1.12,1.12,0,0,1-.4.1.93.93,0,0,1-.4.19,3,3,0,0,1-.54.09H287a1.21,1.21,0,0,0-.25.08.48.48,0,0,1-.23.05.18.18,0,0,1-.16,0l-.18-.09-.4.06-.28,0a.62.62,0,0,1-.27,0l-.25,0s-.1,0-.21,0a.43.43,0,0,1-.21-.08.24.24,0,0,1-.3,0,2.58,2.58,0,0,0-.31-.13,1.24,1.24,0,0,0-.42,0,.54.54,0,0,1-.39-.14.92.92,0,0,1-.72-.26,2.73,2.73,0,0,1-.39-.11l-.2-.11a.4.4,0,0,0-.15-.12.57.57,0,0,1-.13-.1.64.64,0,0,0-.16-.11.23.23,0,0,1-.1-.07,1,1,0,0,1-.12-.15.51.51,0,0,0-.12-.13.38.38,0,0,1-.19-.05,1.31,1.31,0,0,1-.18-.17l-.25-.2a.56.56,0,0,1-.19-.26l-.26-.08a.5.5,0,0,1-.2-.13l-.28-.29a.87.87,0,0,1-.17-.22,2,2,0,0,0-.18-.31.67.67,0,0,0-.15-.14l-.29-.4-.17-.26a.37.37,0,0,1-.13-.15,1.08,1.08,0,0,1-.08-.19,1.42,1.42,0,0,0-.08-.18.37.37,0,0,0-.15-.13.42.42,0,0,0-.07-.32,1.24,1.24,0,0,1-.17-.27.85.85,0,0,1-.05-.24c0-.09,0-.18,0-.29l-.09-.14a.29.29,0,0,1,0-.16.45.45,0,0,0,0-.24l0-.15a.7.7,0,0,1,0-.2.47.47,0,0,0,0-.17l-.07-.33c0-.05,0-.1,0-.17a.12.12,0,0,0-.07-.14,1.53,1.53,0,0,0,0-.3.62.62,0,0,1,0-.23.13.13,0,0,0,0-.06.76.76,0,0,1,0-.3,1,1,0,0,0,0-.33.17.17,0,0,1,0-.17.61.61,0,0,0,0-.24c0-.16-.05-.29-.06-.37a1.41,1.41,0,0,1,0-.22.24.24,0,0,1,0-.15.41.41,0,0,0,0-.16.67.67,0,0,1,0-.29.74.74,0,0,0,0-.12l0-.13a.26.26,0,0,1,0-.11.93.93,0,0,1,0-.23c0-.08,0-.16,0-.23a.78.78,0,0,0,0-.26.48.48,0,0,1,0-.22,2.66,2.66,0,0,0,.25-.45c.05-.12.1-.23.14-.34a2.39,2.39,0,0,0,.14-.43.66.66,0,0,1,.23-.35.85.85,0,0,1,.08-.28l.1-.24a1.58,1.58,0,0,1,.16-.29.55.55,0,0,0,.1-.17,1.28,1.28,0,0,0,.13-.28.84.84,0,0,1,0-.14,1.25,1.25,0,0,0,.25-.31l.12-.25a.66.66,0,0,0,.35-.35.24.24,0,0,0,.18-.12c0-.07.1-.09.22-.08a.3.3,0,0,1,.19-.17c0-.06.06-.1.1-.11a.28.28,0,0,0,.1-.09.68.68,0,0,0,.29-.11,1.65,1.65,0,0,1,.25-.15.94.94,0,0,1,.28-.1.85.85,0,0,0,.29-.14.59.59,0,0,0,.31,0,.85.85,0,0,0,.21-.14.51.51,0,0,0,.3,0l.25-.08a4.38,4.38,0,0,1,.43-.14,4.26,4.26,0,0,1,.49-.1l.33-.08a2.19,2.19,0,0,0,.34-.1l.22-.06.09,0h.24a.43.43,0,0,0,.22.06H285a1.43,1.43,0,0,0,.31.06,2.55,2.55,0,0,0,.57.13.52.52,0,0,1,.32.16.69.69,0,0,1,.36-.05,2.62,2.62,0,0,0,.38,0,.19.19,0,0,1,.16.07.24.24,0,0,0,.11.09,1.44,1.44,0,0,1,.43.06.52.52,0,0,0,.24.06.18.18,0,0,1,.13,0l.15.05.12.06.36.1a.43.43,0,0,1,.27.2.12.12,0,0,0,.11-.05s.06,0,.13,0a1.17,1.17,0,0,0,.4.11,1.48,1.48,0,0,1,.45.11,1.2,1.2,0,0,1,.25.16l.1.08.21.07a.19.19,0,0,1,.12.14.34.34,0,0,1,.18,0l.14.07a1.08,1.08,0,0,1,.2.16l.2.17a.45.45,0,0,0,.2.17l.12.05a1.16,1.16,0,0,1,.11.16l.09.14a.45.45,0,0,1,.26.11.55.55,0,0,0,.24.13,1.3,1.3,0,0,0,.26.31,1.45,1.45,0,0,1,.19.25l.07.14a.46.46,0,0,1,.07.14.77.77,0,0,0,.07.17l.17.27a.58.58,0,0,1,.07.4.38.38,0,0,1,.15.2,1.05,1.05,0,0,0,.13.26.66.66,0,0,1,.11.25.37.37,0,0,0,0,.12c0,.08.05.16.08.26s0,.21.05.31a.24.24,0,0,1,0,.17.33.33,0,0,0,0,.14,2.34,2.34,0,0,0,.12.4,2.09,2.09,0,0,0,.19.36,2.6,2.6,0,0,0,0,.48,4.62,4.62,0,0,1,0,.5,2.49,2.49,0,0,0,0,.6,5,5,0,0,1-.07,1.57Zm13.93,6.62a.65.65,0,0,1-.28.26.9.9,0,0,0-.23.15.19.19,0,0,1-.1.05.38.38,0,0,1-.35-.06,1.57,1.57,0,0,1-.55.06,1.67,1.67,0,0,0-.5,0,.38.38,0,0,0-.17.08.56.56,0,0,1-.15.1.5.5,0,0,1-.23,0h-.23a.43.43,0,0,1-.14-.16,2,2,0,0,1-.1-.21,1.06,1.06,0,0,1-.26-.26.36.36,0,0,1-.08-.12.36.36,0,0,0-.08-.12,2.36,2.36,0,0,1-.24-.38c-.05-.13-.1-.23-.13-.32a1.15,1.15,0,0,0-.14-.17,1.43,1.43,0,0,1-.14-.2l-.15-.19a.68.68,0,0,1-.13-.18.37.37,0,0,1-.05-.17.34.34,0,0,0,0-.16,1,1,0,0,0-.16-.24.45.45,0,0,1-.12-.28,1.54,1.54,0,0,1-.17-.19.48.48,0,0,0-.23-.14.51.51,0,0,0-.14-.25.88.88,0,0,1-.16-.27,1.41,1.41,0,0,1-.13-.29.35.35,0,0,1-.06-.14.34.34,0,0,0-.05-.14.66.66,0,0,0-.19-.18.34.34,0,0,1-.16-.24.25.25,0,0,1-.23-.09.25.25,0,0,0-.21-.12,1.56,1.56,0,0,0-.27-.4,1.58,1.58,0,0,1-.29-.41,2,2,0,0,1-.55-.39,2.48,2.48,0,0,0-.57-.42.47.47,0,0,0-.39-.24.54.54,0,0,0-.09.36,1.13,1.13,0,0,1,0,.41,2.33,2.33,0,0,1-.08.46,2,2,0,0,1-.12.41c0,.07,0,.12,0,.14s0,.07,0,.14a.88.88,0,0,1,0,.15.28.28,0,0,0,0,.18.42.42,0,0,0,.06.21.47.47,0,0,1,.05.25.92.92,0,0,1,0,.39c0,.16-.06.3-.08.41a1.25,1.25,0,0,1,0,.22.29.29,0,0,0,0,.09v.31a1.42,1.42,0,0,1,0,.28.79.79,0,0,1,0,.36,1.12,1.12,0,0,0-.06.23c0,.1,0,.16,0,.17a.08.08,0,0,0,0,.07.3.3,0,0,0,0,.13.2.2,0,0,1,0,.11,1.38,1.38,0,0,1-.08.37.64.64,0,0,0,0,.37,1.65,1.65,0,0,0,.07.21.17.17,0,0,1,0,.1.46.46,0,0,1-.16.26.33.33,0,0,0-.13.24,1.2,1.2,0,0,0-.47,0,.51.51,0,0,1-.4,0,2.61,2.61,0,0,1-.37.08,1.54,1.54,0,0,1-.42,0,.73.73,0,0,0-.31-.05.1.1,0,0,1-.12,0,7,7,0,0,0-.11-.72.53.53,0,0,1,.11-.5.59.59,0,0,0,0-.13.19.19,0,0,1,0-.15.89.89,0,0,0,0-.35.81.81,0,0,1,0-.2.52.52,0,0,1,.06-.15.35.35,0,0,0,0-.13.45.45,0,0,0,0-.23.74.74,0,0,1-.05-.25,1,1,0,0,1,0-.24,2.32,2.32,0,0,0,0-.24.53.53,0,0,0-.06-.24.3.3,0,0,1,0-.27.59.59,0,0,0,0-.26c0-.11,0-.23,0-.35a1.15,1.15,0,0,1,0-.19l0-.2a2,2,0,0,0,0-.25,1.85,1.85,0,0,1,0-.23.74.74,0,0,1,0-.12.13.13,0,0,0,0-.12.88.88,0,0,1,0-.3,1.36,1.36,0,0,0,0-.18.87.87,0,0,0,0-.23,1.26,1.26,0,0,1,0-.27,1.1,1.1,0,0,0,0-.18.31.31,0,0,1,0-.19,1.06,1.06,0,0,0,0-.26l0-.13a.34.34,0,0,1,0-.14.61.61,0,0,0,0-.15,3,3,0,0,0,0-.39,2.08,2.08,0,0,1-.05-.39c0-.29,0-.45,0-.48a1.08,1.08,0,0,0,.06-.2c0-.06,0-.12.05-.2s0-.2,0-.3a1.08,1.08,0,0,1,0-.39l0-.11a.35.35,0,0,0,0-.13.55.55,0,0,0,0-.18.6.6,0,0,1,0-.19c0-.14,0-.27,0-.42s0-.29.07-.44a.57.57,0,0,0,0-.28,1,1,0,0,1,0-.15.92.92,0,0,1,0-.29.51.51,0,0,0,0-.3.57.57,0,0,0,0-.12c0-.05,0-.11,0-.19a.78.78,0,0,0,0-.31,1.37,1.37,0,0,1,0-.19c0-.11,0-.18,0-.19a.14.14,0,0,1,0-.07c0-.06,0-.1,0-.12a.29.29,0,0,1,0-.12c0-.12,0-.21,0-.29a1.35,1.35,0,0,0,0-.34c0-.1,0-.16,0-.18s0,0,0-.06a.34.34,0,0,0,0-.16l-.09-.17a.63.63,0,0,0,0-.31,1.93,1.93,0,0,1,0-.34.74.74,0,0,1,0-.12.49.49,0,0,0,0-.12,1.16,1.16,0,0,1-.08-.26,1,1,0,0,0,0-.12c0-.05,0-.11-.07-.17a.34.34,0,0,1,0-.15.48.48,0,0,1,.06-.24l.13-.22.1-.08a.22.22,0,0,1,.14,0l.1-.1.12-.09a.32.32,0,0,1,.28,0,.82.82,0,0,0,.2.12,1.14,1.14,0,0,1,.37,0,2.39,2.39,0,0,0,.44,0,.81.81,0,0,1,.28,0H299a2.41,2.41,0,0,1,.46-.06,1.47,1.47,0,0,1,.31,0,.5.5,0,0,1,.21,0l.07,0a.28.28,0,0,1,.2,0l.17.05.35,0a2.06,2.06,0,0,1,.35,0l.36,0,.36.09.13.06a.56.56,0,0,0,.13.07.7.7,0,0,0,.21,0,.45.45,0,0,1,.23,0,2,2,0,0,1,.47.15,2.54,2.54,0,0,0,.47.14l.24.07a1.34,1.34,0,0,1,.24.12,2.23,2.23,0,0,1,.54.06,1.59,1.59,0,0,1,.42.14l.25.09a.58.58,0,0,1,.23.13l.19.15.18.15a1.06,1.06,0,0,1,.16.17l.08.1a.76.76,0,0,1,.16.17.24.24,0,0,0,.08.09.74.74,0,0,1,.16.12.37.37,0,0,0,.12.07.46.46,0,0,0,.16.27,1.37,1.37,0,0,1,.23.19.82.82,0,0,1,.13.31.25.25,0,0,0,.11.15,2.65,2.65,0,0,1,.13.65.63.63,0,0,0,.2.44.83.83,0,0,0,0,.32l.12.29a.38.38,0,0,0,0,.21.68.68,0,0,1,0,.21.41.41,0,0,1-.05.21.15.15,0,0,0,0,.2c-.06.18-.11.35-.16.54a2,2,0,0,1-.23.51.36.36,0,0,0-.07.1s-.05,0-.13,0a.19.19,0,0,1,0,.19.2.2,0,0,0-.07.16,1.59,1.59,0,0,0-.27.21,1.83,1.83,0,0,0-.21.27.51.51,0,0,1-.12.13l-.16.11-.26.15-.15.09a.41.41,0,0,0-.19.11.16.16,0,0,1-.08.06l-.14.08-.14.08-.19.13-.07,0a3.54,3.54,0,0,1-.43.16,2.06,2.06,0,0,0-.44.23.22.22,0,0,0-.22,0,1.22,1.22,0,0,1-.24.1,1.24,1.24,0,0,1-.3,0c-.08,0-.13,0-.16.16a.16.16,0,0,0,.1.22,1.34,1.34,0,0,1,.27.17.72.72,0,0,0,.12.21.39.39,0,0,0,.21.14.76.76,0,0,1,.2.31.22.22,0,0,0,.21.15,1.26,1.26,0,0,0,.18.28.64.64,0,0,1,.16.18l0,.09c.08.11.13.18.16.19a.1.1,0,0,1,0,.07l.18.28a1,1,0,0,1,.15.33l.13.13a1,1,0,0,0,.15.13.23.23,0,0,0,0,.13.22.22,0,0,1,0,.13,3.92,3.92,0,0,0,.28.31.93.93,0,0,1,.22.39.52.52,0,0,1,.11.1.24.24,0,0,0,.13.08,1.07,1.07,0,0,0,.2.38,3.44,3.44,0,0,1,.28.36,1.18,1.18,0,0,0,.19.22,1.77,1.77,0,0,1,.16.22,1.14,1.14,0,0,0,.15.23,2.31,2.31,0,0,1,.16.3.3.3,0,0,0,.17.16.38.38,0,0,0,.07.17s.05.09,0,.18l.17.1.2.1c0,.11.05.21.07.29A.43.43,0,0,1,308.06,318.53Zm12.73-15.3a.21.21,0,0,1-.16.12c.06.06.07.11,0,.16a.36.36,0,0,0,0,.19,1.93,1.93,0,0,0,0,.48,1.76,1.76,0,0,1,0,.46.75.75,0,0,1-.07.18l-.09.16a2.07,2.07,0,0,1-.08.2.48.48,0,0,1-.09.13.51.51,0,0,1-.44,0,.79.79,0,0,0-.48,0,.41.41,0,0,0-.35-.08.44.44,0,0,1-.37-.11.71.71,0,0,1-.38,0l-.4-.07a.28.28,0,0,0-.13,0h-.13a.83.83,0,0,1-.22-.08.46.46,0,0,0-.22-.06.32.32,0,0,0-.19,0,.64.64,0,0,1-.2,0h-.37l-.64-.07-.74-.06a4.89,4.89,0,0,0-.66,0,5.78,5.78,0,0,0-.71,0,.68.68,0,0,0-.08.44l.06.47,0,.48,0,.48a.89.89,0,0,1,0,.15.34.34,0,0,0,0,.14,2,2,0,0,0,0,.32c0,.14,0,.26,0,.38a2.13,2.13,0,0,1,0,.27.38.38,0,0,0,0,.25,1.51,1.51,0,0,0,.44.06l.29,0h.28a3.71,3.71,0,0,1,.47,0h1.2a7.59,7.59,0,0,0,.79,0l.38-.05a.52.52,0,0,1,.38.07.62.62,0,0,1,.23,0l.23,0a.27.27,0,0,1,.18,0l.17,0a2.48,2.48,0,0,1,.55,0l.37,0,.21,0a.28.28,0,0,1,.18,0c.07,0,.11,0,.12.07a.88.88,0,0,0,.05.15.74.74,0,0,1,.09.36,3.63,3.63,0,0,1,0,.44.37.37,0,0,1,0,.21.55.55,0,0,0,0,.16,2.26,2.26,0,0,0,0,.52,1.62,1.62,0,0,0,.11.46l-.09.23a.57.57,0,0,1-.13.21.19.19,0,0,0-.15,0,.27.27,0,0,1-.14.05.29.29,0,0,1-.17,0l-.15-.07s-.08,0-.14,0-.1,0-.08-.1a.91.91,0,0,1-.37.14.29.29,0,0,0-.22.1.33.33,0,0,0-.25-.08,1.07,1.07,0,0,0-.27.06,1,1,0,0,0-.23-.06l-.32,0a.32.32,0,0,0-.25,0l-.25.09a.66.66,0,0,0-.39,0,1.6,1.6,0,0,0-.33.11c-.07,0-.12,0-.13-.06s-.06-.07-.13-.05a.37.37,0,0,1-.25.05.24.24,0,0,0-.23.08.31.31,0,0,0-.32-.06.34.34,0,0,1-.34-.07.09.09,0,0,1-.12.05.35.35,0,0,0-.18,0l-.17,0a.41.41,0,0,1-.16,0,.44.44,0,0,1-.25,0,.31.31,0,0,0-.25,0,.18.18,0,0,0-.09.18.49.49,0,0,1,0,.24l0,.13a.3.3,0,0,0,0,.13.41.41,0,0,0,0,.16.32.32,0,0,1,0,.17,1.72,1.72,0,0,1-.05.37c0,.13-.07.26-.1.39a2.36,2.36,0,0,0-.09.55.63.63,0,0,1-.11.35.55.55,0,0,1,.07.24c0,.11,0,.24,0,.37v.64a1,1,0,0,1-.05.29l0,.14a.51.51,0,0,0,0,.13.41.41,0,0,0,0,.24.39.39,0,0,1,0,.26.78.78,0,0,0,.43.09,4.11,4.11,0,0,1,.53,0q.38,0,.75-.06a6.21,6.21,0,0,1,.69-.05,1.07,1.07,0,0,1,.32.05.48.48,0,0,0,.29,0,2.45,2.45,0,0,1,.36-.08,1.65,1.65,0,0,1,.38,0h.39a1.23,1.23,0,0,0,.27,0h.36l.34,0,.16,0a.41.41,0,0,1,.16,0,.57.57,0,0,0,.22,0h.11a.33.33,0,0,0,.17,0l.07,0a.25.25,0,0,0,.22,0,.6.6,0,0,1,.33,0,.21.21,0,0,1,.07.14.19.19,0,0,0,.08.15c0,.07,0,.11,0,.13s.07.05.09.11a5.07,5.07,0,0,1,0,1,9.07,9.07,0,0,0-.09,1.08.26.26,0,0,1-.11.1l-.15.08-.14.08a.34.34,0,0,1-.17.05.35.35,0,0,1-.17,0l-.18-.05-.2,0a.86.86,0,0,1-.23,0,2.48,2.48,0,0,1-.38,0l-.43,0-.45,0a.77.77,0,0,1-.31-.08.16.16,0,0,0-.16,0,.16.16,0,0,1-.15.06,1.41,1.41,0,0,0-.47-.07l-.53,0a1.2,1.2,0,0,0-.38,0,2.63,2.63,0,0,1-.41,0,1.09,1.09,0,0,1-.36,0h-.36a1.37,1.37,0,0,0-.36,0,1.28,1.28,0,0,1-.34,0,.34.34,0,0,1-.18,0,.5.5,0,0,0-.19,0,.36.36,0,0,1-.21,0l-.18,0a2.2,2.2,0,0,0-.37-.06.65.65,0,0,1-.37-.12.19.19,0,0,1-.16,0l-.17,0a.34.34,0,0,1-.17,0h-.11a1.67,1.67,0,0,0-.3.08.41.41,0,0,1-.29,0,.45.45,0,0,1-.18-.2,1,1,0,0,0-.06-.19.84.84,0,0,0-.06-.14.51.51,0,0,1,0-.17.54.54,0,0,1,0-.18.25.25,0,0,0,0-.17.66.66,0,0,0-.06-.2l-.09-.19a1.19,1.19,0,0,0,0-.46,1.49,1.49,0,0,1,0-.48,1,1,0,0,1,0-.28,1,1,0,0,0,0-.15.68.68,0,0,0,0-.14l0-.13q0-.1,0-.12s0,0,0-.12a2.06,2.06,0,0,0-.1-.37.53.53,0,0,1,0-.39.28.28,0,0,0,0-.2.3.3,0,0,1,0-.11.93.93,0,0,1,0-.22c0-.08,0-.17.07-.26a.5.5,0,0,0,0-.18l0-.16c0-.11,0-.17,0-.19a.13.13,0,0,1,0-.1.5.5,0,0,1,0-.17,1.1,1.1,0,0,0,0-.18,1.05,1.05,0,0,1,0-.31.2.2,0,0,0-.08-.23.6.6,0,0,0,.06-.45,1.93,1.93,0,0,1-.06-.49.67.67,0,0,1,0-.2c0-.06,0-.12.05-.19a.88.88,0,0,0,0-.17.41.41,0,0,1,0-.16,1.13,1.13,0,0,0,0-.25v-.27a.34.34,0,0,1,0-.14.51.51,0,0,0,0-.13.49.49,0,0,1,0-.14.55.55,0,0,1,0-.16.31.31,0,0,1,.07-.24,1.59,1.59,0,0,0-.08-.18s0-.1.06-.17-.08-.25-.06-.28a.18.18,0,0,0,0-.13c0-.16,0-.31,0-.43s0-.24,0-.36a.78.78,0,0,1,0-.14.36.36,0,0,0,0-.14.47.47,0,0,0,0-.18.38.38,0,0,1,0-.15,2,2,0,0,0,.11-.58.61.61,0,0,1,.11-.36.92.92,0,0,1-.06-.66,4.13,4.13,0,0,0,.08-.78,2.65,2.65,0,0,0,0-.56,2.59,2.59,0,0,1,0-.62,1,1,0,0,0,0-.39.92.92,0,0,1,0-.26.57.57,0,0,1,0-.22l.09-.22.07-.16a.34.34,0,0,1,.12-.12,6.41,6.41,0,0,0,1.85.07,10.08,10.08,0,0,1,1.73,0l.47.1a3.55,3.55,0,0,0,.47.08,1.09,1.09,0,0,0,.31,0,2.7,2.7,0,0,1,.39-.06.88.88,0,0,0,.29,0h.12a.42.42,0,0,1,.2,0,.6.6,0,0,0,.2,0,1.22,1.22,0,0,0,.32,0l.33,0a1.37,1.37,0,0,0,.28,0h.31a2.4,2.4,0,0,1,.48.06c.19,0,.37.06.54.07h.26l.14.05a2.69,2.69,0,0,0,.56,0,2,2,0,0,1,.55,0,.64.64,0,0,1,.11.16.54.54,0,0,1,.05.21A.5.5,0,0,1,320.79,303.23Z" transform="translate(-155.95 -172.98)"/><path class="cls-2" d="M208.16,311.29a.91.91,0,0,1-.52.06,2.53,2.53,0,0,0-.55,0,4.42,4.42,0,0,1-.74.1l-.85.06H205a1.05,1.05,0,0,1-.49-.1,1.49,1.49,0,0,0,.07-.25,1.65,1.65,0,0,1,.19-.38.36.36,0,0,0,0-.14.25.25,0,0,1,0-.12.5.5,0,0,1,.11-.18.58.58,0,0,0,.11-.15,1.72,1.72,0,0,0,.07-.21,1.15,1.15,0,0,1,.06-.21,3.94,3.94,0,0,1,.26-.55l.35-.65.06-.1.07-.14a.89.89,0,0,0,.08-.17l.08-.2c0-.07,0-.14.07-.2s0-.18.08-.34a.49.49,0,0,1,.11-.13.73.73,0,0,0,.15-.33c0-.12.09-.2.24-.26a.27.27,0,0,1,.15.19c0,.11.06.2.09.29s0,.08,0,.12a.73.73,0,0,1,.05.12,1.22,1.22,0,0,1,.06.26c0,.09,0,.19.07.31l.09.22.08.3.06.23a.78.78,0,0,0,.16.29.55.55,0,0,0,.18.22c0,.16.05.32.07.47l.08.53a.24.24,0,0,0,.07.12.56.56,0,0,1,.1.15.53.53,0,0,1,.06.19,1.2,1.2,0,0,0,0,.2c0,.07,0,.14,0,.19A.23.23,0,0,1,208.16,311.29Z" transform="translate(-155.95 -172.98)"/><path class="cls-2" d="M302.46,309.33l-.14,0-.32.1h-.12a.86.86,0,0,0-.25.06l-.21,0-.21,0a1.36,1.36,0,0,1-.4,0c-.13,0-.26,0-.41-.06h-.12a.38.38,0,0,1-.18,0h-.34a2,2,0,0,1-.47-.06,1.37,1.37,0,0,1,0-.48.47.47,0,0,1,0-.17.7.7,0,0,0,0-.31,4.67,4.67,0,0,0,0-.52c0-.16,0-.36,0-.57s0-.38,0-.56a2.67,2.67,0,0,1,0-.56v-.37l0-.06s0-.1,0-.22a1.37,1.37,0,0,0,0-.19.87.87,0,0,1,0-.33.22.22,0,0,0-.06-.17.12.12,0,0,1,0-.14,2.73,2.73,0,0,1,.7,0,5.58,5.58,0,0,0,.72,0l.39-.05a1.16,1.16,0,0,1,.37,0,1,1,0,0,1,.35.09l.18,0a1.22,1.22,0,0,0,.35,0,.76.76,0,0,1,.18.06.47.47,0,0,0,.19.07.21.21,0,0,0,.16,0L303,305l.24.16a.71.71,0,0,0,.28.08.25.25,0,0,0,.19.17.21.21,0,0,1,.18.16.16.16,0,0,1,.17.07.81.81,0,0,0,.23.21.26.26,0,0,1,.11.1.32.32,0,0,0,.11.12,1,1,0,0,1,.19.29.32.32,0,0,0,.1.1.28.28,0,0,1,.08.11,1.3,1.3,0,0,1,0,.13,1.49,1.49,0,0,0,.12.31.5.5,0,0,1-.1.23s-.05.11,0,.23a1.42,1.42,0,0,0-.18.37c0,.14-.08.28-.13.41a.09.09,0,0,1-.1.09.37.37,0,0,0-.14,0,.32.32,0,0,1-.24.29.34.34,0,0,0-.26.24l-.29.06a4.38,4.38,0,0,0-.47.16Z" transform="translate(-155.95 -172.98)"/></svg>