<svg id="ecO7Y2xFVSt1" xmlns="http://www.w3.org/2000/svg" xmlns:xlink="http://www.w3.org/1999/xlink" viewBox="0 0 120 120" shape-rendering="geometricPrecision" text-rendering="geometricPrecision"><style><![CDATA[#ecO7Y2xFVSt2_tr {animation: ecO7Y2xFVSt2_tr__tr 10000ms linear infinite normal forwards}@keyframes ecO7Y2xFVSt2_tr__tr { 0% {transform: translate(60px,56.799998px) rotate(0deg)} 100% {transform: translate(60px,56.799998px) rotate(-360deg)}} #ecO7Y2xFVSt10_tr {animation: ecO7Y2xFVSt10_tr__tr 10000ms linear infinite normal forwards}@keyframes ecO7Y2xFVSt10_tr__tr { 0% {transform: translate(59.999998px,57.406689px) rotate(360deg)} 100% {transform: translate(59.999998px,57.406689px) rotate(720deg)}}]]></style><g id="ecO7Y2xFVSt2_tr" transform="translate(60,56.799998) rotate(0)"><g id="ecO7Y2xFVSt2" transform="translate(-60.010002,-56.799997)"><circle id="ecO7Y2xFVSt3" r="26.26" transform="matrix(1 0 0 1 60.01 56.8)" fill="rgb(29,29,27)" stroke="none" stroke-width="1"/><g id="ecO7Y2xFVSt4" transform="matrix(1 0 0 1 0.000001 0)"><path id="ecO7Y2xFVSt5" d="M46.86,52.85L49.79,60.4C49.863008,60.639561,50.005748,60.851931,50.2,61.01C50.323791,61.098788,50.468511,61.15392,50.62,61.17L50.62,61.41C50.423511,61.398173,50.226489,61.398173,50.03,61.41L48.46,61.41C48.240175,61.397601,48.019825,61.397601,47.8,61.41L47.8,61.17C48.076379,61.191415,48.351731,61.117281,48.58,60.96C48.69,60.84,48.67,60.57,48.51,60.16L46.28,54.16L46.47,54L44.38,59.43C44.236434,59.744797,44.154945,60.084334,44.14,60.43C44.131489,60.641432,44.238798,60.840721,44.42,60.95C44.654429,61.071272,44.916244,61.129835,45.18,61.12L45.18,61.36C44.96,61.36,44.73,61.36,44.48,61.36L43.29,61.36C43.160219,61.349331,43.029781,61.349331,42.9,61.36L42.9,61.12C43.086683,61.06805,43.258158,60.972023,43.4,60.84C43.604763,60.623367,43.758511,60.363703,43.85,60.08L46.67,52.8L46.86,52.8ZM48.33,58L48.33,58.24L44.75,58.24L44.87,58Z" fill="rgb(255,255,255)" stroke="none" stroke-width="1"/><path id="ecO7Y2xFVSt6" d="M52.59,52L52.59,60.78L52.27,61.05L51.95,61.32L51.63,61.59L51.42,61.51C51.457655,61.400093,51.481177,61.285843,51.49,61.17C51.49,61.05,51.49,60.93,51.49,60.81L51.49,53.45C51.50801,53.173512,51.441762,52.898062,51.3,52.66C51.116681,52.461224,50.848024,52.364209,50.58,52.4L50.58,52.15L51.32,52.15C51.543074,52.165224,51.766926,52.165224,51.99,52.15C52.194266,52.118951,52.395154,52.068729,52.59,52ZM54.46,55.05C55.101833,55.042793,55.708126,55.34408,56.09,55.86C56.844434,57.158063,56.94804,58.734356,56.37,60.12C56.152697,60.574842,55.804477,60.954401,55.37,61.21C54.963996,61.448704,54.500966,61.5731,54.03,61.57C53.622735,61.564308,53.224885,61.446683,52.88,61.23C52.499901,60.995494,52.205378,60.644871,52.04,60.23L52.28,60.36C52.639717,60.962819,53.298381,61.322787,54,61.3C54.506734,61.316672,54.976247,61.034964,55.2,60.58C55.515199,59.873755,55.655824,59.102032,55.61,58.33C55.617653,57.785706,55.563981,57.242281,55.45,56.71C55.394216,56.335977,55.226933,55.987471,54.97,55.71C54.747459,55.496316,54.44839,55.381012,54.14,55.39C53.751377,55.409354,53.388658,55.590714,53.14,55.89C52.789945,56.299647,52.582834,56.812161,52.55,57.35L52.41,57.18C52.460685,56.588068,52.711042,56.030936,53.12,55.6C53.479328,55.252407,53.960064,55.058678,54.46,55.06Z" fill="rgb(255,255,255)" stroke="none" stroke-width="1"/><path id="ecO7Y2xFVSt7" d="M60.59,55.06C61.081856,55.046088,61.56854,55.163445,62,55.4C62.436527,55.634732,62.786828,56.002549,63,56.45C63.265851,57.040007,63.392447,57.683253,63.37,58.33C63.392611,58.970307,63.265939,59.607093,63,60.19C62.786828,60.637451,62.436527,61.005268,62,61.24C61.137311,61.684878,60.112689,61.684878,59.25,61.24C58.816783,61.000953,58.467643,60.634356,58.25,60.19C57.987496,59.606271,57.864254,58.969519,57.89,58.33C57.864771,57.684058,57.987924,57.040926,58.25,56.45C58.467643,56.005644,58.816783,55.639047,59.25,55.4C59.66059,55.174825,60.121723,55.057821,60.59,55.06ZM60.59,55.3C60.114951,55.314147,59.685484,55.586399,59.47,56.01C59.113633,56.729092,58.951601,57.528908,59,58.33C58.943126,59.125171,59.094792,59.921416,59.44,60.64C59.65095,61.065649,60.084945,61.334932,60.56,61.334932C61.035055,61.334932,61.46905,61.065649,61.68,60.64C62.02974,59.922915,62.18164,59.125443,62.12,58.33C62.193593,57.530666,62.052034,56.726197,61.71,56C61.493482,55.578751,61.06353,55.310031,60.59,55.3Z" fill="rgb(255,255,255)" stroke="none" stroke-width="1"/><path id="ecO7Y2xFVSt8" d="M69.68,55.1L69.68,60.1C69.657243,60.380041,69.723756,60.660096,69.87,60.9C70.056928,61.09327,70.322717,61.18925,70.59,61.16L70.59,61.41Q70.22,61.41,69.84,61.41Q69.46,61.41,69.18,61.41C68.982949,61.434656,68.788723,61.478189,68.6,61.54L68.6,60.14C68.322828,61.007796,67.510902,61.592383,66.6,61.58C66.351322,61.585744,66.103754,61.545048,65.87,61.46C65.672591,61.388636,65.494543,61.27222,65.35,61.12C65.190733,60.946381,65.083335,60.731585,65.04,60.5C64.970593,60.171394,64.940382,59.835719,64.95,59.5L64.95,56.5C64.972757,56.219959,64.906244,55.939904,64.76,55.7C64.57393,55.505408,64.307467,55.409185,64.04,55.44L64.04,55.19C64.3,55.19,64.55,55.19,64.79,55.19C65.010908,55.189032,65.231467,55.172323,65.45,55.14C65.646701,55.118483,65.840909,55.078302,66.03,55.02L66.03,59.73C66.013652,59.95971,66.013652,60.19029,66.03,60.42C66.049497,60.609483,66.134354,60.786268,66.27,60.92C66.446508,61.064346,66.673116,61.132688,66.9,61.11C67.369015,61.112409,67.806666,60.874719,68.06,60.48C68.389905,60.055034,68.57871,59.537568,68.6,59L68.6,56.54C68.620476,56.258818,68.550388,55.978466,68.4,55.74C68.216681,55.541224,67.948024,55.444209,67.68,55.48L67.68,55.23C67.94,55.23,68.19,55.23,68.43,55.23C68.650908,55.229032,68.871467,55.212323,69.09,55.18C69.28871,55.171555,69.486216,55.144775,69.68,55.1Z" fill="rgb(255,255,255)" stroke="none" stroke-width="1"/><path id="ecO7Y2xFVSt9" d="M73.13,53.24L73.13,55.24L74.91,55.24L74.91,55.48L73.13,55.48L73.13,60.13C73.102741,60.410017,73.177294,60.69048,73.34,60.92C73.48299,61.076395,73.688363,61.160745,73.9,61.15C74.141675,61.150099,74.3701,61.03957,74.52,60.85C74.748734,60.556805,74.906209,60.214469,74.98,59.85L75.22,59.91C75.156141,60.334238,74.995307,60.738034,74.75,61.09C74.488866,61.42101,74.080484,61.600848,73.66,61.57C73.432679,61.573868,73.206285,61.540078,72.99,61.47C72.556669,61.303291,72.23941,60.925602,72.15,60.47C72.079182,60.141486,72.045637,59.806033,72.05,59.47L72.05,55.47L70.9,55.47L70.9,55.23L72.05,55.23L72.05,53.41L72.63,53.41C72.800904,53.366659,72.968097,53.309814,73.13,53.24Z" fill="rgb(255,255,255)" stroke="none" stroke-width="1"/></g></g></g><g id="ecO7Y2xFVSt10_tr" transform="translate(59.999998,57.406689) rotate(360)"><g id="ecO7Y2xFVSt10" transform="translate(-59.999998,-57.406689)"><path id="ecO7Y2xFVSt11" d="M78.71,21.9C79.181535,22.12368,79.603238,22.439957,79.95,22.83C80.207932,23.132592,80.423262,23.469044,80.59,23.83C80.630266,23.925827,80.695969,24.00882,80.78,24.07C80.94,24.15,81.16,23.96,81.46,23.49L81.74,23.64C81.56,23.95,81.35,24.32,81.11,24.77L80.17,26.56L79.89,26.41C80.073128,25.959019,80.207232,25.489655,80.29,25.01C80.359389,24.579159,80.300259,24.137423,80.12,23.74C80.010591,23.438594,79.840403,23.162891,79.62,22.93C79.393492,22.682981,79.126283,22.476655,78.83,22.32C78.428331,22.097111,77.964419,22.012763,77.51,22.08C77.050455,22.158862,76.615618,22.343754,76.24,22.62C75.810058,22.934982,75.426334,23.308609,75.1,23.73C74.716999,24.187888,74.381916,24.683811,74.1,25.21C73.476864,26.277317,73.132928,27.484533,73.1,28.72C73.114608,29.533094,73.586728,30.268364,74.32,30.62C74.489892,30.717052,74.676429,30.781491,74.87,30.81C75.015984,30.83001,75.164016,30.83001,75.31,30.81C75.440884,30.791722,75.56486,30.740065,75.67,30.66C75.778026,30.56708,75.863513,30.450817,75.92,30.32L76.54,29.13C76.699034,28.856434,76.813786,28.559429,76.88,28.25C76.915325,28.046938,76.852248,27.839156,76.71,27.69C76.496448,27.485443,76.253824,27.313585,75.99,27.18L76.11,26.94L76.72,27.28L77.46,27.67L78.18,28.05L79.12,28.52L79.83,28.86L79.7,29.1C79.528812,29.020345,79.331188,29.020345,79.16,29.1C78.928065,29.32977,78.74148,29.601167,78.61,29.9L77.37,32.31L77.13,32.19C77.196329,32.029475,77.243326,31.861629,77.27,31.69C77.27,31.5,77.27,31.37,77.13,31.31C77.050062,31.275903,76.966021,31.252371,76.88,31.24C76.700554,31.220021,76.519446,31.220021,76.34,31.24C75.94904,31.249936,75.557893,31.229877,75.17,31.18C74.763069,31.124192,74.367916,31.002606,74,30.82C72.778154,30.280408,71.833614,29.25987,71.39,28C71.068862,26.709017,71.270101,25.343462,71.95,24.2C72.369289,23.342798,73.007461,22.611488,73.8,22.08C74.50486,21.601333,75.328813,21.327836,76.18,21.29C77.062394,21.266443,77.935297,21.476906,78.71,21.9Z" fill="rgb(29,29,27)" stroke="none" stroke-width="1"/><path id="ecO7Y2xFVSt12" d="M87.6,32.09C88.013384,32.531937,88.321108,33.061907,88.5,33.64C88.651048,34.191788,88.619476,34.777641,88.41,35.31C88.112971,35.999759,87.657275,36.609638,87.08,37.09C86.551854,37.617753,85.903182,38.009016,85.19,38.23C84.640358,38.387431,84.05454,38.362876,83.52,38.16C82.968368,37.938547,82.473026,37.596932,82.07,37.16C81.661515,36.719968,81.357329,36.193623,81.18,35.62C81.020559,35.069885,81.048704,34.482355,81.26,33.95C81.886078,32.568662,83.049253,31.503021,84.48,31C85.033574,30.841312,85.62401,30.869428,86.16,31.08C86.710646,31.302623,87.203171,31.648074,87.6,32.09ZM87.39,32.28C87.15,32.01,86.74,31.96,86.17,32.15C85.355939,32.504009,84.618819,33.013539,84,33.65C83.308695,34.202575,82.728445,34.88123,82.29,35.65C82.06,36.19,82.07,36.65,82.29,36.87C82.638437,37.141265,83.109172,37.195284,83.51,37.01C84.334015,36.658032,85.081342,36.148491,85.71,35.51C86.404901,34.958361,86.988596,34.279646,87.43,33.51C87.683512,33.134333,87.667385,32.638402,87.39,32.28Z" fill="rgb(29,29,27)" stroke="none" stroke-width="1"/><path id="ecO7Y2xFVSt13" d="M99.58,47.57C99.76043,48.064042,99.76043,48.605958,99.58,49.1C99.507049,49.262961,99.401557,49.40929,99.27,49.53C99.112155,49.668765,98.923671,49.768147,98.72,49.82C98.482122,49.888936,98.226573,49.860142,98.01,49.74C97.771264,49.622953,97.601052,49.400937,97.55,49.14C97.44442,48.890718,97.44442,48.609282,97.55,48.36C97.665895,48.116524,97.887022,47.939622,98.15,47.88C98.364394,47.809764,98.595606,47.809764,98.81,47.88C99.038199,47.970718,99.228669,48.136497,99.35,48.35C99.400747,48.299741,99.429513,48.231422,99.43,48.16C99.450112,48.050919,99.450112,47.939081,99.43,47.83C99.397793,47.674958,99.321383,47.532557,99.21,47.42C99.121486,47.320889,99.007271,47.248207,98.88,47.21C98.676358,47.159997,98.463642,47.159997,98.26,47.21C97.864227,47.277308,97.473366,47.370848,97.09,47.49L95.89,47.82L96.28,49.23L96.02,49.31L95.62,47.9L90.44,49.35C90.103101,49.396691,89.813031,49.611418,89.67,49.92C89.569744,50.245795,89.569744,50.594205,89.67,50.92L89.39,51C89.39,50.77,89.26,50.45,89.16,50C89.06,49.55,88.94,49.14,88.81,48.69C88.68,48.24,88.62,48.03,88.51,47.69L88.3,47L88.57,46.92C88.618987,47.159758,88.754187,47.373232,88.95,47.52C89.210723,47.620095,89.499277,47.620095,89.76,47.52L95.07,46L94.82,45.1L95.08,45.03L95.33,45.92C95.926234,45.732855,96.545361,45.628546,97.17,45.61C97.609493,45.619538,98.039457,45.739928,98.42,45.96C98.681045,46.129544,98.911051,46.342638,99.1,46.59C99.319754,46.883851,99.482557,47.216242,99.58,47.57Z" fill="rgb(29,29,27)" stroke="none" stroke-width="1"/><path id="ecO7Y2xFVSt14" d="M97.24,56.85C97.263761,57.455025,97.147401,58.057358,96.9,58.61C96.648112,59.128019,96.233713,59.549442,95.72,59.81C94.337586,60.397322,92.780636,60.422434,91.38,59.88C90.861203,59.63889,90.438553,59.230328,90.18,58.72C89.671222,57.616612,89.64945,56.350225,90.12,55.23C90.361376,54.703923,90.768952,54.271752,91.28,54C92.665991,53.41313,94.225843,53.388029,95.63,53.93C96.138412,54.189723,96.54893,54.607259,96.8,55.12C97.081237,55.653824,97.23202,56.246677,97.24,56.85ZM96.96,56.85C96.96,56.48,96.68,56.18,96.13,55.94C94.383504,55.454824,92.535131,55.475631,90.8,56C90.27,56.25,90,56.56,90.01,56.93C90.02,57.3,90.29,57.61,90.83,57.84C92.56805,58.297109,94.398506,58.265967,96.12,57.75C96.7,57.53,96.97,57.22,96.96,56.85Z" fill="rgb(29,29,27)" stroke="none" stroke-width="1"/><path id="ecO7Y2xFVSt15" d="M95,69.87C94.931797,70.112482,94.796629,70.33083,94.61,70.5C94.450133,70.638221,94.250587,70.72224,94.04,70.74C93.838622,70.779881,93.631378,70.779881,93.43,70.74C93.132045,70.665252,92.876381,70.474403,92.72,70.21C92.573754,69.958179,92.544544,69.655118,92.64,69.38C92.709007,69.119889,92.868577,68.892944,93.09,68.74C93.299182,68.618375,93.550653,68.592863,93.78,68.67C93.99711,68.728861,94.191953,68.850638,94.34,69.02C94.464494,69.18205,94.559292,69.364876,94.62,69.56C94.69222,69.450614,94.727285,69.320874,94.72,69.19C94.756975,68.94546,94.711221,68.695575,94.59,68.48C94.463014,68.244254,94.293492,68.034047,94.09,67.86C93.890399,67.69543,93.663684,67.566845,93.42,67.48L90,66.41C89.703549,66.249981,89.346451,66.249981,89.05,66.41C88.796916,66.632733,88.621713,66.930579,88.55,67.26L88.27,67.17L88.58,66.31Q88.78,65.74,88.97,65.11C89.07,64.76,89.18,64.41,89.27,64.05C89.36,63.69,89.45,63.41,89.49,63.22L89.77,63.31C89.67029,63.536164,89.67029,63.793836,89.77,64.02C89.948638,64.230806,90.190696,64.378146,90.46,64.44L94.58,65.71C94.877193,65.819078,95.197406,65.850067,95.51,65.8C95.759749,65.708549,95.942385,65.491669,95.99,65.23L96.27,65.32C96.158565,65.577675,96.061745,65.841426,95.98,66.11C95.868618,66.438014,95.775147,66.77184,95.7,67.11C95.641299,67.414298,95.597911,67.721351,95.57,68.03L94.35,67.65C94.549205,67.830805,94.721009,68.039664,94.86,68.27C94.998166,68.496329,95.089946,68.747873,95.13,69.01C95.158449,69.303006,95.113782,69.598494,95,69.87Z" fill="rgb(29,29,27)" stroke="none" stroke-width="1"/><path id="ecO7Y2xFVSt16" d="M82.18,87.18C81.950558,87.397502,81.682671,87.570442,81.39,87.69C81.169159,87.769316,80.933797,87.800015,80.7,87.78C80.453676,87.732349,80.221254,87.62981,80.02,87.48C79.729443,87.24937,79.461562,86.991534,79.22,86.71L76.8,84C76.642557,83.772207,76.408207,83.608872,76.14,83.54C75.893736,83.556361,75.662222,83.663214,75.49,83.84L75.3,83.62L75.91,83.13L76.7,82.47L77.41,81.81L77.93,81.31L78.12,81.52C77.96357,81.634355,77.870777,81.81623,77.87,82.01C77.938703,82.271263,78.081014,82.50729,78.28,82.69L81.1,85.89C81.231796,86.041802,81.379284,86.179234,81.54,86.3C81.665214,86.390392,81.81557,86.439345,81.97,86.44C82.15741,86.423409,82.332004,86.337893,82.46,86.2C82.742855,85.948505,82.887902,85.57659,82.85,85.2C82.851454,84.756673,82.68742,84.328759,82.39,84L83,84.58C83.170098,85.058671,83.170098,85.581329,83,86.06C82.814236,86.490171,82.533967,86.872978,82.18,87.18ZM85.28,84.46C85.048638,84.679899,84.777002,84.853067,84.48,84.97C84.259603,85.051027,84.02309,85.078449,83.79,85.05C83.540987,85.011226,83.30651,84.90778,83.11,84.75C82.817231,84.525642,82.549067,84.270886,82.31,83.99L79.88,81.22C79.718756,81.000433,79.490696,80.839036,79.23,80.76C79.002403,80.747835,78.781623,80.839827,78.63,81.01L78.44,80.79L79.02,80.33C79.28,80.12,79.53,79.91,79.77,79.69L80.48,79.04L81.01,78.53L81.2,78.75C81.036659,78.858329,80.941842,79.044172,80.95,79.24C81.018703,79.501263,81.161014,79.73729,81.36,79.92L84.17,83.12C84.303403,83.266717,84.447101,83.403731,84.6,83.53C84.720997,83.629434,84.87341,83.682601,85.03,83.68C85.200425,83.674933,85.362036,83.603106,85.48,83.48C85.650259,83.320505,85.771647,83.115879,85.83,82.89C85.889806,82.643577,85.889806,82.386423,85.83,82.14C85.753206,81.869704,85.616486,81.62019,85.43,81.41L82.92,78.55C82.756797,78.336447,82.539211,78.170668,82.29,78.07C82.097265,78.036819,81.900976,78.104766,81.77,78.25L81.58,78L82.11,77.58L82.83,76.98L83.62,76.26L84.21,75.69L84.4,75.9C84.201067,76.042169,84.067716,76.258414,84.03,76.5C84.059254,76.777736,84.191214,77.034524,84.4,77.22L87.25,80.46C87.442812,80.708814,87.698157,80.902048,87.99,81.02C88.252401,81.070368,88.521976,80.979244,88.7,80.78L88.89,81C88.658984,81.162493,88.438539,81.339517,88.23,81.53C87.96,81.76,87.7,82.02,87.45,82.28C87.234085,82.502745,87.03362,82.739963,86.85,82.99L86,82.1C86.149384,82.527321,86.149384,82.992679,86,83.42C85.828799,83.808443,85.568421,84.151045,85.24,84.42Z" fill="rgb(29,29,27)" stroke="none" stroke-width="1"/><path id="ecO7Y2xFVSt17" d="M72,92.38C71.43019,92.583742,70.82158,92.655545,70.22,92.59C69.65704,92.502226,69.135857,92.239886,68.73,91.84C68.212014,91.29392,67.831519,90.632338,67.62,89.91C67.36126,89.210752,67.262175,88.462491,67.33,87.72C67.409648,87.153649,67.669047,86.62784,68.07,86.22C68.504078,85.79906,69.03188,85.487177,69.61,85.31C70.172689,85.105494,70.77499,85.033629,71.37,85.1C71.939272,85.179642,72.46827,85.438886,72.88,85.84C73.858726,86.995174,74.340476,88.490757,74.22,90C74.141053,90.57156,73.87772,91.101738,73.47,91.51C73.051951,91.907241,72.549388,92.204677,72,92.38ZM71.91,92.12C72.26,92,72.46,91.64,72.52,91.05C72.51945,90.149762,72.349844,89.257634,72.02,88.42C71.783226,87.538345,71.367989,86.714679,70.8,86C70.4,85.57,70.02,85.41,69.68,85.53C69.34,85.65,69.12,86,69.06,86.59C69.04966,87.487993,69.219685,88.378926,69.56,89.21C69.800307,90.077302,70.207962,90.889216,70.76,91.6C71.13,92.08,71.51,92.24,71.86,92.12Z" fill="rgb(29,29,27)" stroke="none" stroke-width="1"/><path id="ecO7Y2xFVSt18" d="M59.06,94.37C58.80819,94.38922,58.55662,94.329822,58.34,94.2C58.161184,94.090188,58.018604,93.93022,57.93,93.74C57.840459,93.552015,57.789456,93.348006,57.78,93.14C57.771307,92.835735,57.870486,92.538196,58.06,92.3C58.254309,92.101584,58.522377,91.992908,58.8,92C59.07138,91.981135,59.340661,92.059085,59.56,92.22C59.739181,92.38026,59.841114,92.609609,59.84,92.85C59.847784,93.077292,59.7924,93.302292,59.68,93.5C59.566598,93.669931,59.424476,93.818821,59.26,93.94C59.383544,93.979774,59.516456,93.979774,59.64,93.94C59.884716,93.901314,60.107869,93.777339,60.27,93.59C60.637809,93.204215,60.845154,92.693001,60.85,92.16L60.76,88.54C60.804352,88.204939,60.676454,87.870147,60.42,87.65C60.117285,87.47595,59.767157,87.402423,59.42,87.44L59.42,87.16L63.55,87.16L63.55,87.44C63.304616,87.421857,63.062503,87.50497,62.88,87.67C62.727686,87.899694,62.663741,88.17679,62.7,88.45L62.8,92.76C62.788242,93.076572,62.860708,93.390593,63.01,93.67C63.176058,93.88235,63.443303,93.989248,63.71,93.95L63.71,94.23L62.86,94.23C62.501504,94.218593,62.142814,94.245411,61.79,94.31C61.480146,94.343029,61.172812,94.396479,60.87,94.47L60.87,93.21C60.77132,93.459723,60.629116,93.689958,60.45,93.89C60.27798,94.092944,60.0672,94.259528,59.83,94.38C59.575558,94.431626,59.313015,94.428216,59.06,94.37Z" fill="rgb(29,29,27)" stroke="none" stroke-width="1"/><path id="ecO7Y2xFVSt19" d="M50,93C49.308721,92.862208,48.708736,92.436764,48.35,91.83C48.021159,91.060711,47.999687,90.19464,48.29,89.41L52.64,90.56L52.64,90.82L50,90.11C49.890289,90.510254,49.810074,90.918014,49.76,91.33C49.710031,91.66387,49.730469,92.0045,49.82,92.33C49.867455,92.556507,50.03711,92.73773,50.26,92.8C50.61908,92.853343,50.978868,92.707897,51.2,92.42C51.625048,91.883626,51.931768,91.26337,52.1,90.6L52.1,90.51C52.119507,90.396276,52.153099,90.285423,52.2,90.18C52.2,90.07,52.27,89.95,52.31,89.83C52.457507,89.323979,52.501717,88.793456,52.44,88.27C52.391879,87.903322,52.243032,87.557166,52.01,87.27C51.815638,87.043141,51.557965,86.879484,51.27,86.8C50.966277,86.739907,50.653723,86.739907,50.35,86.8C49.923599,86.889753,49.535677,87.109925,49.24,87.43L49,87.28C49.210711,86.961105,49.470597,86.677594,49.77,86.44C50.084987,86.179192,50.453814,85.991363,50.85,85.89C51.292024,85.770181,51.757976,85.770181,52.2,85.89C52.755018,86.027627,53.264915,86.306692,53.68,86.7C54.08042,87.09209,54.349435,87.598677,54.45,88.15C54.638556,89.577171,54.241799,91.019926,53.35,92.15C52.935635,92.589359,52.39323,92.886807,51.8,93C51.210022,93.15509,50.589978,93.15509,50,93Z" fill="rgb(29,29,27)" stroke="none" stroke-width="1"/></g></g><rect id="ecO7Y2xFVSt20" width="120" height="120" rx="0" ry="0" fill="none" stroke="none" stroke-width="1"/></svg>