<svg id="ehLCrtvGmlE1" xmlns="http://www.w3.org/2000/svg" xmlns:xlink="http://www.w3.org/1999/xlink" viewBox="0 0 120 120" shape-rendering="geometricPrecision" text-rendering="geometricPrecision"><style><![CDATA[#ehLCrtvGmlE2_tr {animation: ehLCrtvGmlE2_tr__tr 10000ms linear infinite normal forwards}@keyframes ehLCrtvGmlE2_tr__tr { 0% {transform: translate(59.999997px,57.100001px) rotate(0deg)} 100% {transform: translate(59.999997px,57.100001px) rotate(-360deg)}} #ehLCrtvGmlE6_tr {animation: ehLCrtvGmlE6_tr__tr 10000ms linear infinite normal forwards}@keyframes ehLCrtvGmlE6_tr__tr { 0% {transform: translate(60.000001px,57.501032px) rotate(0deg)} 100% {transform: translate(60.000001px,57.501032px) rotate(360deg)}}]]></style><g id="ehLCrtvGmlE2_tr" transform="translate(59.999997,57.100001) rotate(0)"><g id="ehLCrtvGmlE2" transform="translate(-59.999996,-57.100001)"><circle id="ehLCrtvGmlE3" r="26.26" transform="matrix(1 0 0 1 60 57.1)" fill="rgb(29,29,27)" stroke="none" stroke-width="1"/><path id="ehLCrtvGmlE4" d="M191.67,93.46C191,92.58,191.78,91.46,192.67,87.9C193.106979,86.071029,193.411106,84.212848,193.58,82.34C194.06,75.34,196.48,86.55,197.66,88.15C198.5,91.15,198.59,89.56,199.84,87.87C201.66,85.4,203.62,82.95,205.31,80.55C207,80.21,207,91.06,208,92.86C208.36,93.26,208.37,93.48,208.32,93.61C208.09,94.23,205.95,93.8,202.67,93.72L198.67,93.82C193,94,192.16,94.1,191.67,93.46Z" transform="matrix(1 0 0 1 -146.2 -29.99)" fill="rgb(255,255,255)" stroke="none" stroke-width="1"/><path id="ehLCrtvGmlE5" d="M213.43,88.25Q213.12,87.64,212.74,86.99C212.37,86.35,211.99,85.75,211.61,85.2C211.55,84.97,211.01,83,212.08,81.78C213.15,80.56,216.08,80.34,218.29,82.39C218.477599,82.827457,218.447951,83.327761,218.21,83.74C217.39,84.74,214.36,83.18,214.12,83.64C213.88,84.1,218.5,86.07,218.73,89.23C218.761842,90.138607,218.483204,91.030953,217.94,91.76C216.27,94.23,212.23,94.76,210.49,93.31C210.02,92.92,209.42,92.13,209.62,91.45C209.82,90.77,210.62,90.54,211.11,90.34C212.65,89.77,213.72,90.24,214,89.75C214.12,89.54,214.11,89.13,213.43,88.25Z" transform="matrix(1 0 0 1 -146.2 -29.99)" fill="rgb(255,255,255)" stroke="none" stroke-width="1"/></g></g><g id="ehLCrtvGmlE6_tr" transform="translate(60.000001,57.501032) rotate(0)"><g id="ehLCrtvGmlE6" transform="translate(-60.000001,-57.501029)"><path id="ehLCrtvGmlE7" d="M224.91,51.89C225.381535,52.11368,225.803238,52.429957,226.15,52.82C226.406001,53.124018,226.621158,53.4602,226.79,53.82C226.829347,53.916367,226.895232,53.999591,226.98,54.06C227.14,54.14,227.36,53.95,227.66,53.48L227.94,53.63C227.76,53.94,227.55,54.31,227.31,54.76L226.37,56.55L226.09,56.4C226.271637,55.948507,226.405695,55.479302,226.49,55C226.557618,54.569138,226.498556,54.12791,226.32,53.73C226.211111,53.428343,226.040861,53.152539,225.82,52.92C225.594037,52.672389,225.326718,52.465978,225.03,52.31C224.62783,52.088518,224.164393,52.004257,223.71,52.07C223.250455,52.148862,222.815618,52.333754,222.44,52.61C222.009716,52.924577,221.625938,53.298256,221.3,53.72C220.917935,54.178592,220.582918,54.674416,220.3,55.2C219.678058,56.267825,219.33421,57.47473,219.3,58.71C219.314608,59.523094,219.786728,60.258364,220.52,60.61C220.689892,60.707052,220.876429,60.771491,221.07,60.8C221.21568,60.824062,221.36432,60.824062,221.51,60.8C221.641254,60.78309,221.765572,60.731291,221.87,60.65C221.976571,60.555741,222.061802,60.439827,222.12,60.31L222.74,59.12C222.898141,58.846006,223.012837,58.549145,223.08,58.24C223.115325,58.036938,223.052248,57.829156,222.91,57.68C222.695809,57.476219,222.453305,57.304445,222.19,57.17L222.31,56.93L222.92,57.27L223.66,57.66L224.38,58.04L225.32,58.51L226.03,58.85L225.9,59.09C225.729454,59.007496,225.530546,59.007496,225.36,59.09C225.125139,59.31731,224.938135,59.589316,224.81,59.89L223.57,62.3L223.33,62.18C223.395637,62.019237,223.442611,61.851473,223.47,61.68C223.47,61.49,223.47,61.36,223.33,61.3C223.250062,61.265903,223.166021,61.242371,223.08,61.23C222.900709,61.207411,222.719291,61.207411,222.54,61.23C222.14904,61.239936,221.757893,61.219877,221.37,61.17C220.974112,61.107784,220.589821,60.986429,220.23,60.81C218.998798,60.279397,218.042837,59.261878,217.59,58C217.269962,56.708964,217.471139,55.34383,218.15,54.2C218.572033,53.344624,219.209641,52.61396,220,52.08C220.704151,51.599898,221.528524,51.326262,222.38,51.29C223.261489,51.263382,224.134338,51.470381,224.91,51.89Z" transform="matrix(1 0 0 1 -146.2 -29.99)" fill="rgb(29,29,27)" stroke="none" stroke-width="1"/><path id="ehLCrtvGmlE8" d="M233.8,62.08C234.213384,62.521937,234.521108,63.051907,234.7,63.63C234.849614,64.181941,234.818066,64.767335,234.61,65.3C234.311346,65.988818,233.855912,66.598346,233.28,67.08C232.751358,67.60712,232.102852,67.998282,231.39,68.22C230.840532,68.378885,230.254244,68.35431,229.72,68.15C229.163545,67.914045,228.667796,67.555055,228.27,67.1C227.861515,66.659968,227.557329,66.133623,227.38,65.56C227.222077,65.009708,227.250199,64.422677,227.46,63.89C228.10281,62.534181,229.262834,61.493041,230.68,61C231.233307,60.839034,231.824492,60.867186,232.36,61.08C232.908042,61.302748,233.399853,61.644284,233.8,62.08ZM233.59,62.27C233.35,62,232.94,61.95,232.37,62.14C231.543885,62.493519,230.793562,63.002788,230.16,63.64C229.470197,64.194125,228.89021,64.872473,228.45,65.64C228.22,66.18,228.23,66.64,228.45,66.86C228.67,67.08,229.11,67.19,229.67,67C230.494388,66.648715,231.241841,66.139088,231.87,65.5C232.564901,64.948361,233.148596,64.269646,233.59,63.5C233.85,63,233.85,62.55,233.59,62.27Z" transform="matrix(1 0 0 1 -146.2 -29.99)" fill="rgb(29,29,27)" stroke="none" stroke-width="1"/><path id="ehLCrtvGmlE9" d="M245.78,77.56C245.956226,78.054777,245.956226,78.595223,245.78,79.09C245.710013,79.25465,245.604096,79.401568,245.47,79.52C245.311114,79.657247,245.123007,79.756431,244.92,79.81C244.682029,79.877824,244.426912,79.849078,244.21,79.73C243.973237,79.610559,243.803877,79.389654,243.75,79.13C243.64442,78.880718,243.64442,78.599282,243.75,78.35C243.864682,78.105565,244.086352,77.928228,244.35,77.87C244.56366,77.795308,244.79634,77.795308,245.01,77.87C245.237371,77.962073,245.427442,78.127504,245.55,78.34C245.597561,78.287648,245.62579,78.220605,245.63,78.15C245.653231,78.041227,245.653231,77.928773,245.63,77.82C245.596736,77.665344,245.520477,77.523224,245.41,77.41C245.321486,77.310889,245.207271,77.238207,245.08,77.2C244.876219,77.151157,244.663781,77.151157,244.46,77.2C244.064773,77.269956,243.674078,77.363456,243.29,77.48L242.09,77.81L242.48,79.22L242.22,79.3L241.82,77.89L236.64,79.34C236.303101,79.386691,236.013031,79.601418,235.87,79.91C235.770962,80.235977,235.770962,80.584023,235.87,80.91L235.59,80.99C235.54,80.76,235.46,80.44,235.36,79.99C235.26,79.54,235.14,79.13,235.01,78.68C234.88,78.23,234.82,78.02,234.71,77.68L234.5,77L234.77,76.92C234.818987,77.159758,234.954187,77.373232,235.15,77.52C235.411543,77.615572,235.698457,77.615572,235.96,77.52L241.27,76L241.02,75.1L241.28,75.03L241.53,75.92C242.126024,75.731983,242.745273,75.627653,243.37,75.61C243.810148,75.615043,244.241231,75.735746,244.62,75.96C244.88231,76.127913,245.11258,76.341252,245.3,76.59C245.520487,76.879707,245.683424,77.208976,245.78,77.56Z" transform="matrix(1 0 0 1 -146.2 -29.99)" fill="rgb(29,29,27)" stroke="none" stroke-width="1"/><path id="ehLCrtvGmlE10" d="M243.44,86.84C243.463761,87.445025,243.347401,88.047358,243.1,88.6C242.848722,89.118449,242.434153,89.540044,241.92,89.8C240.538035,90.389437,238.980255,90.414563,237.58,89.87C237.063391,89.625714,236.641652,89.218034,236.38,88.71C235.867499,87.607465,235.8457,86.3395,236.32,85.22C236.563785,84.698061,236.971008,84.269775,237.48,84C238.865547,83.411029,240.42622,83.385915,241.83,83.93C242.339722,84.187935,242.750741,84.60598,243,85.12C243.275944,85.652266,243.426451,86.24061,243.44,86.84ZM243.16,86.84C243.16,86.47,242.88,86.17,242.33,85.93C240.582916,85.445312,238.733753,85.469597,237,86C236.47,86.25,236.2,86.56,236.21,86.93C236.22,87.3,236.49,87.61,237.03,87.84C237.88495,88.114201,238.784355,88.222809,239.68,88.16C240.578161,88.19409,241.474483,88.054889,242.32,87.75C242.9,87.53,243.17,87.22,243.16,86.85Z" transform="matrix(1 0 0 1 -146.2 -29.99)" fill="rgb(29,29,27)" stroke="none" stroke-width="1"/><path id="ehLCrtvGmlE11" d="M241.24,99.86C241.173335,100.103155,241.037917,100.321906,240.85,100.49C240.690133,100.628221,240.490587,100.71224,240.28,100.73C240.079138,100.774836,239.870862,100.774836,239.67,100.73C239.372045,100.655252,239.116381,100.464403,238.96,100.2C238.813754,99.948179,238.784544,99.645118,238.88,99.37C238.945631,99.10833,239.105968,98.880295,239.33,98.73C239.538762,98.607087,239.790806,98.581517,240.02,98.66C240.236402,98.720474,240.430814,98.841981,240.58,99.01C240.704494,99.17205,240.799292,99.354876,240.86,99.55C240.933581,99.441232,240.968772,99.311025,240.96,99.18C240.995452,98.935486,240.949788,98.68609,240.83,98.47C240.704411,98.233329,240.534692,98.022878,240.33,97.85C240.131114,97.684393,239.904207,97.555699,239.66,97.47L236.19,96.4C235.885177,96.255329,235.527952,96.27413,235.24,96.45C234.985807,96.671815,234.810372,96.970055,234.74,97.3L234.46,97.21L234.77,96.35Q234.96,95.78,235.16,95.15C235.26,94.8,235.37,94.45,235.46,94.09C235.55,93.73,235.64,93.45,235.68,93.26L235.96,93.35C235.863866,93.576904,235.863866,93.833096,235.96,94.06C236.13616,94.273685,236.379277,94.421669,236.65,94.48L240.77,95.75C241.066343,95.862757,241.387535,95.89384,241.7,95.84C241.949749,95.748549,242.132385,95.531669,242.18,95.27L242.46,95.36C242.347419,95.617215,242.250574,95.881035,242.17,96.15C242.058344,96.494855,241.964882,96.845338,241.89,97.2C241.829164,97.503938,241.78576,97.811106,241.76,98.12L240.54,97.74C240.742039,97.918086,240.914223,98.127408,241.05,98.36C241.186536,98.587111,241.278196,98.838325,241.32,99.1C241.345362,99.356138,241.318139,99.614757,241.24,99.86Z" transform="matrix(1 0 0 1 -146.2 -29.99)" fill="rgb(29,29,27)" stroke="none" stroke-width="1"/><path id="ehLCrtvGmlE12" d="M228.38,117.17C228.149714,117.386426,227.882038,117.559229,227.59,117.68C227.368733,117.757538,227.133753,117.788188,226.9,117.77C226.654562,117.719546,226.422727,117.617265,226.22,117.47C225.928041,117.240977,225.660009,116.982996,225.42,116.7L223,113.94C222.842557,113.712207,222.608207,113.548872,222.34,113.48C222.093736,113.496361,221.862222,113.603214,221.69,113.78L221.5,113.56L222.11,113.07L222.9,112.41L223.61,111.75L224.13,111.25L224.32,111.46C224.164804,111.575402,224.072348,111.756615,224.07,111.95C224.141702,112.209985,224.283543,112.445235,224.48,112.63L227.3,115.83C227.428581,115.984872,227.576448,116.122657,227.74,116.24C227.864244,116.332286,228.015239,116.381447,228.17,116.38C228.357672,116.364356,228.532591,116.278682,228.66,116.14C228.944251,115.889479,229.089589,115.516819,229.05,115.14C229.036914,114.71743,228.87385,114.313314,228.59,114L229.2,114.58C229.370919,115.058529,229.370919,115.581471,229.2,116.06C229.013244,116.486741,228.733012,116.866079,228.38,117.17ZM231.48,114.45C231.246318,114.666914,230.975276,114.839704,230.68,114.96C230.459258,115.039567,230.223092,115.066949,229.99,115.04C229.741756,114.998628,229.507911,114.895461,229.31,114.74C229.015457,114.517727,228.747075,114.262764,228.51,113.98L226.08,111.21C225.919273,110.989908,225.691019,110.828375,225.43,110.75C225.202905,110.740696,224.983301,110.832198,224.83,111L224.64,110.78L225.22,110.32C225.48,110.11,225.73,109.9,225.97,109.68C226.21,109.46,226.45,109.25,226.68,109.03L227.21,108.52L227.4,108.74C227.236659,108.848329,227.141842,109.034172,227.15,109.23C227.219734,109.490826,227.361881,109.726583,227.56,109.91L230.37,113.11C230.502971,113.257137,230.646701,113.394182,230.8,113.52C230.923329,113.615207,231.074213,113.667841,231.23,113.67C231.400671,113.666019,231.562678,113.594016,231.68,113.47C231.852521,113.312334,231.974336,113.106988,232.03,112.88C232.094848,112.634205,232.094848,112.375795,232.03,112.13C231.95485,111.859034,231.817936,111.609166,231.63,111.4L229.12,108.54C228.95787,108.325375,228.73996,108.159348,228.49,108.06C228.297265,108.026819,228.100976,108.094766,227.97,108.24L227.78,108.02L228.31,107.6L229.03,107L229.82,106.28L230.41,105.71L230.6,105.92C230.401067,106.062169,230.267716,106.278414,230.23,106.52C230.259254,106.797736,230.391214,107.054524,230.6,107.24L233.45,110.48C233.642471,110.729159,233.897918,110.92247,234.19,111.04C234.452539,111.092459,234.723134,111.000991,234.9,110.8L235.09,111.02C234.859893,111.183698,234.63952,111.360665,234.43,111.55C234.155785,111.784782,233.895351,112.035199,233.65,112.3C233.43514,112.523698,233.234734,112.760844,233.05,113.01L232.24,112.09C232.389384,112.517321,232.389384,112.982679,232.24,113.41C232.075338,113.813496,231.814412,114.170552,231.48,114.45Z" transform="matrix(1 0 0 1 -146.2 -29.99)" fill="rgb(29,29,27)" stroke="none" stroke-width="1"/><path id="ehLCrtvGmlE13" d="M218.15,122.37C217.58019,122.573742,216.97158,122.645545,216.37,122.58C215.806408,122.494202,215.284646,122.23157,214.88,121.83C214.360765,121.284853,213.980084,120.622949,213.77,119.9C213.507892,119.201592,213.408704,118.452558,213.48,117.71C213.555439,117.142361,213.815463,116.615284,214.22,116.21C214.653135,115.787826,215.181254,115.475756,215.76,115.3C216.322773,115.095846,216.924991,115.02399,217.52,115.09C218.089899,115.16759,218.619508,115.427134,219.03,115.83C219.544558,116.373103,219.921721,117.031425,220.13,117.75C220.403179,118.449085,220.502692,119.204005,220.42,119.95C220.338958,120.520912,220.075937,121.05046,219.67,121.46C219.23963,121.875633,218.719617,122.186956,218.15,122.37ZM218.06,122.11C218.41,121.99,218.61,121.63,218.67,121.04C218.674084,120.13933,218.504314,119.246336,218.17,118.41C217.946741,117.535902,217.548739,116.716085,217,116C216.6,115.57,216.22,115.41,215.88,115.53C215.54,115.65,215.32,116,215.26,116.59C215.254931,117.487518,215.424761,118.377427,215.76,119.21C216.002686,120.076383,216.41012,120.887857,216.96,121.6C217.33,122.07,217.71,122.23,218.06,122.11Z" transform="matrix(1 0 0 1 -146.2 -29.99)" fill="rgb(29,29,27)" stroke="none" stroke-width="1"/><path id="ehLCrtvGmlE14" d="M205.26,124.36C205.008293,124.377914,204.757111,124.318608,204.54,124.19C204.363358,124.07761,204.221413,123.918355,204.13,123.73C204.040459,123.542015,203.989456,123.338006,203.98,123.13C203.966777,122.825083,204.066472,122.526,204.26,122.29C204.456009,122.09525,204.723862,121.990281,205,122C205.271102,121.983686,205.539534,122.06139,205.76,122.22C205.939181,122.38026,206.041114,122.609609,206.04,122.85C206.048853,123.077402,205.993397,123.302691,205.88,123.5C205.766759,123.67006,205.624612,123.818975,205.46,123.94C205.583544,123.979774,205.716456,123.979774,205.84,123.94C206.084433,123.900495,206.307323,123.776667,206.47,123.59C206.656784,123.397739,206.803014,123.169892,206.9,122.92C206.996697,122.678161,207.047563,122.420443,207.05,122.16L206.96,118.54C207.004352,118.204939,206.876454,117.870147,206.62,117.65C206.317285,117.47595,205.967157,117.402423,205.62,117.44L205.62,117.16L207.8,117.16L208.91,117.16L209.75,117.16L209.75,117.44C209.50492,117.424166,209.263682,117.506979,209.08,117.67C208.925961,117.898948,208.861864,118.176704,208.9,118.45L209,122.76C208.985767,123.076802,209.058382,123.391471,209.21,123.67C209.377332,123.880646,209.643556,123.987135,209.91,123.95L209.91,124.23C209.62,124.23,209.34,124.23,209.06,124.23C208.78,124.23,208.32,124.23,207.99,124.31C207.680351,124.344475,207.373107,124.397909,207.07,124.47L207.07,123.2C206.967373,123.447724,206.825561,123.677324,206.65,123.88C206.476718,124.081633,206.266216,124.247997,206.03,124.37C205.775393,124.419832,205.513227,124.416427,205.26,124.36Z" transform="matrix(1 0 0 1 -146.2 -29.99)" fill="rgb(29,29,27)" stroke="none" stroke-width="1"/><path id="ehLCrtvGmlE15" d="M196.23,123C195.538205,122.863406,194.937776,122.437647,194.58,121.83C194.249117,121.061157,194.227625,120.194296,194.52,119.41L198.87,120.56L198.87,120.82L196.16,120.1C196.046325,120.499312,195.966049,120.907384,195.92,121.32C195.870327,121.653883,195.890761,121.994452,195.98,122.32C196.027455,122.546507,196.19711,122.72773,196.42,122.79C196.77908,122.843343,197.138868,122.697897,197.36,122.41C197.785822,121.874117,198.092628,121.253688,198.26,120.59L198.26,120.5C198.26,120.39,198.33,120.28,198.36,120.17C198.39,120.06,198.43,119.94,198.47,119.82C198.620557,119.314549,198.66482,118.783399,198.6,118.26C198.551879,117.893322,198.403032,117.547166,198.17,117.26C197.974457,117.034508,197.71723,116.871134,197.43,116.79C197.126408,116.728586,196.813592,116.728586,196.51,116.79C196.084069,116.880993,195.696501,117.100964,195.4,117.42L195.18,117.27C195.389899,116.950472,195.649895,116.666839,195.95,116.43C196.264987,116.169192,196.633814,115.981363,197.03,115.88C197.472088,115.76066,197.937912,115.76066,198.38,115.88C198.935523,116.016331,199.445735,116.295569,199.86,116.69C200.261494,117.081286,200.530703,117.588237,200.63,118.14C200.817397,119.567091,200.420762,121.009402,199.53,122.14C199.121073,122.577821,198.586588,122.878251,198,123C197.419194,123.147302,196.810806,123.147302,196.23,123Z" transform="matrix(1 0 0 1 -146.2 -29.99)" fill="rgb(29,29,27)" stroke="none" stroke-width="1"/></g></g></svg>